<mxfile host="app.diagrams.net" modified="2024-06-23T20:15:40.158Z" agent="Mozilla/5.0 (Windows NT 10.0; Win64; x64) AppleWebKit/537.36 (KHTML, like Gecko) Chrome/123.0.0.0 Safari/537.36 OPR/109.0.0.0 (Edition std-1)" etag="vMKZWPNiOU8dkMb5j6Cu" version="24.6.2" type="device">
  <diagram name="PÃ¡gina-1" id="1uFfcz3czaG_Ah4L9uhd">
    <mxGraphModel dx="3332" dy="2092" grid="1" gridSize="10" guides="1" tooltips="1" connect="1" arrows="1" fold="1" page="1" pageScale="1" pageWidth="827" pageHeight="1169" math="0" shadow="0">
      <root>
        <mxCell id="0" />
        <mxCell id="1" parent="0" />
        <mxCell id="26vUE4dLXjxIYAb9QyYs-53" value="" style="group;movable=1;resizable=1;rotatable=1;deletable=1;editable=1;locked=0;connectable=1;" parent="1" vertex="1" connectable="0">
          <mxGeometry x="130" y="920" width="340" height="630" as="geometry" />
        </mxCell>
        <mxCell id="26vUE4dLXjxIYAb9QyYs-43" value="&#xa;&lt;div&gt;&lt;span data-canva-clipboard=&quot;ewAiAGEAIgA6ADUALAAiAGgAIgA6ACIAdwB3AHcALgBjAGEAbgB2AGEALgBjAG8AbQAiACwAIgBjACIAOgAiAEQAQQBHAEcASQBtAHUAMwBEAEIAZwAiACwAIgBpACIAOgAiAHcAMgBBAGIAdgBvADUAawB2AG8AcABxAEYANQA3AC0AdQBzAGYAMwBDAGcAIgAsACIAYgAiADoAMQA3ADEANgA4ADkANAAyADAANAA1ADMAOAAsACIAagAiADoAWwB7AH0ALAB7AH0ALAB7ACIAQQAiADoAewAiAEsAIgA6AHsAfQAsACIARAAiADoAewB9ACwAIgBMACIAOgB7ACIAQQAiADoAWwB7ACIAQQAiADoAewB9ACwAIgBCACIAOgAiAEMAIgB9ACwAewAiAEEAIgA6AHsAfQAsACIAQgAiADoAIgBCACIAfQBdAH0ALAAiAEUAIgA6AHsAfQAsACIARgAiADoAewAiAEEAIgA6ACIASQBkAGUAbgB0AGkAdAB5AC4AcABuAGcAIgAsACIAQgAiADoAMQB9ACwAIgBHACIAOgB7AH0ALAAiAEgAIgA6AHsAIgBCACIAOgAiAG4AbwBuAGUAIgAsACIAQwAiADoAIgAjADAAMAAwADAAMAAwACIALAAiAEQAIgA6ACIAIwBmAGYAZgBmAGYAZgAiAH0ALAAiAEoAIgA6AHsAIgBGACIAOgAiACMAMAAwADAAMAAwADAAIgB9ACwAIgBQACIAOgB7AH0AfQB9ACwAewB9ACwAewB9ACwAewAiAEEAIgA6AHsAIgBLACIAOgB7AH0ALAAiAEQAIgA6AHsAfQAsACIATAAiADoAewAiAEEAIgA6AFsAewAiAEEAIgA6AHsAfQAsACIAQgAiADoAIgBDACIAfQAsAHsAIgBBACIAOgB7AH0ALAAiAEIAIgA6ACIAQgAiAH0AXQB9ACwAIgBFACIAOgB7AH0ALAAiAEYAIgA6AHsAIgBBACIAOgAiAEkAZABlAG4AdABpAHQAeQAuAHAAbgBnACIALAAiAEIAIgA6ADEAfQAsACIARwAiADoAewB9ACwAIgBIACIAOgB7ACIAQgAiADoAIgBuAG8AbgBlACIALAAiAEMAIgA6ACIAIwAwADAAMAAwADAAMAAiACwAIgBEACIAOgAiACMAZgBmAGYAZgBmAGYAIgB9ACwAIgBKACIAOgB7ACIARgAiADoAIgAjADAAMAAwADAAMAAwACIAfQAsACIAUAAiADoAewB9AH0AfQAsAHsAfQBdACwAIgBBAD8AIgA6ACIAQwAiACwAIgBBACIAOgBbAHsAIgBEACIAOgB7ACIAQwAiADoAIgAjAGYAZgBmAGYAZgBmACIAfQAsACIARQAiADoAWwB7ACIAQQAiADoAMgAyAC4AMAA4ADkAMwAyADkAMgAzADEANwA1ADIANgAzACwAIgBCACIAOgAyADUALgA2ADMAMgA5ADMANQAxADYAMAA0ADAAMQAwADcANQAsACIARAAiADoAMQA4ADYAOAAuADcAMwA0ADEAMgA5ADYANwA5ADEAOQA3ADgALAAiAEMAIgA6ADEAMAAzADUALgA4ADIAMQAzADQAMQA1ADMANgA0ADkANAA2ACwAIgBBAD8AIgA6ACIASgAiACwAIgBhACIAOgB7ACIARAAiADoANgA0ACwAIgBDACIAOgA2ADQAfQAsACIAYgAiADoAWwB7ACIAQQAiADoAIgBNADAAIAAwAEgANgA0AFYANgA0AEgAMAB6ACIALAAiAEIAIgA6AHsAIgBBACIAOgBmAGEAbABzAGUALAAiAEMAIgA6ACIAIwBhADYAYQA2AGEANgAiAH0ALAAiAEQAIgA6ADgAMAB9AF0ALAAiAGMAIgA6AHsAIgBBACIAOgB7ACIARAAiADoANgA0ACwAIgBDACIAOgA2ADQAfQAsACIAQgAiADoAMwA2ADkALgAxADMAMgA2ADYANwA1ADkAMAA5ADUAMgA1ADYALAAiAEMAIgA6ADIAMAA0AC4ANgAwADYANgA4ADQANwA0ADcAOQA0ADkANQA0ACwAIgBEACIAOgAiAEEAIgAsACIARQAiADoAIgBBACIAfQAsACIAZQAiADoAewB9ACwAIgBmACIAOgBbAHsAIgBBACIAOgB7ACIAQQAiADoAWwB7ACIAQQA/ACIAOgAiAEEAIgAsACIAQQAiADoAIgBcAG4AIgB9AF0ALAAiAEIAIgA6AFsAewAiAEEAPwAiADoAIgBBACIALAAiAEEAIgA6AHsAIgBmAG8AbgB0AC0AcwBpAHoAZQAiADoAewAiAEIAIgA6ACIAMgA1AC4AMwAzADMAMwAiAH0ALAAiAGYAbwBuAHQALQBmAGEAbQBpAGwAeQAiADoAewAiAEIAIgA6ACIAWQBBAEYAZABKAHQAOABkAEEAWQAwACwAMAAiAH0ALAAiAGMAbwBsAG8AcgAiADoAewAiAEIAIgA6ACIAIwBmAGYAZgBmAGYAZgAiAH0ALAAiAHQAZQB4AHQALQBhAGwAaQBnAG4AIgA6AHsAIgBCACIAOgAiAGMAZQBuAHQAZQByACIAfQAsACIAcwBwAGEAYwBpAG4AZwAiADoAewAiAEIAIgA6ACIAMAAuADAAIgB9AH0AfQAsAHsAIgBBAD8AIgA6ACIAQgAiACwAIgBBACIAOgAxAH0ALAB7ACIAQQA/ACIAOgAiAEEAIgAsACIAQQAiADoAewAiAGYAbwBuAHQALQBzAGkAegBlACIAOgB7AH0ALAAiAGYAbwBuAHQALQBmAGEAbQBpAGwAeQAiADoAewB9ACwAIgBjAG8AbABvAHIAIgA6AHsAfQAsACIAdABlAHgAdAAtAGEAbABpAGcAbgAiADoAewB9ACwAIgBzAHAAYQBjAGkAbgBnACIAOgB7AH0AfQB9AF0AfQAsACIAQgAiADoAewB9ACwAIgBEACIAOgB7ACIARAAiADoANgA0ACwAIgBDACIAOgA2ADQAfQAsACIARQAiADoAWwA0AF0ALAAiAEYAIgA6ACIAQgAiAH0AXQAsACIAaAAiADoAewAiAEEAPwAiADoAIgBIACIALAAiAEEAIgA6ADEAMAAzADUALgA4ADIAMQAzADQAMQA1ADMANgA0ADkANAA2AH0AfQAsAHsAIgBBACIAOgAzADMAOQAuADQAMgA0ADQAMwA5ADkAMQA2ADUAOAA0ADUANgAsACIAQgAiADoAMgA5ADgALgA5ADIAOQAxADEAMgAzADkANwA2ADgANwA2ACwAIgBEACIAOgAxADMAMgAyAC4AMQA0ADEANwA3ADUAMgAwADQANgAyADQAOAAsACIAQwAiADoANAAwADEALgAxADUAMQAxADIAMAAxADYANgA4ADMAMAA2ACwAIgBBAD8AIgA6ACIASAAiACwAIgBiACIAOgAxADMAMgAyAC4AMQA0ADEANwA3ADUAMgAwADQANgAyADQAOAAsACIAYQAiADoANAAwADEALgAxADUAMQAxADIAMAAxADYANgA4ADMAMAA2ACwAIgBjACIAOgBbAHsAIgBBACIAOgA1ADMALgA5ADMAMwAzADQAMAAwADAAMAAwADAAMAAwADYALAAiAEIAIgA6ADEALgAyADcAOAA5ADcANgA5ADIANAAzADYAOAAxADgAMAAzAGUALQAxADMALAAiAEQAIgA6ADEAMwA3AC4ANgAwADAANgA2ADcAOQAxADkAMAA2ADEAMgA0ACwAIgBDACIAOgAxADMANwAuADYAMAAwADYANgA3ADkAMQA5ADAANgAxADIANAAsACIAQQA/ACIAOgAiAEkAIgAsACIAYQAiADoAewAiAEEAIgA6AGYAYQBsAHMAZQAsACIAQgAiADoAewAiAEEAIgA6AHsAIgBBACIAOgAiAE0AQQBHAEcASQAtAGgAWQBIAGsAdwAiACwAIgBCACIAOgAxAH0ALAAiAEIAIgA6AHsAIgBEACIAOgAxADMANwAuADYAMAAwADYANgA3ADkAMQA5ADAANgAxADIANAAsACIAQwAiADoAMQAzADcALgA2ADAAMAA2ADYANwA5ADEAOQAwADYAMQAyADQAfQAsACIAQwAiADoAewAiACMAZgBmAGYAZgBmAGYAIgA6ACIAIwAwADAAMAAwADAAMAAiAH0AfQB9AH0ALAB7ACIAQQAiADoANgAxAC4AOAA5ADkANQA4ADAANQA1ADQAMQA1ADkANAA4ADUALAAiAEIAIgA6ADEANwAwAC4ANAA0ADEANwA3ADUAMgAwADQANgAyADQANQAsACIARAAiADoAMQAxADUAMQAuADcALAAiAEMAIgA6ADEAMQA5AC4AOQA5ADkAOQA5ADkAOQA5ADkAOQA5ADkAOQA0ACwAIgBGACIAOgAwAC4ANAA2ACwAIgBBAD8AIgA6ACIASgAiACwAIgBhACIAOgB7ACIARAAiADoANgA0ACwAIgBDACIAOgA2ADQAfQAsACIAYgAiADoAWwB7ACIAQQAiADoAIgBNADAAIAAwAEgANgA0AFYANgA0AEgAMAB6ACIALAAiAEIAIgA6AHsAIgBBACIAOgBmAGEAbABzAGUALAAiAEMAIgA6ACIAIwBlADIAZQAyAGUAMgAiAH0ALAAiAEMAIgA6AHsAIgBBACIAOgA0ACwAIgBCACIAOgAiACMAMAAwADAAMAAwADAAIgAsACIAZgAiADoAdAByAHUAZQB9AH0AXQAsACIAYwAiADoAewAiAEEAIgA6AHsAIgBEACIAOgA2ADQALAAiAEMAIgA6ADYANAB9ACwAIgBCACIAOgAyADUANwAuADAAMQAyADIAMgA2ADcANgAzADIAOQA5ADAANQAsACIAQwAiADoAMgA2AC4ANwA3ADkAMAA4ADAANgA3ADMANAAzADUANgA3ADIALAAiAEQAIgA6ACIAQQAiACwAIgBFACIAOgAiAEEAIgB9ACwAIgBlACIAOgB7AH0ALAAiAGYAIgA6AFsAewAiAEEAIgA6AHsAIgBBACIAOgBbAHsAIgBBAD8AIgA6ACIAQQAiACwAIgBBACIAOgAiAFwAbgAiAH0AXQAsACIAQgAiADoAWwB7ACIAQQA/ACIAOgAiAEEAIgAsACIAQQAiADoAewAiAGYAbwBuAHQALQBzAGkAegBlACIAOgB7ACIAQgAiADoAIgAyADUALgAzADMAMwAzACIAfQAsACIAdABlAHgAdAAtAHQAcgBhAG4AcwBmAG8AcgBtACIAOgB7ACIAQgAiADoAIgBuAG8AbgBlACIAfQAsACIAdAByAGEAYwBrAGkAbgBnACIAOgB7ACIAQgAiADoAIgAwAC4AMAAiAH0ALAAiAGYAbwBuAHQALQB3AGUAaQBnAGgAdAAiADoAewAiAEIAIgA6ACIAbgBvAHIAbQBhAGwAIgB9ACwAIgBsAGUAYQBkAGkAbgBnACIAOgB7ACIAQgAiADoAIgAxADQAMAAwAC4AMAAiAH0ALAAiAGYAbwBuAHQALQBzAHQAeQBsAGUAIgA6AHsAIgBCACIAOgAiAG4AbwByAG0AYQBsACIAfQAsACIAYwBvAGwAbwByACIAOgB7ACIAQgAiADoAIgAjADAAMAAwADAAMAAwACIAfQAsACIAZgBvAG4AdAAtAGYAYQBtAGkAbAB5ACIAOgB7ACIAQgAiADoAIgBZAEEARgBkAEoAdAA4AGQAQQBZADAALAAwACIAfQB9AH0ALAB7ACIAQQA/ACIAOgAiAEIAIgAsACIAQQAiADoAMQB9ACwAewAiAEEAPwAiADoAIgBBACIALAAiAEEAIgA6AHsAIgBmAG8AbgB0AC0AcwBpAHoAZQAiADoAewB9ACwAIgB0AGUAeAB0AC0AdAByAGEAbgBzAGYAbwByAG0AIgA6AHsAfQAsACIAdAByAGEAYwBrAGkAbgBnACIAOgB7AH0ALAAiAGYAbwBuAHQALQB3AGUAaQBnAGgAdAAiADoAewB9ACwAIgBsAGUAYQBkAGkAbgBnACIAOgB7AH0ALAAiAGYAbwBuAHQALQBzAHQAeQBsAGUAIgA6AHsAfQAsACIAYwBvAGwAbwByACIAOgB7AH0ALAAiAGYAbwBuAHQALQBmAGEAbQBpAGwAeQAiADoAewB9AH0AfQBdAH0ALAAiAEIAIgA6AHsAfQAsACIARAAiADoAewAiAEQAIgA6ADYANAAsACIAQwAiADoANgA0AH0ALAAiAEUAIgA6AFsANABdACwAIgBGACIAOgAiAEIAIgB9AF0ALAAiAGgAIgA6AHsAIgBBAD8AIgA6ACIASAAiACwAIgBBACIAOgAxADEAOQAuADkAOQA5ADkAOQA5ADkAOQA5ADkAOQA5ADkANAB9AH0ALAB7ACIAQQAiADoAMgA3ADcALgA4ADkAOQA5ADgAMAAwADUAOAA3ADcAMwA3ADQALAAiAEIAIgA6ADEANwAwAC4ANAA0ADEANwA3ADUAMgAwADQANgAyADQANwAyACwAIgBEACIAOgAxADEANQAxAC4ANwAwADAAMAAwADAAMAAwADAAMAAwADAAMwAsACIAQwAiADoAMQAxADkALgA5ADkAOQA5ADkAOQA5ADkAOQA5ADkAOQA5ADQALAAiAEYAIgA6ADAALgA0ADYALAAiAEEAPwAiADoAIgBKACIALAAiAGEAIgA6AHsAIgBEACIAOgA2ADQALAAiAEMAIgA6ADYANAB9ACwAIgBiACIAOgBbAHsAIgBBACIAOgAiAE0AMAAgADAASAA2ADQAVgA2ADQASAAwAHoAIgAsACIAQgAiADoAewAiAEEAIgA6AGYAYQBsAHMAZQAsACIAQwAiADoAIgAjAGUAMgBlADIAZQAyACIAfQAsACIAQwAiADoAewAiAEEAIgA6ADQALAAiAEIAIgA6ACIAIwAwADAAMAAwADAAMAAiACwAIgBmACIAOgB0AHIAdQBlAH0AfQBdACwAIgBjACIAOgB7ACIAQQAiADoAewAiAEQAIgA6ADYANAAsACIAQwAiADoANgA0AH0ALAAiAEIAIgA6ADIANQA3AC4AMAAxADIAMgAyADYANwA2ADMAMgA5ADkAMQAsACIAQwAiADoAMgA2AC4ANwA3ADkAMAA4ADAANgA3ADMANAAzADUANgA3ADIALAAiAEQAIgA6ACIAQQAiACwAIgBFACIAOgAiAEEAIgB9ACwAIgBlACIAOgB7AH0ALAAiAGYAIgA6AFsAewAiAEEAIgA6AHsAIgBBACIAOgBbAHsAIgBBAD8AIgA6ACIAQQAiACwAIgBBACIAOgAiAFwAbgAiAH0AXQAsACIAQgAiADoAWwB7ACIAQQA/ACIAOgAiAEEAIgAsACIAQQAiADoAewAiAGYAbwBuAHQALQBzAGkAegBlACIAOgB7ACIAQgAiADoAIgAyADUALgAzADMAMwAzACIAfQAsACIAdABlAHgAdAAtAHQAcgBhAG4AcwBmAG8AcgBtACIAOgB7ACIAQgAiADoAIgBuAG8AbgBlACIAfQAsACIAdAByAGEAYwBrAGkAbgBnACIAOgB7ACIAQgAiADoAIgAwAC4AMAAiAH0ALAAiAGYAbwBuAHQALQB3AGUAaQBnAGgAdAAiADoAewAiAEIAIgA6ACIAbgBvAHIAbQBhAGwAIgB9ACwAIgBsAGUAYQBkAGkAbgBnACIAOgB7ACIAQgAiADoAIgAxADQAMAAwAC4AMAAiAH0ALAAiAGYAbwBuAHQALQBzAHQAeQBsAGUAIgA6AHsAIgBCACIAOgAiAG4AbwByAG0AYQBsACIAfQAsACIAYwBvAGwAbwByACIAOgB7ACIAQgAiADoAIgAjADAAMAAwADAAMAAwACIAfQAsACIAZgBvAG4AdAAtAGYAYQBtAGkAbAB5ACIAOgB7ACIAQgAiADoAIgBZAEEARgBkAHQAUQBpADcAMwBYAHMALAAwACIAfQB9AH0ALAB7ACIAQQA/ACIAOgAiAEIAIgAsACIAQQAiADoAMQB9ACwAewAiAEEAPwAiADoAIgBBACIALAAiAEEAIgA6AHsAIgBmAG8AbgB0AC0AcwBpAHoAZQAiADoAewB9ACwAIgB0AGUAeAB0AC0AdAByAGEAbgBzAGYAbwByAG0AIgA6AHsAfQAsACIAdAByAGEAYwBrAGkAbgBnACIAOgB7AH0ALAAiAGYAbwBuAHQALQB3AGUAaQBnAGgAdAAiADoAewB9ACwAIgBsAGUAYQBkAGkAbgBnACIAOgB7AH0ALAAiAGYAbwBuAHQALQBzAHQAeQBsAGUAIgA6AHsAfQAsACIAYwBvAGwAbwByACIAOgB7AH0ALAAiAGYAbwBuAHQALQBmAGEAbQBpAGwAeQAiADoAewB9AH0AfQBdAH0ALAAiAEIAIgA6AHsAfQAsACIARAAiADoAewAiAEQAIgA6ADYANAAsACIAQwAiADoANgA0AH0ALAAiAEUAIgA6AFsANABdACwAIgBGACIAOgAiAEIAIgB9AF0ALAAiAGgAIgA6AHsAIgBBAD8AIgA6ACIASAAiACwAIgBBACIAOgAxADEAOQAuADkAOQA5ADkAOQA5ADkAOQA5ADkAOQA5ADkANAB9AH0ALAB7ACIAQQAiADoAMgA3ADYALgAzADEANwAwADIANgA3ADYAMQA0ADUAOQA0ACwAIgBCACIAOgAyAC4AMAAxADIAMAA3ADYANQA1ADUANQA5ADIANAAxADUALAAiAEQAIgA6ADEAMgA0AC4AOAAzADQAMAA5ADMANAAwADUAMwA3ADEAMwAzACwAIgBDACIAOgAxADIANAAuADgAMwA0ADAAOQAzADQAMAA1ADMANwAxADMAMwAsACIAQQA/ACIAOgAiAEkAIgAsACIAYQAiADoAewAiAEIAIgA6AHsAIgBBACIAOgB7ACIAQQAiADoAIgBNAEEARwBHAEkAMwBHADQAOQBBAHcAIgAsACIAQgAiADoAMQB9ACwAIgBCACIAOgB7ACIARAAiADoAMQAyADQALgA4ADMANAAwADkAMwA0ADAANQAzADcAMQAzADMALAAiAEMAIgA6ADEAMgA0AC4AOAAzADQAMAA5ADMANAAwADUAMwA3ADEAMwAzAH0ALAAiAEMAIgA6AHsAIgAjAGYAZgBmAGYAZgBmACIAOgAiACMAMAAwADAAMAAwADAAIgB9AH0AfQB9ACwAewAiAEEAIgA6ADcALgA4ADEANQA5ADcAMAAwADkAMwAzADYAMQAxADAAMgBlAC0AMQA0ACwAIgBCACIAOgAxADcAMAAuADQAMAA4ADkANQAyADgAOQA4ADQAMAA2ADQAOAAsACIARAAiADoANAAzADcALgA2ADQAMwA2ADQANwA1ADAAMgAwADkANwA1ADYALAAiAEMAIgA6ADUAMwAuADkAMwAzADMANAAsACIAQQA/ACIAOgAiAEsAIgAsACIAYQAiADoAewAiAEEAIgA6AFsAewAiAEEAPwAiADoAIgBBACIALAAiAEEAIgA6ACIATgBvAG0AZQAgAGQAZQAgAFUAcwB1AOEAcgBpAG8AIAA6AFwAbgAiAH0AXQAsACIAQgAiADoAWwB7ACIAQQA/ACIAOgAiAEEAIgAsACIAQQAiADoAewAiAHQAZQB4AHQALQBhAGwAaQBnAG4AIgA6AHsAIgBCACIAOgAiAGMAZQBuAHQAZQByACIAfQAsACIAZgBvAG4AdAAtAHMAaQB6AGUAIgA6AHsAIgBCACIAOgAiADQANQAuADMAMwAzADMAIgB9ACwAIgBmAG8AbgB0AC0AZgBhAG0AaQBsAHkAIgA6AHsAIgBCACIAOgAiAFkAQQBGAGQAdABRAGkANwAzAFgAcwAsADAAIgB9AH0AfQAsAHsAIgBBAD8AIgA6ACIAQgAiACwAIgBBACIAOgAxADcAfQAsAHsAIgBBAD8AIgA6ACIAQQAiACwAIgBBACIAOgB7ACIAYwBvAGwAbwByACIAOgB7ACIAQgAiADoAIgAjADAAMAAwADAAMAAwACIAfQAsACIAcwBwAGEAYwBpAG4AZwAiADoAewAiAEIAIgA6ACIAMAAuADAAIgB9ACwAIgB0AGUAeAB0AC0AdAByAGEAbgBzAGYAbwByAG0AIgA6AHsAIgBCACIAOgAiAG4AbwBuAGUAIgB9ACwAIgBkAGUAYwBvAHIAYQB0AGkAbwBuACIAOgB7ACIAQgAiADoAIgBuAG8AbgBlACIAfQAsACIAcwB0AHIAaQBrAGUAdABoAHIAbwB1AGcAaAAiADoAewAiAEIAIgA6ACIAbgBvAG4AZQAiAH0ALAAiAGwAaQBuAGsAIgA6AHsAIgBCACIAOgAiACIAfQAsACIAbABpAHMAdAAtAG0AYQByAGsAZQByACIAOgB7ACIAQgAiADoAIgBuAG8AbgBlACIAfQAsACIAbABlAGEAZABpAG4AZwAiADoAewAiAEIAIgA6ACIAMQA0ADAAMAAuADAAIgB9ACwAIgB0AHIAYQBjAGsAaQBuAGcAIgA6AHsAIgBCACIAOgAiADAALgAwACIAfQAsACIAcwB0AHkAbABlACIAOgB7ACIAQgAiADoAIgBiAG8AZAB5ACIAfQAsACIAawBlAHIAbgBpAG4AZwAiADoAewAiAEIAIgA6ACIAMAAuADAAIgB9ACwAIgBsAGkAcwB0AC0AbABlAHYAZQBsACIAOgB7ACIAQgAiADoAIgAwAC4AMAAiAH0ALAAiAGgAZQBhAGQALQBpAG4AZABlAG4AdAAiADoAewAiAEIAIgA6ACIAMAAuADAAIgB9AH0AfQAsAHsAIgBBAD8AIgA6ACIAQgAiACwAIgBBACIAOgAxAH0ALAB7ACIAQQA/ACIAOgAiAEEAIgAsACIAQQAiADoAewAiAGYAbwBuAHQALQBzAGkAegBlACIAOgB7AH0ALAAiAGwAaQBuAGsAIgA6AHsAfQAsACIAaABlAGEAZAAtAGkAbgBkAGUAbgB0ACIAOgB7AH0ALAAiAHQAcgBhAGMAawBpAG4AZwAiADoAewB9ACwAIgBsAGkAcwB0AC0AbABlAHYAZQBsACIAOgB7AH0ALAAiAHMAdAByAGkAawBlAHQAaAByAG8AdQBnAGgAIgA6AHsAfQAsACIAcwB0AHkAbABlACIAOgB7AH0ALAAiAGQAZQBjAG8AcgBhAHQAaQBvAG4AIgA6AHsAfQAsACIAdABlAHgAdAAtAHQAcgBhAG4AcwBmAG8AcgBtACIAOgB7AH0ALAAiAGsAZQByAG4AaQBuAGcAIgA6AHsAfQAsACIAbABpAHMAdAAtAG0AYQByAGsAZQByACIAOgB7AH0ALAAiAGwAZQBhAGQAaQBuAGcAIgA6AHsAfQAsACIAdABlAHgAdAAtAGEAbABpAGcAbgAiADoAewB9ACwAIgBzAHAAYQBjAGkAbgBnACIAOgB7AH0ALAAiAGMAbwBsAG8AcgAiADoAewB9ACwAIgBmAG8AbgB0AC0AZgBhAG0AaQBsAHkAIgA6AHsAfQB9AH0AXQB9ACwAIgBiACIAOgB7ACIAQQAiADoAWwAxADgAXQB9ACwAIgBkACIAOgAiAEEAIgAsACIAZwAiADoAZgBhAGwAcwBlACwAIgBoACIAOgAiAEEAIgB9ACwAewAiAEEAIgA6ADIAMQA2AC4AMAAwADAAMwA5ADkANQAwADQANgAxADQANAAyACwAIgBCACIAOgAxADcAMAAuADQAMAA4ADkANQAyADgAOQA4ADQAMAA2ADQAOAAsACIARAAiADoAMQA5ADQALgAxADEAOAAxADIAMgA5ADAAMgA2ADAAMAA4ADUALAAiAEMAIgA6ADUAMwAuADkAMwAzADMANAAsACIAQQA/ACIAOgAiAEsAIgAsACIAYQAiADoAewAiAEEAIgA6AFsAewAiAEEAPwAiADoAIgBBACIALAAiAEEAIgA6ACIAUwBlAG4AaABhACAAOgBcAG4AIgB9AF0ALAAiAEIAIgA6AFsAewAiAEEAPwAiADoAIgBBACIALAAiAEEAIgA6AHsAIgB0AGUAeAB0AC0AYQBsAGkAZwBuACIAOgB7ACIAQgAiADoAIgBjAGUAbgB0AGUAcgAiAH0ALAAiAGYAbwBuAHQALQBzAGkAegBlACIAOgB7ACIAQgAiADoAIgA0ADUALgAzADMAMwAzACIAfQAsACIAZgBvAG4AdAAtAGYAYQBtAGkAbAB5ACIAOgB7ACIAQgAiADoAIgBZAEEARgBkAHQAUQBpADcAMwBYAHMALAAwACIAfQB9AH0ALAB7ACIAQQA/ACIAOgAiAEIAIgAsACIAQQAiADoANwB9ACwAewAiAEEAPwAiADoAIgBBACIALAAiAEEAIgA6AHsAIgBmAG8AbgB0AC0AcwB0AHkAbABlACIAOgB7ACIAQgAiADoAIgBuAG8AcgBtAGEAbAAiAH0ALAAiAHQAZQB4AHQALQB0AHIAYQBuAHMAZgBvAHIAbQAiADoAewAiAEIAIgA6ACIAbgBvAG4AZQAiAH0ALAAiAGwAZQBhAGQAaQBuAGcAIgA6AHsAIgBCACIAOgAiADEANAAwADAALgAwACIAfQAsACIAbABpAHMAdAAtAGwAZQB2AGUAbAAiADoAewAiAEIAIgA6ACIAMAAuADAAIgB9ACwAIgBrAGUAcgBuAGkAbgBnACIAOgB7ACIAQgAiADoAIgAwAC4AMAAiAH0ALAAiAHMAdAB5AGwAZQAiADoAewAiAEIAIgA6ACIAYgBvAGQAeQAiAH0ALAAiAHMAdAByAGkAawBlAHQAaAByAG8AdQBnAGgAIgA6AHsAIgBCACIAOgAiAG4AbwBuAGUAIgB9ACwAIgBmAG8AbgB0AC0AdwBlAGkAZwBoAHQAIgA6AHsAIgBCACIAOgAiAG4AbwByAG0AYQBsACIAfQAsACIAcwBwAGEAYwBpAG4AZwAiADoAewAiAEIAIgA6ACIAMAAuADAAIgB9ACwAIgBsAGkAbgBrACIAOgB7ACIAQgAiADoAIgAiAH0ALAAiAHQAcgBhAGMAawBpAG4AZwAiADoAewAiAEIAIgA6ACIAMAAuADAAIgB9ACwAIgBkAGUAYwBvAHIAYQB0AGkAbwBuACIAOgB7ACIAQgAiADoAIgBuAG8AbgBlACIAfQAsACIAaABlAGEAZAAtAGkAbgBkAGUAbgB0ACIAOgB7ACIAQgAiADoAIgAwAC4AMAAiAH0ALAAiAGMAbwBsAG8AcgAiADoAewAiAEIAIgA6ACIAIwAwADAAMAAwADAAMAAiAH0ALAAiAGwAaQBzAHQALQBtAGEAcgBrAGUAcgAiADoAewAiAEIAIgA6ACIAbgBvAG4AZQAiAH0AfQB9ACwAewAiAEEAPwAiADoAIgBCACIALAAiAEEAIgA6ADEAfQAsAHsAIgBBAD8AIgA6ACIAQQAiACwAIgBBACIAOgB7ACIAcwBwAGEAYwBpAG4AZwAiADoAewB9ACwAIgBoAGUAYQBkAC0AaQBuAGQAZQBuAHQAIgA6AHsAfQAsACIAawBlAHIAbgBpAG4AZwAiADoAewB9ACwAIgBsAGkAcwB0AC0AbQBhAHIAawBlAHIAIgA6AHsAfQAsACIAbABpAG4AawAiADoAewB9ACwAIgBzAHQAeQBsAGUAIgA6AHsAfQAsACIAZgBvAG4AdAAtAHMAdAB5AGwAZQAiADoAewB9ACwAIgBmAG8AbgB0AC0AcwBpAHoAZQAiADoAewB9ACwAIgBmAG8AbgB0AC0AZgBhAG0AaQBsAHkAIgA6AHsAfQAsACIAdABlAHgAdAAtAGEAbABpAGcAbgAiADoAewB9ACwAIgB0AHIAYQBjAGsAaQBuAGcAIgA6AHsAfQAsACIAbABlAGEAZABpAG4AZwAiADoAewB9ACwAIgBsAGkAcwB0AC0AbABlAHYAZQBsACIAOgB7AH0ALAAiAHMAdAByAGkAawBlAHQAaAByAG8AdQBnAGgAIgA6AHsAfQAsACIAZgBvAG4AdAAtAHcAZQBpAGcAaAB0ACIAOgB7AH0ALAAiAGQAZQBjAG8AcgBhAHQAaQBvAG4AIgA6AHsAfQAsACIAdABlAHgAdAAtAHQAcgBhAG4AcwBmAG8AcgBtACIAOgB7AH0ALAAiAGMAbwBsAG8AcgAiADoAewB9AH0AfQBdAH0ALAAiAGIAIgA6AHsAIgBBACIAOgBbADgAXQB9ACwAIgBkACIAOgAiAEEAIgAsACIAZwAiADoAZgBhAGwAcwBlACwAIgBoACIAOgAiAEEAIgB9AF0AfQAsAHsAIgBBACIAOgA5ADEAMwAuADAAOQAxADMANgA2ADcAMAA1ADIAOAA1ADQALAAiAEIAIgA6ADcANQAzAC4AOAAxADcAOQA4ADUANgA5ADcANwAzADQAOQAsACIARAAiADoANAAxADIALgAzADYANAAwADIAOAA2ADAANAA1ADMAMAAxACwAIgBDACIAOgAxADEANwAuADgAMQA3ADIANgA2ADUAOAA5ADQAMgA5ADIAMQAsACIARgAiADoAMAAuADIANgAsACIAQQA/ACIAOgAiAEoAIgAsACIAYQAiADoAewAiAEQAIgA6ADYANAAsACIAQwAiADoANgA0AH0ALAAiAGIAIgA6AFsAewAiAEEAIgA6ACIATQAwACAAMABIADYANABWADYANABIADAAegAiACwAIgBCACIAOgB7ACIAQQAiADoAZgBhAGwAcwBlACwAIgBDACIAOgAiACMAZQAyAGUAMgBlADIAIgB9ACwAIgBDACIAOgB7ACIAQQAiADoANAAsACIAQgAiADoAIgAjADAAMAAwADAAMAAwACIALAAiAGYAIgA6AHQAcgB1AGUAfQAsACIARAAiADoANAA1AH0AXQAsACIAYwAiADoAewAiAEEAIgA6AHsAIgBEACIAOgA2ADQALAAiAEMAIgA6ADYANAB9ACwAIgBCACIAOgA4ADEALgA0ADUANAA2ADIAMgA5ADMANAAyADIAOAAxADUALAAiAEMAIgA6ADIAMwAuADIANwAyADUANAA2ADQAOAA2ADgAMAAwADgAMwA0ACwAIgBEACIAOgAiAEEAIgAsACIARQAiADoAIgBBACIAfQAsACIAZQAiADoAewB9ACwAIgBmACIAOgBbAHsAIgBBACIAOgB7ACIAQQAiADoAWwB7ACIAQQA/ACIAOgAiAEEAIgAsACIAQQAiADoAIgBFAG4AdAByAGEAcgBcAG4AIgB9AF0ALAAiAEIAIgA6AFsAewAiAEEAPwAiADoAIgBBACIALAAiAEEAIgA6AHsAIgB0AGUAeAB0AC0AYQBsAGkAZwBuACIAOgB7ACIAQgAiADoAIgBjAGUAbgB0AGUAcgAiAH0ALAAiAGYAbwBuAHQALQBzAGkAegBlACIAOgB7ACIAQgAiADoAIgAyADUALgAzADMAMwAzACIAfQAsACIAZgBvAG4AdAAtAGYAYQBtAGkAbAB5ACIAOgB7ACIAQgAiADoAIgBZAEEARgBkAHQAUQBpADcAMwBYAHMALAAwACIAfQB9AH0ALAB7ACIAQQA/ACIAOgAiAEIAIgAsACIAQQAiADoANgB9ACwAewAiAEEAPwAiADoAIgBBACIALAAiAEEAIgA6AHsAIgBmAG8AbgB0AC0AcwB0AHkAbABlACIAOgB7ACIAQgAiADoAIgBuAG8AcgBtAGEAbAAiAH0ALAAiAGYAbwBuAHQALQB3AGUAaQBnAGgAdAAiADoAewAiAEIAIgA6ACIAbgBvAHIAbQBhAGwAIgB9ACwAIgB0AHIAYQBjAGsAaQBuAGcAIgA6AHsAIgBCACIAOgAiADAALgAwACIAfQAsACIAdABlAHgAdAAtAHQAcgBhAG4AcwBmAG8AcgBtACIAOgB7ACIAQgAiADoAIgBuAG8AbgBlACIAfQAsACIAYwBvAGwAbwByACIAOgB7ACIAQgAiADoAIgAjADAAMAAwADAAMAAwACIAfQAsACIAbABlAGEAZABpAG4AZwAiADoAewAiAEIAIgA6ACIAMQA0ADAAMAAuADAAIgB9AH0AfQAsAHsAIgBBAD8AIgA6ACIAQgAiACwAIgBBACIAOgAxAH0ALAB7ACIAQQA/ACIAOgAiAEEAIgAsACIAQQAiADoAewAiAGYAbwBuAHQALQBmAGEAbQBpAGwAeQAiADoAewB9ACwAIgB0AHIAYQBjAGsAaQBuAGcAIgA6AHsAfQAsACIAbABlAGEAZABpAG4AZwAiADoAewB9ACwAIgB0AGUAeAB0AC0AYQBsAGkAZwBuACIAOgB7AH0ALAAiAGYAbwBuAHQALQB3AGUAaQBnAGgAdAAiADoAewB9ACwAIgB0AGUAeAB0AC0AdAByAGEAbgBzAGYAbwByAG0AIgA6AHsAfQAsACIAYwBvAGwAbwByACIAOgB7AH0ALAAiAGYAbwBuAHQALQBzAHQAeQBsAGUAIgA6AHsAfQAsACIAZgBvAG4AdAAtAHMAaQB6AGUAIgA6AHsAfQB9AH0AXQB9ACwAIgBCACIAOgB7ACIAQQAiADoAWwA3AF0AfQAsACIARAAiADoAewAiAEQAIgA6ADYANAAsACIAQwAiADoANgA0AH0ALAAiAEUAIgA6AFsANABdACwAIgBGACIAOgAiAEIAIgB9AF0ALAAiAGgAIgA6AHsAIgBBAD8AIgA6ACIASAAiACwAIgBBACIAOgAxADEANwAuADgAMQA3ADIANgA2ADUAOAA5ADQAMgA5ADIAMQB9AH0ALAB7ACIAQQAiADoANgA3AC4ANAA5ADIAMgAwADAAMwA3ADkANQAyADkANAAyACwAIgBCACIAOgA3ADUAOQAuADAANwA4ADEAMgA1ACwAIgBEACIAOgA0ADAAMQAuADgANAAzADcANQAsACIAQwAiADoAMQA0ADYALgA0ADYANgA2ACwAIgBBAD8AIgA6ACIASwAiACwAIgBhACIAOgB7ACIAQQAiADoAWwB7ACIAQQA/ACIAOgAiAEEAIgAsACIAQQAiADoAIgBFAG4AdAByAGEAcgBcAG4AIgB9AF0ALAAiAEIAIgA6AFsAewAiAEEAPwAiADoAIgBBACIALAAiAEEAIgA6AHsAIgBmAG8AbgB0AC0AcwBpAHoAZQAiADoAewAiAEIAIgA6ACIAMQAyADIALgA2ADYANwAiAH0ALAAiAGYAbwBuAHQALQB3AGUAaQBnAGgAdAAiADoAewAiAEIAIgA6ACIAYgBvAGwAZAAiAH0ALAAiAHQAZQB4AHQALQBhAGwAaQBnAG4AIgA6AHsAIgBCACIAOgAiAGMAZQBuAHQAZQByACIAfQAsACIAZgBvAG4AdAAtAGYAYQBtAGkAbAB5ACIAOgB7ACIAQgAiADoAIgBZAEEARgBkAHQAUQBpADcAMwBYAHMALAAwACIAfQB9AH0ALAB7ACIAQQA/ACIAOgAiAEIAIgAsACIAQQAiADoANgB9ACwAewAiAEEAPwAiADoAIgBBACIALAAiAEEAIgA6AHsAIgBjAG8AbABvAHIAIgA6AHsAIgBCACIAOgAiACMAMAAwADAAMAAwADAAIgB9ACwAIgBmAG8AbgB0AC0AcwB0AHkAbABlACIAOgB7ACIAQgAiADoAIgBuAG8AcgBtAGEAbAAiAH0AfQB9ACwAewAiAEEAPwAiADoAIgBCACIALAAiAEEAIgA6ADEAfQAsAHsAIgBBAD8AIgA6ACIAQQAiACwAIgBBACIAOgB7ACIAZgBvAG4AdAAtAHMAdAB5AGwAZQAiADoAewB9ACwAIgBmAG8AbgB0AC0AZgBhAG0AaQBsAHkAIgA6AHsAfQAsACIAZgBvAG4AdAAtAHMAaQB6AGUAIgA6AHsAfQAsACIAZgBvAG4AdAAtAHcAZQBpAGcAaAB0ACIAOgB7AH0ALAAiAGMAbwBsAG8AcgAiADoAewB9ACwAIgB0AGUAeAB0AC0AYQBsAGkAZwBuACIAOgB7AH0AfQB9AF0AfQAsACIAYgAiADoAewAiAEEAIgA6AFsANwBdAH0ALAAiAGQAIgA6ACIAQQAiACwAIgBnACIAOgBmAGEAbABzAGUALAAiAGgAIgA6ACIAQgAiAH0AXQB9AF0ALAAiAEIAIgA6ADEAOQAyADAALAAiAEMAIgA6ADEAMAA4ADAAfQA=&quot;&gt;&lt;/span&gt;&lt;/div&gt;&#xa;&#xa;" style="rounded=0;whiteSpace=wrap;html=1;fillColor=#D9D9D9;movable=0;resizable=0;rotatable=0;deletable=0;editable=0;locked=1;connectable=0;" parent="26vUE4dLXjxIYAb9QyYs-53" vertex="1">
          <mxGeometry width="340" height="630" as="geometry" />
        </mxCell>
        <mxCell id="26vUE4dLXjxIYAb9QyYs-51" value="" style="rounded=1;whiteSpace=wrap;html=1;fillColor=#A6A6A6;" parent="26vUE4dLXjxIYAb9QyYs-53" vertex="1">
          <mxGeometry x="10" y="10" width="320" height="610" as="geometry" />
        </mxCell>
        <mxCell id="26vUE4dLXjxIYAb9QyYs-9" value="&#xa;&lt;div&gt;&lt;span data-canva-clipboard=&quot;ewAiAGEAIgA6ADUALAAiAGgAIgA6ACIAdwB3AHcALgBjAGEAbgB2AGEALgBjAG8AbQAiACwAIgBjACIAOgAiAEQAQQBHAEcASQBtAHUAMwBEAEIAZwAiACwAIgBpACIAOgAiAHcAMgBBAGIAdgBvADUAawB2AG8AcABxAEYANQA3AC0AdQBzAGYAMwBDAGcAIgAsACIAYgAiADoAMQA3ADEANgA4ADkANAAyADAANAA1ADMAOAAsACIAagAiADoAWwB7AH0ALAB7AH0ALAB7ACIAQQAiADoAewAiAEsAIgA6AHsAfQAsACIARAAiADoAewB9ACwAIgBMACIAOgB7ACIAQQAiADoAWwB7ACIAQQAiADoAewB9ACwAIgBCACIAOgAiAEMAIgB9ACwAewAiAEEAIgA6AHsAfQAsACIAQgAiADoAIgBCACIAfQBdAH0ALAAiAEUAIgA6AHsAfQAsACIARgAiADoAewAiAEEAIgA6ACIASQBkAGUAbgB0AGkAdAB5AC4AcABuAGcAIgAsACIAQgAiADoAMQB9ACwAIgBHACIAOgB7AH0ALAAiAEgAIgA6AHsAIgBCACIAOgAiAG4AbwBuAGUAIgAsACIAQwAiADoAIgAjADAAMAAwADAAMAAwACIALAAiAEQAIgA6ACIAIwBmAGYAZgBmAGYAZgAiAH0ALAAiAEoAIgA6AHsAIgBGACIAOgAiACMAMAAwADAAMAAwADAAIgB9ACwAIgBQACIAOgB7AH0AfQB9ACwAewB9ACwAewB9ACwAewAiAEEAIgA6AHsAIgBLACIAOgB7AH0ALAAiAEQAIgA6AHsAfQAsACIATAAiADoAewAiAEEAIgA6AFsAewAiAEEAIgA6AHsAfQAsACIAQgAiADoAIgBDACIAfQAsAHsAIgBBACIAOgB7AH0ALAAiAEIAIgA6ACIAQgAiAH0AXQB9ACwAIgBFACIAOgB7AH0ALAAiAEYAIgA6AHsAIgBBACIAOgAiAEkAZABlAG4AdABpAHQAeQAuAHAAbgBnACIALAAiAEIAIgA6ADEAfQAsACIARwAiADoAewB9ACwAIgBIACIAOgB7ACIAQgAiADoAIgBuAG8AbgBlACIALAAiAEMAIgA6ACIAIwAwADAAMAAwADAAMAAiACwAIgBEACIAOgAiACMAZgBmAGYAZgBmAGYAIgB9ACwAIgBKACIAOgB7ACIARgAiADoAIgAjADAAMAAwADAAMAAwACIAfQAsACIAUAAiADoAewB9AH0AfQAsAHsAfQBdACwAIgBBAD8AIgA6ACIAQwAiACwAIgBBACIAOgBbAHsAIgBEACIAOgB7ACIAQwAiADoAIgAjAGYAZgBmAGYAZgBmACIAfQAsACIARQAiADoAWwB7ACIAQQAiADoAMgAyAC4AMAA4ADkAMwAyADkAMgAzADEANwA1ADIANgAzACwAIgBCACIAOgAyADUALgA2ADMAMgA5ADMANQAxADYAMAA0ADAAMQAwADcANQAsACIARAAiADoAMQA4ADYAOAAuADcAMwA0ADEAMgA5ADYANwA5ADEAOQA3ADgALAAiAEMAIgA6ADEAMAAzADUALgA4ADIAMQAzADQAMQA1ADMANgA0ADkANAA2ACwAIgBBAD8AIgA6ACIASgAiACwAIgBhACIAOgB7ACIARAAiADoANgA0ACwAIgBDACIAOgA2ADQAfQAsACIAYgAiADoAWwB7ACIAQQAiADoAIgBNADAAIAAwAEgANgA0AFYANgA0AEgAMAB6ACIALAAiAEIAIgA6AHsAIgBBACIAOgBmAGEAbABzAGUALAAiAEMAIgA6ACIAIwBhADYAYQA2AGEANgAiAH0ALAAiAEQAIgA6ADgAMAB9AF0ALAAiAGMAIgA6AHsAIgBBACIAOgB7ACIARAAiADoANgA0ACwAIgBDACIAOgA2ADQAfQAsACIAQgAiADoAMwA2ADkALgAxADMAMgA2ADYANwA1ADkAMAA5ADUAMgA1ADYALAAiAEMAIgA6ADIAMAA0AC4ANgAwADYANgA4ADQANwA0ADcAOQA0ADkANQA0ACwAIgBEACIAOgAiAEEAIgAsACIARQAiADoAIgBBACIAfQAsACIAZQAiADoAewB9ACwAIgBmACIAOgBbAHsAIgBBACIAOgB7ACIAQQAiADoAWwB7ACIAQQA/ACIAOgAiAEEAIgAsACIAQQAiADoAIgBcAG4AIgB9AF0ALAAiAEIAIgA6AFsAewAiAEEAPwAiADoAIgBBACIALAAiAEEAIgA6AHsAIgBmAG8AbgB0AC0AcwBpAHoAZQAiADoAewAiAEIAIgA6ACIAMgA1AC4AMwAzADMAMwAiAH0ALAAiAGYAbwBuAHQALQBmAGEAbQBpAGwAeQAiADoAewAiAEIAIgA6ACIAWQBBAEYAZABKAHQAOABkAEEAWQAwACwAMAAiAH0ALAAiAGMAbwBsAG8AcgAiADoAewAiAEIAIgA6ACIAIwBmAGYAZgBmAGYAZgAiAH0ALAAiAHQAZQB4AHQALQBhAGwAaQBnAG4AIgA6AHsAIgBCACIAOgAiAGMAZQBuAHQAZQByACIAfQAsACIAcwBwAGEAYwBpAG4AZwAiADoAewAiAEIAIgA6ACIAMAAuADAAIgB9AH0AfQAsAHsAIgBBAD8AIgA6ACIAQgAiACwAIgBBACIAOgAxAH0ALAB7ACIAQQA/ACIAOgAiAEEAIgAsACIAQQAiADoAewAiAGYAbwBuAHQALQBzAGkAegBlACIAOgB7AH0ALAAiAGYAbwBuAHQALQBmAGEAbQBpAGwAeQAiADoAewB9ACwAIgBjAG8AbABvAHIAIgA6AHsAfQAsACIAdABlAHgAdAAtAGEAbABpAGcAbgAiADoAewB9ACwAIgBzAHAAYQBjAGkAbgBnACIAOgB7AH0AfQB9AF0AfQAsACIAQgAiADoAewB9ACwAIgBEACIAOgB7ACIARAAiADoANgA0ACwAIgBDACIAOgA2ADQAfQAsACIARQAiADoAWwA0AF0ALAAiAEYAIgA6ACIAQgAiAH0AXQAsACIAaAAiADoAewAiAEEAPwAiADoAIgBIACIALAAiAEEAIgA6ADEAMAAzADUALgA4ADIAMQAzADQAMQA1ADMANgA0ADkANAA2AH0AfQAsAHsAIgBBACIAOgAzADMAOQAuADQAMgA0ADQAMwA5ADkAMQA2ADUAOAA0ADUANgAsACIAQgAiADoAMgA5ADgALgA5ADIAOQAxADEAMgAzADkANwA2ADgANwA2ACwAIgBEACIAOgAxADMAMgAyAC4AMQA0ADEANwA3ADUAMgAwADQANgAyADQAOAAsACIAQwAiADoANAAwADEALgAxADUAMQAxADIAMAAxADYANgA4ADMAMAA2ACwAIgBBAD8AIgA6ACIASAAiACwAIgBiACIAOgAxADMAMgAyAC4AMQA0ADEANwA3ADUAMgAwADQANgAyADQAOAAsACIAYQAiADoANAAwADEALgAxADUAMQAxADIAMAAxADYANgA4ADMAMAA2ACwAIgBjACIAOgBbAHsAIgBBACIAOgA1ADMALgA5ADMAMwAzADQAMAAwADAAMAAwADAAMAAwADYALAAiAEIAIgA6ADEALgAyADcAOAA5ADcANgA5ADIANAAzADYAOAAxADgAMAAzAGUALQAxADMALAAiAEQAIgA6ADEAMwA3AC4ANgAwADAANgA2ADcAOQAxADkAMAA2ADEAMgA0ACwAIgBDACIAOgAxADMANwAuADYAMAAwADYANgA3ADkAMQA5ADAANgAxADIANAAsACIAQQA/ACIAOgAiAEkAIgAsACIAYQAiADoAewAiAEEAIgA6AGYAYQBsAHMAZQAsACIAQgAiADoAewAiAEEAIgA6AHsAIgBBACIAOgAiAE0AQQBHAEcASQAtAGgAWQBIAGsAdwAiACwAIgBCACIAOgAxAH0ALAAiAEIAIgA6AHsAIgBEACIAOgAxADMANwAuADYAMAAwADYANgA3ADkAMQA5ADAANgAxADIANAAsACIAQwAiADoAMQAzADcALgA2ADAAMAA2ADYANwA5ADEAOQAwADYAMQAyADQAfQAsACIAQwAiADoAewAiACMAZgBmAGYAZgBmAGYAIgA6ACIAIwAwADAAMAAwADAAMAAiAH0AfQB9AH0ALAB7ACIAQQAiADoANgAxAC4AOAA5ADkANQA4ADAANQA1ADQAMQA1ADkANAA4ADUALAAiAEIAIgA6ADEANwAwAC4ANAA0ADEANwA3ADUAMgAwADQANgAyADQANQAsACIARAAiADoAMQAxADUAMQAuADcALAAiAEMAIgA6ADEAMQA5AC4AOQA5ADkAOQA5ADkAOQA5ADkAOQA5ADkAOQA0ACwAIgBGACIAOgAwAC4ANAA2ACwAIgBBAD8AIgA6ACIASgAiACwAIgBhACIAOgB7ACIARAAiADoANgA0ACwAIgBDACIAOgA2ADQAfQAsACIAYgAiADoAWwB7ACIAQQAiADoAIgBNADAAIAAwAEgANgA0AFYANgA0AEgAMAB6ACIALAAiAEIAIgA6AHsAIgBBACIAOgBmAGEAbABzAGUALAAiAEMAIgA6ACIAIwBlADIAZQAyAGUAMgAiAH0ALAAiAEMAIgA6AHsAIgBBACIAOgA0ACwAIgBCACIAOgAiACMAMAAwADAAMAAwADAAIgAsACIAZgAiADoAdAByAHUAZQB9AH0AXQAsACIAYwAiADoAewAiAEEAIgA6AHsAIgBEACIAOgA2ADQALAAiAEMAIgA6ADYANAB9ACwAIgBCACIAOgAyADUANwAuADAAMQAyADIAMgA2ADcANgAzADIAOQA5ADAANQAsACIAQwAiADoAMgA2AC4ANwA3ADkAMAA4ADAANgA3ADMANAAzADUANgA3ADIALAAiAEQAIgA6ACIAQQAiACwAIgBFACIAOgAiAEEAIgB9ACwAIgBlACIAOgB7AH0ALAAiAGYAIgA6AFsAewAiAEEAIgA6AHsAIgBBACIAOgBbAHsAIgBBAD8AIgA6ACIAQQAiACwAIgBBACIAOgAiAFwAbgAiAH0AXQAsACIAQgAiADoAWwB7ACIAQQA/ACIAOgAiAEEAIgAsACIAQQAiADoAewAiAGYAbwBuAHQALQBzAGkAegBlACIAOgB7ACIAQgAiADoAIgAyADUALgAzADMAMwAzACIAfQAsACIAdABlAHgAdAAtAHQAcgBhAG4AcwBmAG8AcgBtACIAOgB7ACIAQgAiADoAIgBuAG8AbgBlACIAfQAsACIAdAByAGEAYwBrAGkAbgBnACIAOgB7ACIAQgAiADoAIgAwAC4AMAAiAH0ALAAiAGYAbwBuAHQALQB3AGUAaQBnAGgAdAAiADoAewAiAEIAIgA6ACIAbgBvAHIAbQBhAGwAIgB9ACwAIgBsAGUAYQBkAGkAbgBnACIAOgB7ACIAQgAiADoAIgAxADQAMAAwAC4AMAAiAH0ALAAiAGYAbwBuAHQALQBzAHQAeQBsAGUAIgA6AHsAIgBCACIAOgAiAG4AbwByAG0AYQBsACIAfQAsACIAYwBvAGwAbwByACIAOgB7ACIAQgAiADoAIgAjADAAMAAwADAAMAAwACIAfQAsACIAZgBvAG4AdAAtAGYAYQBtAGkAbAB5ACIAOgB7ACIAQgAiADoAIgBZAEEARgBkAEoAdAA4AGQAQQBZADAALAAwACIAfQB9AH0ALAB7ACIAQQA/ACIAOgAiAEIAIgAsACIAQQAiADoAMQB9ACwAewAiAEEAPwAiADoAIgBBACIALAAiAEEAIgA6AHsAIgBmAG8AbgB0AC0AcwBpAHoAZQAiADoAewB9ACwAIgB0AGUAeAB0AC0AdAByAGEAbgBzAGYAbwByAG0AIgA6AHsAfQAsACIAdAByAGEAYwBrAGkAbgBnACIAOgB7AH0ALAAiAGYAbwBuAHQALQB3AGUAaQBnAGgAdAAiADoAewB9ACwAIgBsAGUAYQBkAGkAbgBnACIAOgB7AH0ALAAiAGYAbwBuAHQALQBzAHQAeQBsAGUAIgA6AHsAfQAsACIAYwBvAGwAbwByACIAOgB7AH0ALAAiAGYAbwBuAHQALQBmAGEAbQBpAGwAeQAiADoAewB9AH0AfQBdAH0ALAAiAEIAIgA6AHsAfQAsACIARAAiADoAewAiAEQAIgA6ADYANAAsACIAQwAiADoANgA0AH0ALAAiAEUAIgA6AFsANABdACwAIgBGACIAOgAiAEIAIgB9AF0ALAAiAGgAIgA6AHsAIgBBAD8AIgA6ACIASAAiACwAIgBBACIAOgAxADEAOQAuADkAOQA5ADkAOQA5ADkAOQA5ADkAOQA5ADkANAB9AH0ALAB7ACIAQQAiADoAMgA3ADcALgA4ADkAOQA5ADgAMAAwADUAOAA3ADcAMwA3ADQALAAiAEIAIgA6ADEANwAwAC4ANAA0ADEANwA3ADUAMgAwADQANgAyADQANwAyACwAIgBEACIAOgAxADEANQAxAC4ANwAwADAAMAAwADAAMAAwADAAMAAwADAAMwAsACIAQwAiADoAMQAxADkALgA5ADkAOQA5ADkAOQA5ADkAOQA5ADkAOQA5ADQALAAiAEYAIgA6ADAALgA0ADYALAAiAEEAPwAiADoAIgBKACIALAAiAGEAIgA6AHsAIgBEACIAOgA2ADQALAAiAEMAIgA6ADYANAB9ACwAIgBiACIAOgBbAHsAIgBBACIAOgAiAE0AMAAgADAASAA2ADQAVgA2ADQASAAwAHoAIgAsACIAQgAiADoAewAiAEEAIgA6AGYAYQBsAHMAZQAsACIAQwAiADoAIgAjAGUAMgBlADIAZQAyACIAfQAsACIAQwAiADoAewAiAEEAIgA6ADQALAAiAEIAIgA6ACIAIwAwADAAMAAwADAAMAAiACwAIgBmACIAOgB0AHIAdQBlAH0AfQBdACwAIgBjACIAOgB7ACIAQQAiADoAewAiAEQAIgA6ADYANAAsACIAQwAiADoANgA0AH0ALAAiAEIAIgA6ADIANQA3AC4AMAAxADIAMgAyADYANwA2ADMAMgA5ADkAMQAsACIAQwAiADoAMgA2AC4ANwA3ADkAMAA4ADAANgA3ADMANAAzADUANgA3ADIALAAiAEQAIgA6ACIAQQAiACwAIgBFACIAOgAiAEEAIgB9ACwAIgBlACIAOgB7AH0ALAAiAGYAIgA6AFsAewAiAEEAIgA6AHsAIgBBACIAOgBbAHsAIgBBAD8AIgA6ACIAQQAiACwAIgBBACIAOgAiAFwAbgAiAH0AXQAsACIAQgAiADoAWwB7ACIAQQA/ACIAOgAiAEEAIgAsACIAQQAiADoAewAiAGYAbwBuAHQALQBzAGkAegBlACIAOgB7ACIAQgAiADoAIgAyADUALgAzADMAMwAzACIAfQAsACIAdABlAHgAdAAtAHQAcgBhAG4AcwBmAG8AcgBtACIAOgB7ACIAQgAiADoAIgBuAG8AbgBlACIAfQAsACIAdAByAGEAYwBrAGkAbgBnACIAOgB7ACIAQgAiADoAIgAwAC4AMAAiAH0ALAAiAGYAbwBuAHQALQB3AGUAaQBnAGgAdAAiADoAewAiAEIAIgA6ACIAbgBvAHIAbQBhAGwAIgB9ACwAIgBsAGUAYQBkAGkAbgBnACIAOgB7ACIAQgAiADoAIgAxADQAMAAwAC4AMAAiAH0ALAAiAGYAbwBuAHQALQBzAHQAeQBsAGUAIgA6AHsAIgBCACIAOgAiAG4AbwByAG0AYQBsACIAfQAsACIAYwBvAGwAbwByACIAOgB7ACIAQgAiADoAIgAjADAAMAAwADAAMAAwACIAfQAsACIAZgBvAG4AdAAtAGYAYQBtAGkAbAB5ACIAOgB7ACIAQgAiADoAIgBZAEEARgBkAHQAUQBpADcAMwBYAHMALAAwACIAfQB9AH0ALAB7ACIAQQA/ACIAOgAiAEIAIgAsACIAQQAiADoAMQB9ACwAewAiAEEAPwAiADoAIgBBACIALAAiAEEAIgA6AHsAIgBmAG8AbgB0AC0AcwBpAHoAZQAiADoAewB9ACwAIgB0AGUAeAB0AC0AdAByAGEAbgBzAGYAbwByAG0AIgA6AHsAfQAsACIAdAByAGEAYwBrAGkAbgBnACIAOgB7AH0ALAAiAGYAbwBuAHQALQB3AGUAaQBnAGgAdAAiADoAewB9ACwAIgBsAGUAYQBkAGkAbgBnACIAOgB7AH0ALAAiAGYAbwBuAHQALQBzAHQAeQBsAGUAIgA6AHsAfQAsACIAYwBvAGwAbwByACIAOgB7AH0ALAAiAGYAbwBuAHQALQBmAGEAbQBpAGwAeQAiADoAewB9AH0AfQBdAH0ALAAiAEIAIgA6AHsAfQAsACIARAAiADoAewAiAEQAIgA6ADYANAAsACIAQwAiADoANgA0AH0ALAAiAEUAIgA6AFsANABdACwAIgBGACIAOgAiAEIAIgB9AF0ALAAiAGgAIgA6AHsAIgBBAD8AIgA6ACIASAAiACwAIgBBACIAOgAxADEAOQAuADkAOQA5ADkAOQA5ADkAOQA5ADkAOQA5ADkANAB9AH0ALAB7ACIAQQAiADoAMgA3ADYALgAzADEANwAwADIANgA3ADYAMQA0ADUAOQA0ACwAIgBCACIAOgAyAC4AMAAxADIAMAA3ADYANQA1ADUANQA5ADIANAAxADUALAAiAEQAIgA6ADEAMgA0AC4AOAAzADQAMAA5ADMANAAwADUAMwA3ADEAMwAzACwAIgBDACIAOgAxADIANAAuADgAMwA0ADAAOQAzADQAMAA1ADMANwAxADMAMwAsACIAQQA/ACIAOgAiAEkAIgAsACIAYQAiADoAewAiAEIAIgA6AHsAIgBBACIAOgB7ACIAQQAiADoAIgBNAEEARwBHAEkAMwBHADQAOQBBAHcAIgAsACIAQgAiADoAMQB9ACwAIgBCACIAOgB7ACIARAAiADoAMQAyADQALgA4ADMANAAwADkAMwA0ADAANQAzADcAMQAzADMALAAiAEMAIgA6ADEAMgA0AC4AOAAzADQAMAA5ADMANAAwADUAMwA3ADEAMwAzAH0ALAAiAEMAIgA6AHsAIgAjAGYAZgBmAGYAZgBmACIAOgAiACMAMAAwADAAMAAwADAAIgB9AH0AfQB9ACwAewAiAEEAIgA6ADcALgA4ADEANQA5ADcAMAAwADkAMwAzADYAMQAxADAAMgBlAC0AMQA0ACwAIgBCACIAOgAxADcAMAAuADQAMAA4ADkANQAyADgAOQA4ADQAMAA2ADQAOAAsACIARAAiADoANAAzADcALgA2ADQAMwA2ADQANwA1ADAAMgAwADkANwA1ADYALAAiAEMAIgA6ADUAMwAuADkAMwAzADMANAAsACIAQQA/ACIAOgAiAEsAIgAsACIAYQAiADoAewAiAEEAIgA6AFsAewAiAEEAPwAiADoAIgBBACIALAAiAEEAIgA6ACIATgBvAG0AZQAgAGQAZQAgAFUAcwB1AOEAcgBpAG8AIAA6AFwAbgAiAH0AXQAsACIAQgAiADoAWwB7ACIAQQA/ACIAOgAiAEEAIgAsACIAQQAiADoAewAiAHQAZQB4AHQALQBhAGwAaQBnAG4AIgA6AHsAIgBCACIAOgAiAGMAZQBuAHQAZQByACIAfQAsACIAZgBvAG4AdAAtAHMAaQB6AGUAIgA6AHsAIgBCACIAOgAiADQANQAuADMAMwAzADMAIgB9ACwAIgBmAG8AbgB0AC0AZgBhAG0AaQBsAHkAIgA6AHsAIgBCACIAOgAiAFkAQQBGAGQAdABRAGkANwAzAFgAcwAsADAAIgB9AH0AfQAsAHsAIgBBAD8AIgA6ACIAQgAiACwAIgBBACIAOgAxADcAfQAsAHsAIgBBAD8AIgA6ACIAQQAiACwAIgBBACIAOgB7ACIAYwBvAGwAbwByACIAOgB7ACIAQgAiADoAIgAjADAAMAAwADAAMAAwACIAfQAsACIAcwBwAGEAYwBpAG4AZwAiADoAewAiAEIAIgA6ACIAMAAuADAAIgB9ACwAIgB0AGUAeAB0AC0AdAByAGEAbgBzAGYAbwByAG0AIgA6AHsAIgBCACIAOgAiAG4AbwBuAGUAIgB9ACwAIgBkAGUAYwBvAHIAYQB0AGkAbwBuACIAOgB7ACIAQgAiADoAIgBuAG8AbgBlACIAfQAsACIAcwB0AHIAaQBrAGUAdABoAHIAbwB1AGcAaAAiADoAewAiAEIAIgA6ACIAbgBvAG4AZQAiAH0ALAAiAGwAaQBuAGsAIgA6AHsAIgBCACIAOgAiACIAfQAsACIAbABpAHMAdAAtAG0AYQByAGsAZQByACIAOgB7ACIAQgAiADoAIgBuAG8AbgBlACIAfQAsACIAbABlAGEAZABpAG4AZwAiADoAewAiAEIAIgA6ACIAMQA0ADAAMAAuADAAIgB9ACwAIgB0AHIAYQBjAGsAaQBuAGcAIgA6AHsAIgBCACIAOgAiADAALgAwACIAfQAsACIAcwB0AHkAbABlACIAOgB7ACIAQgAiADoAIgBiAG8AZAB5ACIAfQAsACIAawBlAHIAbgBpAG4AZwAiADoAewAiAEIAIgA6ACIAMAAuADAAIgB9ACwAIgBsAGkAcwB0AC0AbABlAHYAZQBsACIAOgB7ACIAQgAiADoAIgAwAC4AMAAiAH0ALAAiAGgAZQBhAGQALQBpAG4AZABlAG4AdAAiADoAewAiAEIAIgA6ACIAMAAuADAAIgB9AH0AfQAsAHsAIgBBAD8AIgA6ACIAQgAiACwAIgBBACIAOgAxAH0ALAB7ACIAQQA/ACIAOgAiAEEAIgAsACIAQQAiADoAewAiAGYAbwBuAHQALQBzAGkAegBlACIAOgB7AH0ALAAiAGwAaQBuAGsAIgA6AHsAfQAsACIAaABlAGEAZAAtAGkAbgBkAGUAbgB0ACIAOgB7AH0ALAAiAHQAcgBhAGMAawBpAG4AZwAiADoAewB9ACwAIgBsAGkAcwB0AC0AbABlAHYAZQBsACIAOgB7AH0ALAAiAHMAdAByAGkAawBlAHQAaAByAG8AdQBnAGgAIgA6AHsAfQAsACIAcwB0AHkAbABlACIAOgB7AH0ALAAiAGQAZQBjAG8AcgBhAHQAaQBvAG4AIgA6AHsAfQAsACIAdABlAHgAdAAtAHQAcgBhAG4AcwBmAG8AcgBtACIAOgB7AH0ALAAiAGsAZQByAG4AaQBuAGcAIgA6AHsAfQAsACIAbABpAHMAdAAtAG0AYQByAGsAZQByACIAOgB7AH0ALAAiAGwAZQBhAGQAaQBuAGcAIgA6AHsAfQAsACIAdABlAHgAdAAtAGEAbABpAGcAbgAiADoAewB9ACwAIgBzAHAAYQBjAGkAbgBnACIAOgB7AH0ALAAiAGMAbwBsAG8AcgAiADoAewB9ACwAIgBmAG8AbgB0AC0AZgBhAG0AaQBsAHkAIgA6AHsAfQB9AH0AXQB9ACwAIgBiACIAOgB7ACIAQQAiADoAWwAxADgAXQB9ACwAIgBkACIAOgAiAEEAIgAsACIAZwAiADoAZgBhAGwAcwBlACwAIgBoACIAOgAiAEEAIgB9ACwAewAiAEEAIgA6ADIAMQA2AC4AMAAwADAAMwA5ADkANQAwADQANgAxADQANAAyACwAIgBCACIAOgAxADcAMAAuADQAMAA4ADkANQAyADgAOQA4ADQAMAA2ADQAOAAsACIARAAiADoAMQA5ADQALgAxADEAOAAxADIAMgA5ADAAMgA2ADAAMAA4ADUALAAiAEMAIgA6ADUAMwAuADkAMwAzADMANAAsACIAQQA/ACIAOgAiAEsAIgAsACIAYQAiADoAewAiAEEAIgA6AFsAewAiAEEAPwAiADoAIgBBACIALAAiAEEAIgA6ACIAUwBlAG4AaABhACAAOgBcAG4AIgB9AF0ALAAiAEIAIgA6AFsAewAiAEEAPwAiADoAIgBBACIALAAiAEEAIgA6AHsAIgB0AGUAeAB0AC0AYQBsAGkAZwBuACIAOgB7ACIAQgAiADoAIgBjAGUAbgB0AGUAcgAiAH0ALAAiAGYAbwBuAHQALQBzAGkAegBlACIAOgB7ACIAQgAiADoAIgA0ADUALgAzADMAMwAzACIAfQAsACIAZgBvAG4AdAAtAGYAYQBtAGkAbAB5ACIAOgB7ACIAQgAiADoAIgBZAEEARgBkAHQAUQBpADcAMwBYAHMALAAwACIAfQB9AH0ALAB7ACIAQQA/ACIAOgAiAEIAIgAsACIAQQAiADoANwB9ACwAewAiAEEAPwAiADoAIgBBACIALAAiAEEAIgA6AHsAIgBmAG8AbgB0AC0AcwB0AHkAbABlACIAOgB7ACIAQgAiADoAIgBuAG8AcgBtAGEAbAAiAH0ALAAiAHQAZQB4AHQALQB0AHIAYQBuAHMAZgBvAHIAbQAiADoAewAiAEIAIgA6ACIAbgBvAG4AZQAiAH0ALAAiAGwAZQBhAGQAaQBuAGcAIgA6AHsAIgBCACIAOgAiADEANAAwADAALgAwACIAfQAsACIAbABpAHMAdAAtAGwAZQB2AGUAbAAiADoAewAiAEIAIgA6ACIAMAAuADAAIgB9ACwAIgBrAGUAcgBuAGkAbgBnACIAOgB7ACIAQgAiADoAIgAwAC4AMAAiAH0ALAAiAHMAdAB5AGwAZQAiADoAewAiAEIAIgA6ACIAYgBvAGQAeQAiAH0ALAAiAHMAdAByAGkAawBlAHQAaAByAG8AdQBnAGgAIgA6AHsAIgBCACIAOgAiAG4AbwBuAGUAIgB9ACwAIgBmAG8AbgB0AC0AdwBlAGkAZwBoAHQAIgA6AHsAIgBCACIAOgAiAG4AbwByAG0AYQBsACIAfQAsACIAcwBwAGEAYwBpAG4AZwAiADoAewAiAEIAIgA6ACIAMAAuADAAIgB9ACwAIgBsAGkAbgBrACIAOgB7ACIAQgAiADoAIgAiAH0ALAAiAHQAcgBhAGMAawBpAG4AZwAiADoAewAiAEIAIgA6ACIAMAAuADAAIgB9ACwAIgBkAGUAYwBvAHIAYQB0AGkAbwBuACIAOgB7ACIAQgAiADoAIgBuAG8AbgBlACIAfQAsACIAaABlAGEAZAAtAGkAbgBkAGUAbgB0ACIAOgB7ACIAQgAiADoAIgAwAC4AMAAiAH0ALAAiAGMAbwBsAG8AcgAiADoAewAiAEIAIgA6ACIAIwAwADAAMAAwADAAMAAiAH0ALAAiAGwAaQBzAHQALQBtAGEAcgBrAGUAcgAiADoAewAiAEIAIgA6ACIAbgBvAG4AZQAiAH0AfQB9ACwAewAiAEEAPwAiADoAIgBCACIALAAiAEEAIgA6ADEAfQAsAHsAIgBBAD8AIgA6ACIAQQAiACwAIgBBACIAOgB7ACIAcwBwAGEAYwBpAG4AZwAiADoAewB9ACwAIgBoAGUAYQBkAC0AaQBuAGQAZQBuAHQAIgA6AHsAfQAsACIAawBlAHIAbgBpAG4AZwAiADoAewB9ACwAIgBsAGkAcwB0AC0AbQBhAHIAawBlAHIAIgA6AHsAfQAsACIAbABpAG4AawAiADoAewB9ACwAIgBzAHQAeQBsAGUAIgA6AHsAfQAsACIAZgBvAG4AdAAtAHMAdAB5AGwAZQAiADoAewB9ACwAIgBmAG8AbgB0AC0AcwBpAHoAZQAiADoAewB9ACwAIgBmAG8AbgB0AC0AZgBhAG0AaQBsAHkAIgA6AHsAfQAsACIAdABlAHgAdAAtAGEAbABpAGcAbgAiADoAewB9ACwAIgB0AHIAYQBjAGsAaQBuAGcAIgA6AHsAfQAsACIAbABlAGEAZABpAG4AZwAiADoAewB9ACwAIgBsAGkAcwB0AC0AbABlAHYAZQBsACIAOgB7AH0ALAAiAHMAdAByAGkAawBlAHQAaAByAG8AdQBnAGgAIgA6AHsAfQAsACIAZgBvAG4AdAAtAHcAZQBpAGcAaAB0ACIAOgB7AH0ALAAiAGQAZQBjAG8AcgBhAHQAaQBvAG4AIgA6AHsAfQAsACIAdABlAHgAdAAtAHQAcgBhAG4AcwBmAG8AcgBtACIAOgB7AH0ALAAiAGMAbwBsAG8AcgAiADoAewB9AH0AfQBdAH0ALAAiAGIAIgA6AHsAIgBBACIAOgBbADgAXQB9ACwAIgBkACIAOgAiAEEAIgAsACIAZwAiADoAZgBhAGwAcwBlACwAIgBoACIAOgAiAEEAIgB9AF0AfQAsAHsAIgBBACIAOgA5ADEAMwAuADAAOQAxADMANgA2ADcAMAA1ADIAOAA1ADQALAAiAEIAIgA6ADcANQAzAC4AOAAxADcAOQA4ADUANgA5ADcANwAzADQAOQAsACIARAAiADoANAAxADIALgAzADYANAAwADIAOAA2ADAANAA1ADMAMAAxACwAIgBDACIAOgAxADEANwAuADgAMQA3ADIANgA2ADUAOAA5ADQAMgA5ADIAMQAsACIARgAiADoAMAAuADIANgAsACIAQQA/ACIAOgAiAEoAIgAsACIAYQAiADoAewAiAEQAIgA6ADYANAAsACIAQwAiADoANgA0AH0ALAAiAGIAIgA6AFsAewAiAEEAIgA6ACIATQAwACAAMABIADYANABWADYANABIADAAegAiACwAIgBCACIAOgB7ACIAQQAiADoAZgBhAGwAcwBlACwAIgBDACIAOgAiACMAZQAyAGUAMgBlADIAIgB9ACwAIgBDACIAOgB7ACIAQQAiADoANAAsACIAQgAiADoAIgAjADAAMAAwADAAMAAwACIALAAiAGYAIgA6AHQAcgB1AGUAfQAsACIARAAiADoANAA1AH0AXQAsACIAYwAiADoAewAiAEEAIgA6AHsAIgBEACIAOgA2ADQALAAiAEMAIgA6ADYANAB9ACwAIgBCACIAOgA4ADEALgA0ADUANAA2ADIAMgA5ADMANAAyADIAOAAxADUALAAiAEMAIgA6ADIAMwAuADIANwAyADUANAA2ADQAOAA2ADgAMAAwADgAMwA0ACwAIgBEACIAOgAiAEEAIgAsACIARQAiADoAIgBBACIAfQAsACIAZQAiADoAewB9ACwAIgBmACIAOgBbAHsAIgBBACIAOgB7ACIAQQAiADoAWwB7ACIAQQA/ACIAOgAiAEEAIgAsACIAQQAiADoAIgBFAG4AdAByAGEAcgBcAG4AIgB9AF0ALAAiAEIAIgA6AFsAewAiAEEAPwAiADoAIgBBACIALAAiAEEAIgA6AHsAIgB0AGUAeAB0AC0AYQBsAGkAZwBuACIAOgB7ACIAQgAiADoAIgBjAGUAbgB0AGUAcgAiAH0ALAAiAGYAbwBuAHQALQBzAGkAegBlACIAOgB7ACIAQgAiADoAIgAyADUALgAzADMAMwAzACIAfQAsACIAZgBvAG4AdAAtAGYAYQBtAGkAbAB5ACIAOgB7ACIAQgAiADoAIgBZAEEARgBkAHQAUQBpADcAMwBYAHMALAAwACIAfQB9AH0ALAB7ACIAQQA/ACIAOgAiAEIAIgAsACIAQQAiADoANgB9ACwAewAiAEEAPwAiADoAIgBBACIALAAiAEEAIgA6AHsAIgBmAG8AbgB0AC0AcwB0AHkAbABlACIAOgB7ACIAQgAiADoAIgBuAG8AcgBtAGEAbAAiAH0ALAAiAGYAbwBuAHQALQB3AGUAaQBnAGgAdAAiADoAewAiAEIAIgA6ACIAbgBvAHIAbQBhAGwAIgB9ACwAIgB0AHIAYQBjAGsAaQBuAGcAIgA6AHsAIgBCACIAOgAiADAALgAwACIAfQAsACIAdABlAHgAdAAtAHQAcgBhAG4AcwBmAG8AcgBtACIAOgB7ACIAQgAiADoAIgBuAG8AbgBlACIAfQAsACIAYwBvAGwAbwByACIAOgB7ACIAQgAiADoAIgAjADAAMAAwADAAMAAwACIAfQAsACIAbABlAGEAZABpAG4AZwAiADoAewAiAEIAIgA6ACIAMQA0ADAAMAAuADAAIgB9AH0AfQAsAHsAIgBBAD8AIgA6ACIAQgAiACwAIgBBACIAOgAxAH0ALAB7ACIAQQA/ACIAOgAiAEEAIgAsACIAQQAiADoAewAiAGYAbwBuAHQALQBmAGEAbQBpAGwAeQAiADoAewB9ACwAIgB0AHIAYQBjAGsAaQBuAGcAIgA6AHsAfQAsACIAbABlAGEAZABpAG4AZwAiADoAewB9ACwAIgB0AGUAeAB0AC0AYQBsAGkAZwBuACIAOgB7AH0ALAAiAGYAbwBuAHQALQB3AGUAaQBnAGgAdAAiADoAewB9ACwAIgB0AGUAeAB0AC0AdAByAGEAbgBzAGYAbwByAG0AIgA6AHsAfQAsACIAYwBvAGwAbwByACIAOgB7AH0ALAAiAGYAbwBuAHQALQBzAHQAeQBsAGUAIgA6AHsAfQAsACIAZgBvAG4AdAAtAHMAaQB6AGUAIgA6AHsAfQB9AH0AXQB9ACwAIgBCACIAOgB7ACIAQQAiADoAWwA3AF0AfQAsACIARAAiADoAewAiAEQAIgA6ADYANAAsACIAQwAiADoANgA0AH0ALAAiAEUAIgA6AFsANABdACwAIgBGACIAOgAiAEIAIgB9AF0ALAAiAGgAIgA6AHsAIgBBAD8AIgA6ACIASAAiACwAIgBBACIAOgAxADEANwAuADgAMQA3ADIANgA2ADUAOAA5ADQAMgA5ADIAMQB9AH0ALAB7ACIAQQAiADoANgA3AC4ANAA5ADIAMgAwADAAMwA3ADkANQAyADkANAAyACwAIgBCACIAOgA3ADUAOQAuADAANwA4ADEAMgA1ACwAIgBEACIAOgA0ADAAMQAuADgANAAzADcANQAsACIAQwAiADoAMQA0ADYALgA0ADYANgA2ACwAIgBBAD8AIgA6ACIASwAiACwAIgBhACIAOgB7ACIAQQAiADoAWwB7ACIAQQA/ACIAOgAiAEEAIgAsACIAQQAiADoAIgBFAG4AdAByAGEAcgBcAG4AIgB9AF0ALAAiAEIAIgA6AFsAewAiAEEAPwAiADoAIgBBACIALAAiAEEAIgA6AHsAIgBmAG8AbgB0AC0AcwBpAHoAZQAiADoAewAiAEIAIgA6ACIAMQAyADIALgA2ADYANwAiAH0ALAAiAGYAbwBuAHQALQB3AGUAaQBnAGgAdAAiADoAewAiAEIAIgA6ACIAYgBvAGwAZAAiAH0ALAAiAHQAZQB4AHQALQBhAGwAaQBnAG4AIgA6AHsAIgBCACIAOgAiAGMAZQBuAHQAZQByACIAfQAsACIAZgBvAG4AdAAtAGYAYQBtAGkAbAB5ACIAOgB7ACIAQgAiADoAIgBZAEEARgBkAHQAUQBpADcAMwBYAHMALAAwACIAfQB9AH0ALAB7ACIAQQA/ACIAOgAiAEIAIgAsACIAQQAiADoANgB9ACwAewAiAEEAPwAiADoAIgBBACIALAAiAEEAIgA6AHsAIgBjAG8AbABvAHIAIgA6AHsAIgBCACIAOgAiACMAMAAwADAAMAAwADAAIgB9ACwAIgBmAG8AbgB0AC0AcwB0AHkAbABlACIAOgB7ACIAQgAiADoAIgBuAG8AcgBtAGEAbAAiAH0AfQB9ACwAewAiAEEAPwAiADoAIgBCACIALAAiAEEAIgA6ADEAfQAsAHsAIgBBAD8AIgA6ACIAQQAiACwAIgBBACIAOgB7ACIAZgBvAG4AdAAtAHMAdAB5AGwAZQAiADoAewB9ACwAIgBmAG8AbgB0AC0AZgBhAG0AaQBsAHkAIgA6AHsAfQAsACIAZgBvAG4AdAAtAHMAaQB6AGUAIgA6AHsAfQAsACIAZgBvAG4AdAAtAHcAZQBpAGcAaAB0ACIAOgB7AH0ALAAiAGMAbwBsAG8AcgAiADoAewB9ACwAIgB0AGUAeAB0AC0AYQBsAGkAZwBuACIAOgB7AH0AfQB9AF0AfQAsACIAYgAiADoAewAiAEEAIgA6AFsANwBdAH0ALAAiAGQAIgA6ACIAQQAiACwAIgBnACIAOgBmAGEAbABzAGUALAAiAGgAIgA6ACIAQgAiAH0AXQB9AF0ALAAiAEIAIgA6ADEAOQAyADAALAAiAEMAIgA6ADEAMAA4ADAAfQA=&quot;&gt;&lt;/span&gt;&lt;/div&gt;&#xa;&#xa;" style="rounded=0;whiteSpace=wrap;html=1;fillColor=#D9D9D9;movable=1;resizable=1;rotatable=1;deletable=1;editable=1;locked=0;connectable=1;" parent="1" vertex="1">
          <mxGeometry x="544" y="920" width="340" height="630" as="geometry" />
        </mxCell>
        <mxCell id="26vUE4dLXjxIYAb9QyYs-34" value="" style="rounded=1;whiteSpace=wrap;html=1;" parent="1" vertex="1">
          <mxGeometry x="584" y="1287" width="255" height="108.5" as="geometry" />
        </mxCell>
        <mxCell id="v796rnTliUzdl1zem_Hj-26" value="&#xa;&lt;div&gt;&lt;span data-canva-clipboard=&quot;ewAiAGEAIgA6ADUALAAiAGgAIgA6ACIAdwB3AHcALgBjAGEAbgB2AGEALgBjAG8AbQAiACwAIgBjACIAOgAiAEQAQQBHAEcASQBtAHUAMwBEAEIAZwAiACwAIgBpACIAOgAiAHcAMgBBAGIAdgBvADUAawB2AG8AcABxAEYANQA3AC0AdQBzAGYAMwBDAGcAIgAsACIAYgAiADoAMQA3ADEANgA4ADkANAAyADAANAA1ADMAOAAsACIAagAiADoAWwB7AH0ALAB7AH0ALAB7ACIAQQAiADoAewAiAEsAIgA6AHsAfQAsACIARAAiADoAewB9ACwAIgBMACIAOgB7ACIAQQAiADoAWwB7ACIAQQAiADoAewB9ACwAIgBCACIAOgAiAEMAIgB9ACwAewAiAEEAIgA6AHsAfQAsACIAQgAiADoAIgBCACIAfQBdAH0ALAAiAEUAIgA6AHsAfQAsACIARgAiADoAewAiAEEAIgA6ACIASQBkAGUAbgB0AGkAdAB5AC4AcABuAGcAIgAsACIAQgAiADoAMQB9ACwAIgBHACIAOgB7AH0ALAAiAEgAIgA6AHsAIgBCACIAOgAiAG4AbwBuAGUAIgAsACIAQwAiADoAIgAjADAAMAAwADAAMAAwACIALAAiAEQAIgA6ACIAIwBmAGYAZgBmAGYAZgAiAH0ALAAiAEoAIgA6AHsAIgBGACIAOgAiACMAMAAwADAAMAAwADAAIgB9ACwAIgBQACIAOgB7AH0AfQB9ACwAewB9ACwAewB9ACwAewAiAEEAIgA6AHsAIgBLACIAOgB7AH0ALAAiAEQAIgA6AHsAfQAsACIATAAiADoAewAiAEEAIgA6AFsAewAiAEEAIgA6AHsAfQAsACIAQgAiADoAIgBDACIAfQAsAHsAIgBBACIAOgB7AH0ALAAiAEIAIgA6ACIAQgAiAH0AXQB9ACwAIgBFACIAOgB7AH0ALAAiAEYAIgA6AHsAIgBBACIAOgAiAEkAZABlAG4AdABpAHQAeQAuAHAAbgBnACIALAAiAEIAIgA6ADEAfQAsACIARwAiADoAewB9ACwAIgBIACIAOgB7ACIAQgAiADoAIgBuAG8AbgBlACIALAAiAEMAIgA6ACIAIwAwADAAMAAwADAAMAAiACwAIgBEACIAOgAiACMAZgBmAGYAZgBmAGYAIgB9ACwAIgBKACIAOgB7ACIARgAiADoAIgAjADAAMAAwADAAMAAwACIAfQAsACIAUAAiADoAewB9AH0AfQAsAHsAfQBdACwAIgBBAD8AIgA6ACIAQwAiACwAIgBBACIAOgBbAHsAIgBEACIAOgB7ACIAQwAiADoAIgAjAGYAZgBmAGYAZgBmACIAfQAsACIARQAiADoAWwB7ACIAQQAiADoAMgAyAC4AMAA4ADkAMwAyADkAMgAzADEANwA1ADIANgAzACwAIgBCACIAOgAyADUALgA2ADMAMgA5ADMANQAxADYAMAA0ADAAMQAwADcANQAsACIARAAiADoAMQA4ADYAOAAuADcAMwA0ADEAMgA5ADYANwA5ADEAOQA3ADgALAAiAEMAIgA6ADEAMAAzADUALgA4ADIAMQAzADQAMQA1ADMANgA0ADkANAA2ACwAIgBBAD8AIgA6ACIASgAiACwAIgBhACIAOgB7ACIARAAiADoANgA0ACwAIgBDACIAOgA2ADQAfQAsACIAYgAiADoAWwB7ACIAQQAiADoAIgBNADAAIAAwAEgANgA0AFYANgA0AEgAMAB6ACIALAAiAEIAIgA6AHsAIgBBACIAOgBmAGEAbABzAGUALAAiAEMAIgA6ACIAIwBhADYAYQA2AGEANgAiAH0ALAAiAEQAIgA6ADgAMAB9AF0ALAAiAGMAIgA6AHsAIgBBACIAOgB7ACIARAAiADoANgA0ACwAIgBDACIAOgA2ADQAfQAsACIAQgAiADoAMwA2ADkALgAxADMAMgA2ADYANwA1ADkAMAA5ADUAMgA1ADYALAAiAEMAIgA6ADIAMAA0AC4ANgAwADYANgA4ADQANwA0ADcAOQA0ADkANQA0ACwAIgBEACIAOgAiAEEAIgAsACIARQAiADoAIgBBACIAfQAsACIAZQAiADoAewB9ACwAIgBmACIAOgBbAHsAIgBBACIAOgB7ACIAQQAiADoAWwB7ACIAQQA/ACIAOgAiAEEAIgAsACIAQQAiADoAIgBcAG4AIgB9AF0ALAAiAEIAIgA6AFsAewAiAEEAPwAiADoAIgBBACIALAAiAEEAIgA6AHsAIgBmAG8AbgB0AC0AcwBpAHoAZQAiADoAewAiAEIAIgA6ACIAMgA1AC4AMwAzADMAMwAiAH0ALAAiAGYAbwBuAHQALQBmAGEAbQBpAGwAeQAiADoAewAiAEIAIgA6ACIAWQBBAEYAZABKAHQAOABkAEEAWQAwACwAMAAiAH0ALAAiAGMAbwBsAG8AcgAiADoAewAiAEIAIgA6ACIAIwBmAGYAZgBmAGYAZgAiAH0ALAAiAHQAZQB4AHQALQBhAGwAaQBnAG4AIgA6AHsAIgBCACIAOgAiAGMAZQBuAHQAZQByACIAfQAsACIAcwBwAGEAYwBpAG4AZwAiADoAewAiAEIAIgA6ACIAMAAuADAAIgB9AH0AfQAsAHsAIgBBAD8AIgA6ACIAQgAiACwAIgBBACIAOgAxAH0ALAB7ACIAQQA/ACIAOgAiAEEAIgAsACIAQQAiADoAewAiAGYAbwBuAHQALQBzAGkAegBlACIAOgB7AH0ALAAiAGYAbwBuAHQALQBmAGEAbQBpAGwAeQAiADoAewB9ACwAIgBjAG8AbABvAHIAIgA6AHsAfQAsACIAdABlAHgAdAAtAGEAbABpAGcAbgAiADoAewB9ACwAIgBzAHAAYQBjAGkAbgBnACIAOgB7AH0AfQB9AF0AfQAsACIAQgAiADoAewB9ACwAIgBEACIAOgB7ACIARAAiADoANgA0ACwAIgBDACIAOgA2ADQAfQAsACIARQAiADoAWwA0AF0ALAAiAEYAIgA6ACIAQgAiAH0AXQAsACIAaAAiADoAewAiAEEAPwAiADoAIgBIACIALAAiAEEAIgA6ADEAMAAzADUALgA4ADIAMQAzADQAMQA1ADMANgA0ADkANAA2AH0AfQAsAHsAIgBBACIAOgAzADMAOQAuADQAMgA0ADQAMwA5ADkAMQA2ADUAOAA0ADUANgAsACIAQgAiADoAMgA5ADgALgA5ADIAOQAxADEAMgAzADkANwA2ADgANwA2ACwAIgBEACIAOgAxADMAMgAyAC4AMQA0ADEANwA3ADUAMgAwADQANgAyADQAOAAsACIAQwAiADoANAAwADEALgAxADUAMQAxADIAMAAxADYANgA4ADMAMAA2ACwAIgBBAD8AIgA6ACIASAAiACwAIgBiACIAOgAxADMAMgAyAC4AMQA0ADEANwA3ADUAMgAwADQANgAyADQAOAAsACIAYQAiADoANAAwADEALgAxADUAMQAxADIAMAAxADYANgA4ADMAMAA2ACwAIgBjACIAOgBbAHsAIgBBACIAOgA1ADMALgA5ADMAMwAzADQAMAAwADAAMAAwADAAMAAwADYALAAiAEIAIgA6ADEALgAyADcAOAA5ADcANgA5ADIANAAzADYAOAAxADgAMAAzAGUALQAxADMALAAiAEQAIgA6ADEAMwA3AC4ANgAwADAANgA2ADcAOQAxADkAMAA2ADEAMgA0ACwAIgBDACIAOgAxADMANwAuADYAMAAwADYANgA3ADkAMQA5ADAANgAxADIANAAsACIAQQA/ACIAOgAiAEkAIgAsACIAYQAiADoAewAiAEEAIgA6AGYAYQBsAHMAZQAsACIAQgAiADoAewAiAEEAIgA6AHsAIgBBACIAOgAiAE0AQQBHAEcASQAtAGgAWQBIAGsAdwAiACwAIgBCACIAOgAxAH0ALAAiAEIAIgA6AHsAIgBEACIAOgAxADMANwAuADYAMAAwADYANgA3ADkAMQA5ADAANgAxADIANAAsACIAQwAiADoAMQAzADcALgA2ADAAMAA2ADYANwA5ADEAOQAwADYAMQAyADQAfQAsACIAQwAiADoAewAiACMAZgBmAGYAZgBmAGYAIgA6ACIAIwAwADAAMAAwADAAMAAiAH0AfQB9AH0ALAB7ACIAQQAiADoANgAxAC4AOAA5ADkANQA4ADAANQA1ADQAMQA1ADkANAA4ADUALAAiAEIAIgA6ADEANwAwAC4ANAA0ADEANwA3ADUAMgAwADQANgAyADQANQAsACIARAAiADoAMQAxADUAMQAuADcALAAiAEMAIgA6ADEAMQA5AC4AOQA5ADkAOQA5ADkAOQA5ADkAOQA5ADkAOQA0ACwAIgBGACIAOgAwAC4ANAA2ACwAIgBBAD8AIgA6ACIASgAiACwAIgBhACIAOgB7ACIARAAiADoANgA0ACwAIgBDACIAOgA2ADQAfQAsACIAYgAiADoAWwB7ACIAQQAiADoAIgBNADAAIAAwAEgANgA0AFYANgA0AEgAMAB6ACIALAAiAEIAIgA6AHsAIgBBACIAOgBmAGEAbABzAGUALAAiAEMAIgA6ACIAIwBlADIAZQAyAGUAMgAiAH0ALAAiAEMAIgA6AHsAIgBBACIAOgA0ACwAIgBCACIAOgAiACMAMAAwADAAMAAwADAAIgAsACIAZgAiADoAdAByAHUAZQB9AH0AXQAsACIAYwAiADoAewAiAEEAIgA6AHsAIgBEACIAOgA2ADQALAAiAEMAIgA6ADYANAB9ACwAIgBCACIAOgAyADUANwAuADAAMQAyADIAMgA2ADcANgAzADIAOQA5ADAANQAsACIAQwAiADoAMgA2AC4ANwA3ADkAMAA4ADAANgA3ADMANAAzADUANgA3ADIALAAiAEQAIgA6ACIAQQAiACwAIgBFACIAOgAiAEEAIgB9ACwAIgBlACIAOgB7AH0ALAAiAGYAIgA6AFsAewAiAEEAIgA6AHsAIgBBACIAOgBbAHsAIgBBAD8AIgA6ACIAQQAiACwAIgBBACIAOgAiAFwAbgAiAH0AXQAsACIAQgAiADoAWwB7ACIAQQA/ACIAOgAiAEEAIgAsACIAQQAiADoAewAiAGYAbwBuAHQALQBzAGkAegBlACIAOgB7ACIAQgAiADoAIgAyADUALgAzADMAMwAzACIAfQAsACIAdABlAHgAdAAtAHQAcgBhAG4AcwBmAG8AcgBtACIAOgB7ACIAQgAiADoAIgBuAG8AbgBlACIAfQAsACIAdAByAGEAYwBrAGkAbgBnACIAOgB7ACIAQgAiADoAIgAwAC4AMAAiAH0ALAAiAGYAbwBuAHQALQB3AGUAaQBnAGgAdAAiADoAewAiAEIAIgA6ACIAbgBvAHIAbQBhAGwAIgB9ACwAIgBsAGUAYQBkAGkAbgBnACIAOgB7ACIAQgAiADoAIgAxADQAMAAwAC4AMAAiAH0ALAAiAGYAbwBuAHQALQBzAHQAeQBsAGUAIgA6AHsAIgBCACIAOgAiAG4AbwByAG0AYQBsACIAfQAsACIAYwBvAGwAbwByACIAOgB7ACIAQgAiADoAIgAjADAAMAAwADAAMAAwACIAfQAsACIAZgBvAG4AdAAtAGYAYQBtAGkAbAB5ACIAOgB7ACIAQgAiADoAIgBZAEEARgBkAEoAdAA4AGQAQQBZADAALAAwACIAfQB9AH0ALAB7ACIAQQA/ACIAOgAiAEIAIgAsACIAQQAiADoAMQB9ACwAewAiAEEAPwAiADoAIgBBACIALAAiAEEAIgA6AHsAIgBmAG8AbgB0AC0AcwBpAHoAZQAiADoAewB9ACwAIgB0AGUAeAB0AC0AdAByAGEAbgBzAGYAbwByAG0AIgA6AHsAfQAsACIAdAByAGEAYwBrAGkAbgBnACIAOgB7AH0ALAAiAGYAbwBuAHQALQB3AGUAaQBnAGgAdAAiADoAewB9ACwAIgBsAGUAYQBkAGkAbgBnACIAOgB7AH0ALAAiAGYAbwBuAHQALQBzAHQAeQBsAGUAIgA6AHsAfQAsACIAYwBvAGwAbwByACIAOgB7AH0ALAAiAGYAbwBuAHQALQBmAGEAbQBpAGwAeQAiADoAewB9AH0AfQBdAH0ALAAiAEIAIgA6AHsAfQAsACIARAAiADoAewAiAEQAIgA6ADYANAAsACIAQwAiADoANgA0AH0ALAAiAEUAIgA6AFsANABdACwAIgBGACIAOgAiAEIAIgB9AF0ALAAiAGgAIgA6AHsAIgBBAD8AIgA6ACIASAAiACwAIgBBACIAOgAxADEAOQAuADkAOQA5ADkAOQA5ADkAOQA5ADkAOQA5ADkANAB9AH0ALAB7ACIAQQAiADoAMgA3ADcALgA4ADkAOQA5ADgAMAAwADUAOAA3ADcAMwA3ADQALAAiAEIAIgA6ADEANwAwAC4ANAA0ADEANwA3ADUAMgAwADQANgAyADQANwAyACwAIgBEACIAOgAxADEANQAxAC4ANwAwADAAMAAwADAAMAAwADAAMAAwADAAMwAsACIAQwAiADoAMQAxADkALgA5ADkAOQA5ADkAOQA5ADkAOQA5ADkAOQA5ADQALAAiAEYAIgA6ADAALgA0ADYALAAiAEEAPwAiADoAIgBKACIALAAiAGEAIgA6AHsAIgBEACIAOgA2ADQALAAiAEMAIgA6ADYANAB9ACwAIgBiACIAOgBbAHsAIgBBACIAOgAiAE0AMAAgADAASAA2ADQAVgA2ADQASAAwAHoAIgAsACIAQgAiADoAewAiAEEAIgA6AGYAYQBsAHMAZQAsACIAQwAiADoAIgAjAGUAMgBlADIAZQAyACIAfQAsACIAQwAiADoAewAiAEEAIgA6ADQALAAiAEIAIgA6ACIAIwAwADAAMAAwADAAMAAiACwAIgBmACIAOgB0AHIAdQBlAH0AfQBdACwAIgBjACIAOgB7ACIAQQAiADoAewAiAEQAIgA6ADYANAAsACIAQwAiADoANgA0AH0ALAAiAEIAIgA6ADIANQA3AC4AMAAxADIAMgAyADYANwA2ADMAMgA5ADkAMQAsACIAQwAiADoAMgA2AC4ANwA3ADkAMAA4ADAANgA3ADMANAAzADUANgA3ADIALAAiAEQAIgA6ACIAQQAiACwAIgBFACIAOgAiAEEAIgB9ACwAIgBlACIAOgB7AH0ALAAiAGYAIgA6AFsAewAiAEEAIgA6AHsAIgBBACIAOgBbAHsAIgBBAD8AIgA6ACIAQQAiACwAIgBBACIAOgAiAFwAbgAiAH0AXQAsACIAQgAiADoAWwB7ACIAQQA/ACIAOgAiAEEAIgAsACIAQQAiADoAewAiAGYAbwBuAHQALQBzAGkAegBlACIAOgB7ACIAQgAiADoAIgAyADUALgAzADMAMwAzACIAfQAsACIAdABlAHgAdAAtAHQAcgBhAG4AcwBmAG8AcgBtACIAOgB7ACIAQgAiADoAIgBuAG8AbgBlACIAfQAsACIAdAByAGEAYwBrAGkAbgBnACIAOgB7ACIAQgAiADoAIgAwAC4AMAAiAH0ALAAiAGYAbwBuAHQALQB3AGUAaQBnAGgAdAAiADoAewAiAEIAIgA6ACIAbgBvAHIAbQBhAGwAIgB9ACwAIgBsAGUAYQBkAGkAbgBnACIAOgB7ACIAQgAiADoAIgAxADQAMAAwAC4AMAAiAH0ALAAiAGYAbwBuAHQALQBzAHQAeQBsAGUAIgA6AHsAIgBCACIAOgAiAG4AbwByAG0AYQBsACIAfQAsACIAYwBvAGwAbwByACIAOgB7ACIAQgAiADoAIgAjADAAMAAwADAAMAAwACIAfQAsACIAZgBvAG4AdAAtAGYAYQBtAGkAbAB5ACIAOgB7ACIAQgAiADoAIgBZAEEARgBkAHQAUQBpADcAMwBYAHMALAAwACIAfQB9AH0ALAB7ACIAQQA/ACIAOgAiAEIAIgAsACIAQQAiADoAMQB9ACwAewAiAEEAPwAiADoAIgBBACIALAAiAEEAIgA6AHsAIgBmAG8AbgB0AC0AcwBpAHoAZQAiADoAewB9ACwAIgB0AGUAeAB0AC0AdAByAGEAbgBzAGYAbwByAG0AIgA6AHsAfQAsACIAdAByAGEAYwBrAGkAbgBnACIAOgB7AH0ALAAiAGYAbwBuAHQALQB3AGUAaQBnAGgAdAAiADoAewB9ACwAIgBsAGUAYQBkAGkAbgBnACIAOgB7AH0ALAAiAGYAbwBuAHQALQBzAHQAeQBsAGUAIgA6AHsAfQAsACIAYwBvAGwAbwByACIAOgB7AH0ALAAiAGYAbwBuAHQALQBmAGEAbQBpAGwAeQAiADoAewB9AH0AfQBdAH0ALAAiAEIAIgA6AHsAfQAsACIARAAiADoAewAiAEQAIgA6ADYANAAsACIAQwAiADoANgA0AH0ALAAiAEUAIgA6AFsANABdACwAIgBGACIAOgAiAEIAIgB9AF0ALAAiAGgAIgA6AHsAIgBBAD8AIgA6ACIASAAiACwAIgBBACIAOgAxADEAOQAuADkAOQA5ADkAOQA5ADkAOQA5ADkAOQA5ADkANAB9AH0ALAB7ACIAQQAiADoAMgA3ADYALgAzADEANwAwADIANgA3ADYAMQA0ADUAOQA0ACwAIgBCACIAOgAyAC4AMAAxADIAMAA3ADYANQA1ADUANQA5ADIANAAxADUALAAiAEQAIgA6ADEAMgA0AC4AOAAzADQAMAA5ADMANAAwADUAMwA3ADEAMwAzACwAIgBDACIAOgAxADIANAAuADgAMwA0ADAAOQAzADQAMAA1ADMANwAxADMAMwAsACIAQQA/ACIAOgAiAEkAIgAsACIAYQAiADoAewAiAEIAIgA6AHsAIgBBACIAOgB7ACIAQQAiADoAIgBNAEEARwBHAEkAMwBHADQAOQBBAHcAIgAsACIAQgAiADoAMQB9ACwAIgBCACIAOgB7ACIARAAiADoAMQAyADQALgA4ADMANAAwADkAMwA0ADAANQAzADcAMQAzADMALAAiAEMAIgA6ADEAMgA0AC4AOAAzADQAMAA5ADMANAAwADUAMwA3ADEAMwAzAH0ALAAiAEMAIgA6AHsAIgAjAGYAZgBmAGYAZgBmACIAOgAiACMAMAAwADAAMAAwADAAIgB9AH0AfQB9ACwAewAiAEEAIgA6ADcALgA4ADEANQA5ADcAMAAwADkAMwAzADYAMQAxADAAMgBlAC0AMQA0ACwAIgBCACIAOgAxADcAMAAuADQAMAA4ADkANQAyADgAOQA4ADQAMAA2ADQAOAAsACIARAAiADoANAAzADcALgA2ADQAMwA2ADQANwA1ADAAMgAwADkANwA1ADYALAAiAEMAIgA6ADUAMwAuADkAMwAzADMANAAsACIAQQA/ACIAOgAiAEsAIgAsACIAYQAiADoAewAiAEEAIgA6AFsAewAiAEEAPwAiADoAIgBBACIALAAiAEEAIgA6ACIATgBvAG0AZQAgAGQAZQAgAFUAcwB1AOEAcgBpAG8AIAA6AFwAbgAiAH0AXQAsACIAQgAiADoAWwB7ACIAQQA/ACIAOgAiAEEAIgAsACIAQQAiADoAewAiAHQAZQB4AHQALQBhAGwAaQBnAG4AIgA6AHsAIgBCACIAOgAiAGMAZQBuAHQAZQByACIAfQAsACIAZgBvAG4AdAAtAHMAaQB6AGUAIgA6AHsAIgBCACIAOgAiADQANQAuADMAMwAzADMAIgB9ACwAIgBmAG8AbgB0AC0AZgBhAG0AaQBsAHkAIgA6AHsAIgBCACIAOgAiAFkAQQBGAGQAdABRAGkANwAzAFgAcwAsADAAIgB9AH0AfQAsAHsAIgBBAD8AIgA6ACIAQgAiACwAIgBBACIAOgAxADcAfQAsAHsAIgBBAD8AIgA6ACIAQQAiACwAIgBBACIAOgB7ACIAYwBvAGwAbwByACIAOgB7ACIAQgAiADoAIgAjADAAMAAwADAAMAAwACIAfQAsACIAcwBwAGEAYwBpAG4AZwAiADoAewAiAEIAIgA6ACIAMAAuADAAIgB9ACwAIgB0AGUAeAB0AC0AdAByAGEAbgBzAGYAbwByAG0AIgA6AHsAIgBCACIAOgAiAG4AbwBuAGUAIgB9ACwAIgBkAGUAYwBvAHIAYQB0AGkAbwBuACIAOgB7ACIAQgAiADoAIgBuAG8AbgBlACIAfQAsACIAcwB0AHIAaQBrAGUAdABoAHIAbwB1AGcAaAAiADoAewAiAEIAIgA6ACIAbgBvAG4AZQAiAH0ALAAiAGwAaQBuAGsAIgA6AHsAIgBCACIAOgAiACIAfQAsACIAbABpAHMAdAAtAG0AYQByAGsAZQByACIAOgB7ACIAQgAiADoAIgBuAG8AbgBlACIAfQAsACIAbABlAGEAZABpAG4AZwAiADoAewAiAEIAIgA6ACIAMQA0ADAAMAAuADAAIgB9ACwAIgB0AHIAYQBjAGsAaQBuAGcAIgA6AHsAIgBCACIAOgAiADAALgAwACIAfQAsACIAcwB0AHkAbABlACIAOgB7ACIAQgAiADoAIgBiAG8AZAB5ACIAfQAsACIAawBlAHIAbgBpAG4AZwAiADoAewAiAEIAIgA6ACIAMAAuADAAIgB9ACwAIgBsAGkAcwB0AC0AbABlAHYAZQBsACIAOgB7ACIAQgAiADoAIgAwAC4AMAAiAH0ALAAiAGgAZQBhAGQALQBpAG4AZABlAG4AdAAiADoAewAiAEIAIgA6ACIAMAAuADAAIgB9AH0AfQAsAHsAIgBBAD8AIgA6ACIAQgAiACwAIgBBACIAOgAxAH0ALAB7ACIAQQA/ACIAOgAiAEEAIgAsACIAQQAiADoAewAiAGYAbwBuAHQALQBzAGkAegBlACIAOgB7AH0ALAAiAGwAaQBuAGsAIgA6AHsAfQAsACIAaABlAGEAZAAtAGkAbgBkAGUAbgB0ACIAOgB7AH0ALAAiAHQAcgBhAGMAawBpAG4AZwAiADoAewB9ACwAIgBsAGkAcwB0AC0AbABlAHYAZQBsACIAOgB7AH0ALAAiAHMAdAByAGkAawBlAHQAaAByAG8AdQBnAGgAIgA6AHsAfQAsACIAcwB0AHkAbABlACIAOgB7AH0ALAAiAGQAZQBjAG8AcgBhAHQAaQBvAG4AIgA6AHsAfQAsACIAdABlAHgAdAAtAHQAcgBhAG4AcwBmAG8AcgBtACIAOgB7AH0ALAAiAGsAZQByAG4AaQBuAGcAIgA6AHsAfQAsACIAbABpAHMAdAAtAG0AYQByAGsAZQByACIAOgB7AH0ALAAiAGwAZQBhAGQAaQBuAGcAIgA6AHsAfQAsACIAdABlAHgAdAAtAGEAbABpAGcAbgAiADoAewB9ACwAIgBzAHAAYQBjAGkAbgBnACIAOgB7AH0ALAAiAGMAbwBsAG8AcgAiADoAewB9ACwAIgBmAG8AbgB0AC0AZgBhAG0AaQBsAHkAIgA6AHsAfQB9AH0AXQB9ACwAIgBiACIAOgB7ACIAQQAiADoAWwAxADgAXQB9ACwAIgBkACIAOgAiAEEAIgAsACIAZwAiADoAZgBhAGwAcwBlACwAIgBoACIAOgAiAEEAIgB9ACwAewAiAEEAIgA6ADIAMQA2AC4AMAAwADAAMwA5ADkANQAwADQANgAxADQANAAyACwAIgBCACIAOgAxADcAMAAuADQAMAA4ADkANQAyADgAOQA4ADQAMAA2ADQAOAAsACIARAAiADoAMQA5ADQALgAxADEAOAAxADIAMgA5ADAAMgA2ADAAMAA4ADUALAAiAEMAIgA6ADUAMwAuADkAMwAzADMANAAsACIAQQA/ACIAOgAiAEsAIgAsACIAYQAiADoAewAiAEEAIgA6AFsAewAiAEEAPwAiADoAIgBBACIALAAiAEEAIgA6ACIAUwBlAG4AaABhACAAOgBcAG4AIgB9AF0ALAAiAEIAIgA6AFsAewAiAEEAPwAiADoAIgBBACIALAAiAEEAIgA6AHsAIgB0AGUAeAB0AC0AYQBsAGkAZwBuACIAOgB7ACIAQgAiADoAIgBjAGUAbgB0AGUAcgAiAH0ALAAiAGYAbwBuAHQALQBzAGkAegBlACIAOgB7ACIAQgAiADoAIgA0ADUALgAzADMAMwAzACIAfQAsACIAZgBvAG4AdAAtAGYAYQBtAGkAbAB5ACIAOgB7ACIAQgAiADoAIgBZAEEARgBkAHQAUQBpADcAMwBYAHMALAAwACIAfQB9AH0ALAB7ACIAQQA/ACIAOgAiAEIAIgAsACIAQQAiADoANwB9ACwAewAiAEEAPwAiADoAIgBBACIALAAiAEEAIgA6AHsAIgBmAG8AbgB0AC0AcwB0AHkAbABlACIAOgB7ACIAQgAiADoAIgBuAG8AcgBtAGEAbAAiAH0ALAAiAHQAZQB4AHQALQB0AHIAYQBuAHMAZgBvAHIAbQAiADoAewAiAEIAIgA6ACIAbgBvAG4AZQAiAH0ALAAiAGwAZQBhAGQAaQBuAGcAIgA6AHsAIgBCACIAOgAiADEANAAwADAALgAwACIAfQAsACIAbABpAHMAdAAtAGwAZQB2AGUAbAAiADoAewAiAEIAIgA6ACIAMAAuADAAIgB9ACwAIgBrAGUAcgBuAGkAbgBnACIAOgB7ACIAQgAiADoAIgAwAC4AMAAiAH0ALAAiAHMAdAB5AGwAZQAiADoAewAiAEIAIgA6ACIAYgBvAGQAeQAiAH0ALAAiAHMAdAByAGkAawBlAHQAaAByAG8AdQBnAGgAIgA6AHsAIgBCACIAOgAiAG4AbwBuAGUAIgB9ACwAIgBmAG8AbgB0AC0AdwBlAGkAZwBoAHQAIgA6AHsAIgBCACIAOgAiAG4AbwByAG0AYQBsACIAfQAsACIAcwBwAGEAYwBpAG4AZwAiADoAewAiAEIAIgA6ACIAMAAuADAAIgB9ACwAIgBsAGkAbgBrACIAOgB7ACIAQgAiADoAIgAiAH0ALAAiAHQAcgBhAGMAawBpAG4AZwAiADoAewAiAEIAIgA6ACIAMAAuADAAIgB9ACwAIgBkAGUAYwBvAHIAYQB0AGkAbwBuACIAOgB7ACIAQgAiADoAIgBuAG8AbgBlACIAfQAsACIAaABlAGEAZAAtAGkAbgBkAGUAbgB0ACIAOgB7ACIAQgAiADoAIgAwAC4AMAAiAH0ALAAiAGMAbwBsAG8AcgAiADoAewAiAEIAIgA6ACIAIwAwADAAMAAwADAAMAAiAH0ALAAiAGwAaQBzAHQALQBtAGEAcgBrAGUAcgAiADoAewAiAEIAIgA6ACIAbgBvAG4AZQAiAH0AfQB9ACwAewAiAEEAPwAiADoAIgBCACIALAAiAEEAIgA6ADEAfQAsAHsAIgBBAD8AIgA6ACIAQQAiACwAIgBBACIAOgB7ACIAcwBwAGEAYwBpAG4AZwAiADoAewB9ACwAIgBoAGUAYQBkAC0AaQBuAGQAZQBuAHQAIgA6AHsAfQAsACIAawBlAHIAbgBpAG4AZwAiADoAewB9ACwAIgBsAGkAcwB0AC0AbQBhAHIAawBlAHIAIgA6AHsAfQAsACIAbABpAG4AawAiADoAewB9ACwAIgBzAHQAeQBsAGUAIgA6AHsAfQAsACIAZgBvAG4AdAAtAHMAdAB5AGwAZQAiADoAewB9ACwAIgBmAG8AbgB0AC0AcwBpAHoAZQAiADoAewB9ACwAIgBmAG8AbgB0AC0AZgBhAG0AaQBsAHkAIgA6AHsAfQAsACIAdABlAHgAdAAtAGEAbABpAGcAbgAiADoAewB9ACwAIgB0AHIAYQBjAGsAaQBuAGcAIgA6AHsAfQAsACIAbABlAGEAZABpAG4AZwAiADoAewB9ACwAIgBsAGkAcwB0AC0AbABlAHYAZQBsACIAOgB7AH0ALAAiAHMAdAByAGkAawBlAHQAaAByAG8AdQBnAGgAIgA6AHsAfQAsACIAZgBvAG4AdAAtAHcAZQBpAGcAaAB0ACIAOgB7AH0ALAAiAGQAZQBjAG8AcgBhAHQAaQBvAG4AIgA6AHsAfQAsACIAdABlAHgAdAAtAHQAcgBhAG4AcwBmAG8AcgBtACIAOgB7AH0ALAAiAGMAbwBsAG8AcgAiADoAewB9AH0AfQBdAH0ALAAiAGIAIgA6AHsAIgBBACIAOgBbADgAXQB9ACwAIgBkACIAOgAiAEEAIgAsACIAZwAiADoAZgBhAGwAcwBlACwAIgBoACIAOgAiAEEAIgB9AF0AfQAsAHsAIgBBACIAOgA5ADEAMwAuADAAOQAxADMANgA2ADcAMAA1ADIAOAA1ADQALAAiAEIAIgA6ADcANQAzAC4AOAAxADcAOQA4ADUANgA5ADcANwAzADQAOQAsACIARAAiADoANAAxADIALgAzADYANAAwADIAOAA2ADAANAA1ADMAMAAxACwAIgBDACIAOgAxADEANwAuADgAMQA3ADIANgA2ADUAOAA5ADQAMgA5ADIAMQAsACIARgAiADoAMAAuADIANgAsACIAQQA/ACIAOgAiAEoAIgAsACIAYQAiADoAewAiAEQAIgA6ADYANAAsACIAQwAiADoANgA0AH0ALAAiAGIAIgA6AFsAewAiAEEAIgA6ACIATQAwACAAMABIADYANABWADYANABIADAAegAiACwAIgBCACIAOgB7ACIAQQAiADoAZgBhAGwAcwBlACwAIgBDACIAOgAiACMAZQAyAGUAMgBlADIAIgB9ACwAIgBDACIAOgB7ACIAQQAiADoANAAsACIAQgAiADoAIgAjADAAMAAwADAAMAAwACIALAAiAGYAIgA6AHQAcgB1AGUAfQAsACIARAAiADoANAA1AH0AXQAsACIAYwAiADoAewAiAEEAIgA6AHsAIgBEACIAOgA2ADQALAAiAEMAIgA6ADYANAB9ACwAIgBCACIAOgA4ADEALgA0ADUANAA2ADIAMgA5ADMANAAyADIAOAAxADUALAAiAEMAIgA6ADIAMwAuADIANwAyADUANAA2ADQAOAA2ADgAMAAwADgAMwA0ACwAIgBEACIAOgAiAEEAIgAsACIARQAiADoAIgBBACIAfQAsACIAZQAiADoAewB9ACwAIgBmACIAOgBbAHsAIgBBACIAOgB7ACIAQQAiADoAWwB7ACIAQQA/ACIAOgAiAEEAIgAsACIAQQAiADoAIgBFAG4AdAByAGEAcgBcAG4AIgB9AF0ALAAiAEIAIgA6AFsAewAiAEEAPwAiADoAIgBBACIALAAiAEEAIgA6AHsAIgB0AGUAeAB0AC0AYQBsAGkAZwBuACIAOgB7ACIAQgAiADoAIgBjAGUAbgB0AGUAcgAiAH0ALAAiAGYAbwBuAHQALQBzAGkAegBlACIAOgB7ACIAQgAiADoAIgAyADUALgAzADMAMwAzACIAfQAsACIAZgBvAG4AdAAtAGYAYQBtAGkAbAB5ACIAOgB7ACIAQgAiADoAIgBZAEEARgBkAHQAUQBpADcAMwBYAHMALAAwACIAfQB9AH0ALAB7ACIAQQA/ACIAOgAiAEIAIgAsACIAQQAiADoANgB9ACwAewAiAEEAPwAiADoAIgBBACIALAAiAEEAIgA6AHsAIgBmAG8AbgB0AC0AcwB0AHkAbABlACIAOgB7ACIAQgAiADoAIgBuAG8AcgBtAGEAbAAiAH0ALAAiAGYAbwBuAHQALQB3AGUAaQBnAGgAdAAiADoAewAiAEIAIgA6ACIAbgBvAHIAbQBhAGwAIgB9ACwAIgB0AHIAYQBjAGsAaQBuAGcAIgA6AHsAIgBCACIAOgAiADAALgAwACIAfQAsACIAdABlAHgAdAAtAHQAcgBhAG4AcwBmAG8AcgBtACIAOgB7ACIAQgAiADoAIgBuAG8AbgBlACIAfQAsACIAYwBvAGwAbwByACIAOgB7ACIAQgAiADoAIgAjADAAMAAwADAAMAAwACIAfQAsACIAbABlAGEAZABpAG4AZwAiADoAewAiAEIAIgA6ACIAMQA0ADAAMAAuADAAIgB9AH0AfQAsAHsAIgBBAD8AIgA6ACIAQgAiACwAIgBBACIAOgAxAH0ALAB7ACIAQQA/ACIAOgAiAEEAIgAsACIAQQAiADoAewAiAGYAbwBuAHQALQBmAGEAbQBpAGwAeQAiADoAewB9ACwAIgB0AHIAYQBjAGsAaQBuAGcAIgA6AHsAfQAsACIAbABlAGEAZABpAG4AZwAiADoAewB9ACwAIgB0AGUAeAB0AC0AYQBsAGkAZwBuACIAOgB7AH0ALAAiAGYAbwBuAHQALQB3AGUAaQBnAGgAdAAiADoAewB9ACwAIgB0AGUAeAB0AC0AdAByAGEAbgBzAGYAbwByAG0AIgA6AHsAfQAsACIAYwBvAGwAbwByACIAOgB7AH0ALAAiAGYAbwBuAHQALQBzAHQAeQBsAGUAIgA6AHsAfQAsACIAZgBvAG4AdAAtAHMAaQB6AGUAIgA6AHsAfQB9AH0AXQB9ACwAIgBCACIAOgB7ACIAQQAiADoAWwA3AF0AfQAsACIARAAiADoAewAiAEQAIgA6ADYANAAsACIAQwAiADoANgA0AH0ALAAiAEUAIgA6AFsANABdACwAIgBGACIAOgAiAEIAIgB9AF0ALAAiAGgAIgA6AHsAIgBBAD8AIgA6ACIASAAiACwAIgBBACIAOgAxADEANwAuADgAMQA3ADIANgA2ADUAOAA5ADQAMgA5ADIAMQB9AH0ALAB7ACIAQQAiADoANgA3AC4ANAA5ADIAMgAwADAAMwA3ADkANQAyADkANAAyACwAIgBCACIAOgA3ADUAOQAuADAANwA4ADEAMgA1ACwAIgBEACIAOgA0ADAAMQAuADgANAAzADcANQAsACIAQwAiADoAMQA0ADYALgA0ADYANgA2ACwAIgBBAD8AIgA6ACIASwAiACwAIgBhACIAOgB7ACIAQQAiADoAWwB7ACIAQQA/ACIAOgAiAEEAIgAsACIAQQAiADoAIgBFAG4AdAByAGEAcgBcAG4AIgB9AF0ALAAiAEIAIgA6AFsAewAiAEEAPwAiADoAIgBBACIALAAiAEEAIgA6AHsAIgBmAG8AbgB0AC0AcwBpAHoAZQAiADoAewAiAEIAIgA6ACIAMQAyADIALgA2ADYANwAiAH0ALAAiAGYAbwBuAHQALQB3AGUAaQBnAGgAdAAiADoAewAiAEIAIgA6ACIAYgBvAGwAZAAiAH0ALAAiAHQAZQB4AHQALQBhAGwAaQBnAG4AIgA6AHsAIgBCACIAOgAiAGMAZQBuAHQAZQByACIAfQAsACIAZgBvAG4AdAAtAGYAYQBtAGkAbAB5ACIAOgB7ACIAQgAiADoAIgBZAEEARgBkAHQAUQBpADcAMwBYAHMALAAwACIAfQB9AH0ALAB7ACIAQQA/ACIAOgAiAEIAIgAsACIAQQAiADoANgB9ACwAewAiAEEAPwAiADoAIgBBACIALAAiAEEAIgA6AHsAIgBjAG8AbABvAHIAIgA6AHsAIgBCACIAOgAiACMAMAAwADAAMAAwADAAIgB9ACwAIgBmAG8AbgB0AC0AcwB0AHkAbABlACIAOgB7ACIAQgAiADoAIgBuAG8AcgBtAGEAbAAiAH0AfQB9ACwAewAiAEEAPwAiADoAIgBCACIALAAiAEEAIgA6ADEAfQAsAHsAIgBBAD8AIgA6ACIAQQAiACwAIgBBACIAOgB7ACIAZgBvAG4AdAAtAHMAdAB5AGwAZQAiADoAewB9ACwAIgBmAG8AbgB0AC0AZgBhAG0AaQBsAHkAIgA6AHsAfQAsACIAZgBvAG4AdAAtAHMAaQB6AGUAIgA6AHsAfQAsACIAZgBvAG4AdAAtAHcAZQBpAGcAaAB0ACIAOgB7AH0ALAAiAGMAbwBsAG8AcgAiADoAewB9ACwAIgB0AGUAeAB0AC0AYQBsAGkAZwBuACIAOgB7AH0AfQB9AF0AfQAsACIAYgAiADoAewAiAEEAIgA6AFsANwBdAH0ALAAiAGQAIgA6ACIAQQAiACwAIgBnACIAOgBmAGEAbABzAGUALAAiAGgAIgA6ACIAQgAiAH0AXQB9AF0ALAAiAEIAIgA6ADEAOQAyADAALAAiAEMAIgA6ADEAMAA4ADAAfQA=&quot;&gt;&lt;/span&gt;&lt;/div&gt;&#xa;&#xa;" style="rounded=0;whiteSpace=wrap;html=1;fillColor=#D9D9D9;movable=1;resizable=1;rotatable=1;deletable=1;editable=1;locked=0;connectable=1;" parent="1" vertex="1">
          <mxGeometry x="990" y="60" width="340" height="630" as="geometry" />
        </mxCell>
        <mxCell id="v796rnTliUzdl1zem_Hj-29" value="" style="rounded=1;whiteSpace=wrap;html=1;fillColor=#A6A6A6;fontStyle=0" parent="1" vertex="1">
          <mxGeometry x="1000" y="70" width="60" height="60" as="geometry" />
        </mxCell>
        <mxCell id="v796rnTliUzdl1zem_Hj-10" value="&#xa;&lt;div&gt;&lt;span data-canva-clipboard=&quot;ewAiAGEAIgA6ADUALAAiAGgAIgA6ACIAdwB3AHcALgBjAGEAbgB2AGEALgBjAG8AbQAiACwAIgBjACIAOgAiAEQAQQBHAEcASQBtAHUAMwBEAEIAZwAiACwAIgBpACIAOgAiAHcAMgBBAGIAdgBvADUAawB2AG8AcABxAEYANQA3AC0AdQBzAGYAMwBDAGcAIgAsACIAYgAiADoAMQA3ADEANgA4ADkANAAyADAANAA1ADMAOAAsACIAagAiADoAWwB7AH0ALAB7AH0ALAB7ACIAQQAiADoAewAiAEsAIgA6AHsAfQAsACIARAAiADoAewB9ACwAIgBMACIAOgB7ACIAQQAiADoAWwB7ACIAQQAiADoAewB9ACwAIgBCACIAOgAiAEMAIgB9ACwAewAiAEEAIgA6AHsAfQAsACIAQgAiADoAIgBCACIAfQBdAH0ALAAiAEUAIgA6AHsAfQAsACIARgAiADoAewAiAEEAIgA6ACIASQBkAGUAbgB0AGkAdAB5AC4AcABuAGcAIgAsACIAQgAiADoAMQB9ACwAIgBHACIAOgB7AH0ALAAiAEgAIgA6AHsAIgBCACIAOgAiAG4AbwBuAGUAIgAsACIAQwAiADoAIgAjADAAMAAwADAAMAAwACIALAAiAEQAIgA6ACIAIwBmAGYAZgBmAGYAZgAiAH0ALAAiAEoAIgA6AHsAIgBGACIAOgAiACMAMAAwADAAMAAwADAAIgB9ACwAIgBQACIAOgB7AH0AfQB9ACwAewB9ACwAewB9ACwAewAiAEEAIgA6AHsAIgBLACIAOgB7AH0ALAAiAEQAIgA6AHsAfQAsACIATAAiADoAewAiAEEAIgA6AFsAewAiAEEAIgA6AHsAfQAsACIAQgAiADoAIgBDACIAfQAsAHsAIgBBACIAOgB7AH0ALAAiAEIAIgA6ACIAQgAiAH0AXQB9ACwAIgBFACIAOgB7AH0ALAAiAEYAIgA6AHsAIgBBACIAOgAiAEkAZABlAG4AdABpAHQAeQAuAHAAbgBnACIALAAiAEIAIgA6ADEAfQAsACIARwAiADoAewB9ACwAIgBIACIAOgB7ACIAQgAiADoAIgBuAG8AbgBlACIALAAiAEMAIgA6ACIAIwAwADAAMAAwADAAMAAiACwAIgBEACIAOgAiACMAZgBmAGYAZgBmAGYAIgB9ACwAIgBKACIAOgB7ACIARgAiADoAIgAjADAAMAAwADAAMAAwACIAfQAsACIAUAAiADoAewB9AH0AfQAsAHsAfQBdACwAIgBBAD8AIgA6ACIAQwAiACwAIgBBACIAOgBbAHsAIgBEACIAOgB7ACIAQwAiADoAIgAjAGYAZgBmAGYAZgBmACIAfQAsACIARQAiADoAWwB7ACIAQQAiADoAMgAyAC4AMAA4ADkAMwAyADkAMgAzADEANwA1ADIANgAzACwAIgBCACIAOgAyADUALgA2ADMAMgA5ADMANQAxADYAMAA0ADAAMQAwADcANQAsACIARAAiADoAMQA4ADYAOAAuADcAMwA0ADEAMgA5ADYANwA5ADEAOQA3ADgALAAiAEMAIgA6ADEAMAAzADUALgA4ADIAMQAzADQAMQA1ADMANgA0ADkANAA2ACwAIgBBAD8AIgA6ACIASgAiACwAIgBhACIAOgB7ACIARAAiADoANgA0ACwAIgBDACIAOgA2ADQAfQAsACIAYgAiADoAWwB7ACIAQQAiADoAIgBNADAAIAAwAEgANgA0AFYANgA0AEgAMAB6ACIALAAiAEIAIgA6AHsAIgBBACIAOgBmAGEAbABzAGUALAAiAEMAIgA6ACIAIwBhADYAYQA2AGEANgAiAH0ALAAiAEQAIgA6ADgAMAB9AF0ALAAiAGMAIgA6AHsAIgBBACIAOgB7ACIARAAiADoANgA0ACwAIgBDACIAOgA2ADQAfQAsACIAQgAiADoAMwA2ADkALgAxADMAMgA2ADYANwA1ADkAMAA5ADUAMgA1ADYALAAiAEMAIgA6ADIAMAA0AC4ANgAwADYANgA4ADQANwA0ADcAOQA0ADkANQA0ACwAIgBEACIAOgAiAEEAIgAsACIARQAiADoAIgBBACIAfQAsACIAZQAiADoAewB9ACwAIgBmACIAOgBbAHsAIgBBACIAOgB7ACIAQQAiADoAWwB7ACIAQQA/ACIAOgAiAEEAIgAsACIAQQAiADoAIgBcAG4AIgB9AF0ALAAiAEIAIgA6AFsAewAiAEEAPwAiADoAIgBBACIALAAiAEEAIgA6AHsAIgBmAG8AbgB0AC0AcwBpAHoAZQAiADoAewAiAEIAIgA6ACIAMgA1AC4AMwAzADMAMwAiAH0ALAAiAGYAbwBuAHQALQBmAGEAbQBpAGwAeQAiADoAewAiAEIAIgA6ACIAWQBBAEYAZABKAHQAOABkAEEAWQAwACwAMAAiAH0ALAAiAGMAbwBsAG8AcgAiADoAewAiAEIAIgA6ACIAIwBmAGYAZgBmAGYAZgAiAH0ALAAiAHQAZQB4AHQALQBhAGwAaQBnAG4AIgA6AHsAIgBCACIAOgAiAGMAZQBuAHQAZQByACIAfQAsACIAcwBwAGEAYwBpAG4AZwAiADoAewAiAEIAIgA6ACIAMAAuADAAIgB9AH0AfQAsAHsAIgBBAD8AIgA6ACIAQgAiACwAIgBBACIAOgAxAH0ALAB7ACIAQQA/ACIAOgAiAEEAIgAsACIAQQAiADoAewAiAGYAbwBuAHQALQBzAGkAegBlACIAOgB7AH0ALAAiAGYAbwBuAHQALQBmAGEAbQBpAGwAeQAiADoAewB9ACwAIgBjAG8AbABvAHIAIgA6AHsAfQAsACIAdABlAHgAdAAtAGEAbABpAGcAbgAiADoAewB9ACwAIgBzAHAAYQBjAGkAbgBnACIAOgB7AH0AfQB9AF0AfQAsACIAQgAiADoAewB9ACwAIgBEACIAOgB7ACIARAAiADoANgA0ACwAIgBDACIAOgA2ADQAfQAsACIARQAiADoAWwA0AF0ALAAiAEYAIgA6ACIAQgAiAH0AXQAsACIAaAAiADoAewAiAEEAPwAiADoAIgBIACIALAAiAEEAIgA6ADEAMAAzADUALgA4ADIAMQAzADQAMQA1ADMANgA0ADkANAA2AH0AfQAsAHsAIgBBACIAOgAzADMAOQAuADQAMgA0ADQAMwA5ADkAMQA2ADUAOAA0ADUANgAsACIAQgAiADoAMgA5ADgALgA5ADIAOQAxADEAMgAzADkANwA2ADgANwA2ACwAIgBEACIAOgAxADMAMgAyAC4AMQA0ADEANwA3ADUAMgAwADQANgAyADQAOAAsACIAQwAiADoANAAwADEALgAxADUAMQAxADIAMAAxADYANgA4ADMAMAA2ACwAIgBBAD8AIgA6ACIASAAiACwAIgBiACIAOgAxADMAMgAyAC4AMQA0ADEANwA3ADUAMgAwADQANgAyADQAOAAsACIAYQAiADoANAAwADEALgAxADUAMQAxADIAMAAxADYANgA4ADMAMAA2ACwAIgBjACIAOgBbAHsAIgBBACIAOgA1ADMALgA5ADMAMwAzADQAMAAwADAAMAAwADAAMAAwADYALAAiAEIAIgA6ADEALgAyADcAOAA5ADcANgA5ADIANAAzADYAOAAxADgAMAAzAGUALQAxADMALAAiAEQAIgA6ADEAMwA3AC4ANgAwADAANgA2ADcAOQAxADkAMAA2ADEAMgA0ACwAIgBDACIAOgAxADMANwAuADYAMAAwADYANgA3ADkAMQA5ADAANgAxADIANAAsACIAQQA/ACIAOgAiAEkAIgAsACIAYQAiADoAewAiAEEAIgA6AGYAYQBsAHMAZQAsACIAQgAiADoAewAiAEEAIgA6AHsAIgBBACIAOgAiAE0AQQBHAEcASQAtAGgAWQBIAGsAdwAiACwAIgBCACIAOgAxAH0ALAAiAEIAIgA6AHsAIgBEACIAOgAxADMANwAuADYAMAAwADYANgA3ADkAMQA5ADAANgAxADIANAAsACIAQwAiADoAMQAzADcALgA2ADAAMAA2ADYANwA5ADEAOQAwADYAMQAyADQAfQAsACIAQwAiADoAewAiACMAZgBmAGYAZgBmAGYAIgA6ACIAIwAwADAAMAAwADAAMAAiAH0AfQB9AH0ALAB7ACIAQQAiADoANgAxAC4AOAA5ADkANQA4ADAANQA1ADQAMQA1ADkANAA4ADUALAAiAEIAIgA6ADEANwAwAC4ANAA0ADEANwA3ADUAMgAwADQANgAyADQANQAsACIARAAiADoAMQAxADUAMQAuADcALAAiAEMAIgA6ADEAMQA5AC4AOQA5ADkAOQA5ADkAOQA5ADkAOQA5ADkAOQA0ACwAIgBGACIAOgAwAC4ANAA2ACwAIgBBAD8AIgA6ACIASgAiACwAIgBhACIAOgB7ACIARAAiADoANgA0ACwAIgBDACIAOgA2ADQAfQAsACIAYgAiADoAWwB7ACIAQQAiADoAIgBNADAAIAAwAEgANgA0AFYANgA0AEgAMAB6ACIALAAiAEIAIgA6AHsAIgBBACIAOgBmAGEAbABzAGUALAAiAEMAIgA6ACIAIwBlADIAZQAyAGUAMgAiAH0ALAAiAEMAIgA6AHsAIgBBACIAOgA0ACwAIgBCACIAOgAiACMAMAAwADAAMAAwADAAIgAsACIAZgAiADoAdAByAHUAZQB9AH0AXQAsACIAYwAiADoAewAiAEEAIgA6AHsAIgBEACIAOgA2ADQALAAiAEMAIgA6ADYANAB9ACwAIgBCACIAOgAyADUANwAuADAAMQAyADIAMgA2ADcANgAzADIAOQA5ADAANQAsACIAQwAiADoAMgA2AC4ANwA3ADkAMAA4ADAANgA3ADMANAAzADUANgA3ADIALAAiAEQAIgA6ACIAQQAiACwAIgBFACIAOgAiAEEAIgB9ACwAIgBlACIAOgB7AH0ALAAiAGYAIgA6AFsAewAiAEEAIgA6AHsAIgBBACIAOgBbAHsAIgBBAD8AIgA6ACIAQQAiACwAIgBBACIAOgAiAFwAbgAiAH0AXQAsACIAQgAiADoAWwB7ACIAQQA/ACIAOgAiAEEAIgAsACIAQQAiADoAewAiAGYAbwBuAHQALQBzAGkAegBlACIAOgB7ACIAQgAiADoAIgAyADUALgAzADMAMwAzACIAfQAsACIAdABlAHgAdAAtAHQAcgBhAG4AcwBmAG8AcgBtACIAOgB7ACIAQgAiADoAIgBuAG8AbgBlACIAfQAsACIAdAByAGEAYwBrAGkAbgBnACIAOgB7ACIAQgAiADoAIgAwAC4AMAAiAH0ALAAiAGYAbwBuAHQALQB3AGUAaQBnAGgAdAAiADoAewAiAEIAIgA6ACIAbgBvAHIAbQBhAGwAIgB9ACwAIgBsAGUAYQBkAGkAbgBnACIAOgB7ACIAQgAiADoAIgAxADQAMAAwAC4AMAAiAH0ALAAiAGYAbwBuAHQALQBzAHQAeQBsAGUAIgA6AHsAIgBCACIAOgAiAG4AbwByAG0AYQBsACIAfQAsACIAYwBvAGwAbwByACIAOgB7ACIAQgAiADoAIgAjADAAMAAwADAAMAAwACIAfQAsACIAZgBvAG4AdAAtAGYAYQBtAGkAbAB5ACIAOgB7ACIAQgAiADoAIgBZAEEARgBkAEoAdAA4AGQAQQBZADAALAAwACIAfQB9AH0ALAB7ACIAQQA/ACIAOgAiAEIAIgAsACIAQQAiADoAMQB9ACwAewAiAEEAPwAiADoAIgBBACIALAAiAEEAIgA6AHsAIgBmAG8AbgB0AC0AcwBpAHoAZQAiADoAewB9ACwAIgB0AGUAeAB0AC0AdAByAGEAbgBzAGYAbwByAG0AIgA6AHsAfQAsACIAdAByAGEAYwBrAGkAbgBnACIAOgB7AH0ALAAiAGYAbwBuAHQALQB3AGUAaQBnAGgAdAAiADoAewB9ACwAIgBsAGUAYQBkAGkAbgBnACIAOgB7AH0ALAAiAGYAbwBuAHQALQBzAHQAeQBsAGUAIgA6AHsAfQAsACIAYwBvAGwAbwByACIAOgB7AH0ALAAiAGYAbwBuAHQALQBmAGEAbQBpAGwAeQAiADoAewB9AH0AfQBdAH0ALAAiAEIAIgA6AHsAfQAsACIARAAiADoAewAiAEQAIgA6ADYANAAsACIAQwAiADoANgA0AH0ALAAiAEUAIgA6AFsANABdACwAIgBGACIAOgAiAEIAIgB9AF0ALAAiAGgAIgA6AHsAIgBBAD8AIgA6ACIASAAiACwAIgBBACIAOgAxADEAOQAuADkAOQA5ADkAOQA5ADkAOQA5ADkAOQA5ADkANAB9AH0ALAB7ACIAQQAiADoAMgA3ADcALgA4ADkAOQA5ADgAMAAwADUAOAA3ADcAMwA3ADQALAAiAEIAIgA6ADEANwAwAC4ANAA0ADEANwA3ADUAMgAwADQANgAyADQANwAyACwAIgBEACIAOgAxADEANQAxAC4ANwAwADAAMAAwADAAMAAwADAAMAAwADAAMwAsACIAQwAiADoAMQAxADkALgA5ADkAOQA5ADkAOQA5ADkAOQA5ADkAOQA5ADQALAAiAEYAIgA6ADAALgA0ADYALAAiAEEAPwAiADoAIgBKACIALAAiAGEAIgA6AHsAIgBEACIAOgA2ADQALAAiAEMAIgA6ADYANAB9ACwAIgBiACIAOgBbAHsAIgBBACIAOgAiAE0AMAAgADAASAA2ADQAVgA2ADQASAAwAHoAIgAsACIAQgAiADoAewAiAEEAIgA6AGYAYQBsAHMAZQAsACIAQwAiADoAIgAjAGUAMgBlADIAZQAyACIAfQAsACIAQwAiADoAewAiAEEAIgA6ADQALAAiAEIAIgA6ACIAIwAwADAAMAAwADAAMAAiACwAIgBmACIAOgB0AHIAdQBlAH0AfQBdACwAIgBjACIAOgB7ACIAQQAiADoAewAiAEQAIgA6ADYANAAsACIAQwAiADoANgA0AH0ALAAiAEIAIgA6ADIANQA3AC4AMAAxADIAMgAyADYANwA2ADMAMgA5ADkAMQAsACIAQwAiADoAMgA2AC4ANwA3ADkAMAA4ADAANgA3ADMANAAzADUANgA3ADIALAAiAEQAIgA6ACIAQQAiACwAIgBFACIAOgAiAEEAIgB9ACwAIgBlACIAOgB7AH0ALAAiAGYAIgA6AFsAewAiAEEAIgA6AHsAIgBBACIAOgBbAHsAIgBBAD8AIgA6ACIAQQAiACwAIgBBACIAOgAiAFwAbgAiAH0AXQAsACIAQgAiADoAWwB7ACIAQQA/ACIAOgAiAEEAIgAsACIAQQAiADoAewAiAGYAbwBuAHQALQBzAGkAegBlACIAOgB7ACIAQgAiADoAIgAyADUALgAzADMAMwAzACIAfQAsACIAdABlAHgAdAAtAHQAcgBhAG4AcwBmAG8AcgBtACIAOgB7ACIAQgAiADoAIgBuAG8AbgBlACIAfQAsACIAdAByAGEAYwBrAGkAbgBnACIAOgB7ACIAQgAiADoAIgAwAC4AMAAiAH0ALAAiAGYAbwBuAHQALQB3AGUAaQBnAGgAdAAiADoAewAiAEIAIgA6ACIAbgBvAHIAbQBhAGwAIgB9ACwAIgBsAGUAYQBkAGkAbgBnACIAOgB7ACIAQgAiADoAIgAxADQAMAAwAC4AMAAiAH0ALAAiAGYAbwBuAHQALQBzAHQAeQBsAGUAIgA6AHsAIgBCACIAOgAiAG4AbwByAG0AYQBsACIAfQAsACIAYwBvAGwAbwByACIAOgB7ACIAQgAiADoAIgAjADAAMAAwADAAMAAwACIAfQAsACIAZgBvAG4AdAAtAGYAYQBtAGkAbAB5ACIAOgB7ACIAQgAiADoAIgBZAEEARgBkAHQAUQBpADcAMwBYAHMALAAwACIAfQB9AH0ALAB7ACIAQQA/ACIAOgAiAEIAIgAsACIAQQAiADoAMQB9ACwAewAiAEEAPwAiADoAIgBBACIALAAiAEEAIgA6AHsAIgBmAG8AbgB0AC0AcwBpAHoAZQAiADoAewB9ACwAIgB0AGUAeAB0AC0AdAByAGEAbgBzAGYAbwByAG0AIgA6AHsAfQAsACIAdAByAGEAYwBrAGkAbgBnACIAOgB7AH0ALAAiAGYAbwBuAHQALQB3AGUAaQBnAGgAdAAiADoAewB9ACwAIgBsAGUAYQBkAGkAbgBnACIAOgB7AH0ALAAiAGYAbwBuAHQALQBzAHQAeQBsAGUAIgA6AHsAfQAsACIAYwBvAGwAbwByACIAOgB7AH0ALAAiAGYAbwBuAHQALQBmAGEAbQBpAGwAeQAiADoAewB9AH0AfQBdAH0ALAAiAEIAIgA6AHsAfQAsACIARAAiADoAewAiAEQAIgA6ADYANAAsACIAQwAiADoANgA0AH0ALAAiAEUAIgA6AFsANABdACwAIgBGACIAOgAiAEIAIgB9AF0ALAAiAGgAIgA6AHsAIgBBAD8AIgA6ACIASAAiACwAIgBBACIAOgAxADEAOQAuADkAOQA5ADkAOQA5ADkAOQA5ADkAOQA5ADkANAB9AH0ALAB7ACIAQQAiADoAMgA3ADYALgAzADEANwAwADIANgA3ADYAMQA0ADUAOQA0ACwAIgBCACIAOgAyAC4AMAAxADIAMAA3ADYANQA1ADUANQA5ADIANAAxADUALAAiAEQAIgA6ADEAMgA0AC4AOAAzADQAMAA5ADMANAAwADUAMwA3ADEAMwAzACwAIgBDACIAOgAxADIANAAuADgAMwA0ADAAOQAzADQAMAA1ADMANwAxADMAMwAsACIAQQA/ACIAOgAiAEkAIgAsACIAYQAiADoAewAiAEIAIgA6AHsAIgBBACIAOgB7ACIAQQAiADoAIgBNAEEARwBHAEkAMwBHADQAOQBBAHcAIgAsACIAQgAiADoAMQB9ACwAIgBCACIAOgB7ACIARAAiADoAMQAyADQALgA4ADMANAAwADkAMwA0ADAANQAzADcAMQAzADMALAAiAEMAIgA6ADEAMgA0AC4AOAAzADQAMAA5ADMANAAwADUAMwA3ADEAMwAzAH0ALAAiAEMAIgA6AHsAIgAjAGYAZgBmAGYAZgBmACIAOgAiACMAMAAwADAAMAAwADAAIgB9AH0AfQB9ACwAewAiAEEAIgA6ADcALgA4ADEANQA5ADcAMAAwADkAMwAzADYAMQAxADAAMgBlAC0AMQA0ACwAIgBCACIAOgAxADcAMAAuADQAMAA4ADkANQAyADgAOQA4ADQAMAA2ADQAOAAsACIARAAiADoANAAzADcALgA2ADQAMwA2ADQANwA1ADAAMgAwADkANwA1ADYALAAiAEMAIgA6ADUAMwAuADkAMwAzADMANAAsACIAQQA/ACIAOgAiAEsAIgAsACIAYQAiADoAewAiAEEAIgA6AFsAewAiAEEAPwAiADoAIgBBACIALAAiAEEAIgA6ACIATgBvAG0AZQAgAGQAZQAgAFUAcwB1AOEAcgBpAG8AIAA6AFwAbgAiAH0AXQAsACIAQgAiADoAWwB7ACIAQQA/ACIAOgAiAEEAIgAsACIAQQAiADoAewAiAHQAZQB4AHQALQBhAGwAaQBnAG4AIgA6AHsAIgBCACIAOgAiAGMAZQBuAHQAZQByACIAfQAsACIAZgBvAG4AdAAtAHMAaQB6AGUAIgA6AHsAIgBCACIAOgAiADQANQAuADMAMwAzADMAIgB9ACwAIgBmAG8AbgB0AC0AZgBhAG0AaQBsAHkAIgA6AHsAIgBCACIAOgAiAFkAQQBGAGQAdABRAGkANwAzAFgAcwAsADAAIgB9AH0AfQAsAHsAIgBBAD8AIgA6ACIAQgAiACwAIgBBACIAOgAxADcAfQAsAHsAIgBBAD8AIgA6ACIAQQAiACwAIgBBACIAOgB7ACIAYwBvAGwAbwByACIAOgB7ACIAQgAiADoAIgAjADAAMAAwADAAMAAwACIAfQAsACIAcwBwAGEAYwBpAG4AZwAiADoAewAiAEIAIgA6ACIAMAAuADAAIgB9ACwAIgB0AGUAeAB0AC0AdAByAGEAbgBzAGYAbwByAG0AIgA6AHsAIgBCACIAOgAiAG4AbwBuAGUAIgB9ACwAIgBkAGUAYwBvAHIAYQB0AGkAbwBuACIAOgB7ACIAQgAiADoAIgBuAG8AbgBlACIAfQAsACIAcwB0AHIAaQBrAGUAdABoAHIAbwB1AGcAaAAiADoAewAiAEIAIgA6ACIAbgBvAG4AZQAiAH0ALAAiAGwAaQBuAGsAIgA6AHsAIgBCACIAOgAiACIAfQAsACIAbABpAHMAdAAtAG0AYQByAGsAZQByACIAOgB7ACIAQgAiADoAIgBuAG8AbgBlACIAfQAsACIAbABlAGEAZABpAG4AZwAiADoAewAiAEIAIgA6ACIAMQA0ADAAMAAuADAAIgB9ACwAIgB0AHIAYQBjAGsAaQBuAGcAIgA6AHsAIgBCACIAOgAiADAALgAwACIAfQAsACIAcwB0AHkAbABlACIAOgB7ACIAQgAiADoAIgBiAG8AZAB5ACIAfQAsACIAawBlAHIAbgBpAG4AZwAiADoAewAiAEIAIgA6ACIAMAAuADAAIgB9ACwAIgBsAGkAcwB0AC0AbABlAHYAZQBsACIAOgB7ACIAQgAiADoAIgAwAC4AMAAiAH0ALAAiAGgAZQBhAGQALQBpAG4AZABlAG4AdAAiADoAewAiAEIAIgA6ACIAMAAuADAAIgB9AH0AfQAsAHsAIgBBAD8AIgA6ACIAQgAiACwAIgBBACIAOgAxAH0ALAB7ACIAQQA/ACIAOgAiAEEAIgAsACIAQQAiADoAewAiAGYAbwBuAHQALQBzAGkAegBlACIAOgB7AH0ALAAiAGwAaQBuAGsAIgA6AHsAfQAsACIAaABlAGEAZAAtAGkAbgBkAGUAbgB0ACIAOgB7AH0ALAAiAHQAcgBhAGMAawBpAG4AZwAiADoAewB9ACwAIgBsAGkAcwB0AC0AbABlAHYAZQBsACIAOgB7AH0ALAAiAHMAdAByAGkAawBlAHQAaAByAG8AdQBnAGgAIgA6AHsAfQAsACIAcwB0AHkAbABlACIAOgB7AH0ALAAiAGQAZQBjAG8AcgBhAHQAaQBvAG4AIgA6AHsAfQAsACIAdABlAHgAdAAtAHQAcgBhAG4AcwBmAG8AcgBtACIAOgB7AH0ALAAiAGsAZQByAG4AaQBuAGcAIgA6AHsAfQAsACIAbABpAHMAdAAtAG0AYQByAGsAZQByACIAOgB7AH0ALAAiAGwAZQBhAGQAaQBuAGcAIgA6AHsAfQAsACIAdABlAHgAdAAtAGEAbABpAGcAbgAiADoAewB9ACwAIgBzAHAAYQBjAGkAbgBnACIAOgB7AH0ALAAiAGMAbwBsAG8AcgAiADoAewB9ACwAIgBmAG8AbgB0AC0AZgBhAG0AaQBsAHkAIgA6AHsAfQB9AH0AXQB9ACwAIgBiACIAOgB7ACIAQQAiADoAWwAxADgAXQB9ACwAIgBkACIAOgAiAEEAIgAsACIAZwAiADoAZgBhAGwAcwBlACwAIgBoACIAOgAiAEEAIgB9ACwAewAiAEEAIgA6ADIAMQA2AC4AMAAwADAAMwA5ADkANQAwADQANgAxADQANAAyACwAIgBCACIAOgAxADcAMAAuADQAMAA4ADkANQAyADgAOQA4ADQAMAA2ADQAOAAsACIARAAiADoAMQA5ADQALgAxADEAOAAxADIAMgA5ADAAMgA2ADAAMAA4ADUALAAiAEMAIgA6ADUAMwAuADkAMwAzADMANAAsACIAQQA/ACIAOgAiAEsAIgAsACIAYQAiADoAewAiAEEAIgA6AFsAewAiAEEAPwAiADoAIgBBACIALAAiAEEAIgA6ACIAUwBlAG4AaABhACAAOgBcAG4AIgB9AF0ALAAiAEIAIgA6AFsAewAiAEEAPwAiADoAIgBBACIALAAiAEEAIgA6AHsAIgB0AGUAeAB0AC0AYQBsAGkAZwBuACIAOgB7ACIAQgAiADoAIgBjAGUAbgB0AGUAcgAiAH0ALAAiAGYAbwBuAHQALQBzAGkAegBlACIAOgB7ACIAQgAiADoAIgA0ADUALgAzADMAMwAzACIAfQAsACIAZgBvAG4AdAAtAGYAYQBtAGkAbAB5ACIAOgB7ACIAQgAiADoAIgBZAEEARgBkAHQAUQBpADcAMwBYAHMALAAwACIAfQB9AH0ALAB7ACIAQQA/ACIAOgAiAEIAIgAsACIAQQAiADoANwB9ACwAewAiAEEAPwAiADoAIgBBACIALAAiAEEAIgA6AHsAIgBmAG8AbgB0AC0AcwB0AHkAbABlACIAOgB7ACIAQgAiADoAIgBuAG8AcgBtAGEAbAAiAH0ALAAiAHQAZQB4AHQALQB0AHIAYQBuAHMAZgBvAHIAbQAiADoAewAiAEIAIgA6ACIAbgBvAG4AZQAiAH0ALAAiAGwAZQBhAGQAaQBuAGcAIgA6AHsAIgBCACIAOgAiADEANAAwADAALgAwACIAfQAsACIAbABpAHMAdAAtAGwAZQB2AGUAbAAiADoAewAiAEIAIgA6ACIAMAAuADAAIgB9ACwAIgBrAGUAcgBuAGkAbgBnACIAOgB7ACIAQgAiADoAIgAwAC4AMAAiAH0ALAAiAHMAdAB5AGwAZQAiADoAewAiAEIAIgA6ACIAYgBvAGQAeQAiAH0ALAAiAHMAdAByAGkAawBlAHQAaAByAG8AdQBnAGgAIgA6AHsAIgBCACIAOgAiAG4AbwBuAGUAIgB9ACwAIgBmAG8AbgB0AC0AdwBlAGkAZwBoAHQAIgA6AHsAIgBCACIAOgAiAG4AbwByAG0AYQBsACIAfQAsACIAcwBwAGEAYwBpAG4AZwAiADoAewAiAEIAIgA6ACIAMAAuADAAIgB9ACwAIgBsAGkAbgBrACIAOgB7ACIAQgAiADoAIgAiAH0ALAAiAHQAcgBhAGMAawBpAG4AZwAiADoAewAiAEIAIgA6ACIAMAAuADAAIgB9ACwAIgBkAGUAYwBvAHIAYQB0AGkAbwBuACIAOgB7ACIAQgAiADoAIgBuAG8AbgBlACIAfQAsACIAaABlAGEAZAAtAGkAbgBkAGUAbgB0ACIAOgB7ACIAQgAiADoAIgAwAC4AMAAiAH0ALAAiAGMAbwBsAG8AcgAiADoAewAiAEIAIgA6ACIAIwAwADAAMAAwADAAMAAiAH0ALAAiAGwAaQBzAHQALQBtAGEAcgBrAGUAcgAiADoAewAiAEIAIgA6ACIAbgBvAG4AZQAiAH0AfQB9ACwAewAiAEEAPwAiADoAIgBCACIALAAiAEEAIgA6ADEAfQAsAHsAIgBBAD8AIgA6ACIAQQAiACwAIgBBACIAOgB7ACIAcwBwAGEAYwBpAG4AZwAiADoAewB9ACwAIgBoAGUAYQBkAC0AaQBuAGQAZQBuAHQAIgA6AHsAfQAsACIAawBlAHIAbgBpAG4AZwAiADoAewB9ACwAIgBsAGkAcwB0AC0AbQBhAHIAawBlAHIAIgA6AHsAfQAsACIAbABpAG4AawAiADoAewB9ACwAIgBzAHQAeQBsAGUAIgA6AHsAfQAsACIAZgBvAG4AdAAtAHMAdAB5AGwAZQAiADoAewB9ACwAIgBmAG8AbgB0AC0AcwBpAHoAZQAiADoAewB9ACwAIgBmAG8AbgB0AC0AZgBhAG0AaQBsAHkAIgA6AHsAfQAsACIAdABlAHgAdAAtAGEAbABpAGcAbgAiADoAewB9ACwAIgB0AHIAYQBjAGsAaQBuAGcAIgA6AHsAfQAsACIAbABlAGEAZABpAG4AZwAiADoAewB9ACwAIgBsAGkAcwB0AC0AbABlAHYAZQBsACIAOgB7AH0ALAAiAHMAdAByAGkAawBlAHQAaAByAG8AdQBnAGgAIgA6AHsAfQAsACIAZgBvAG4AdAAtAHcAZQBpAGcAaAB0ACIAOgB7AH0ALAAiAGQAZQBjAG8AcgBhAHQAaQBvAG4AIgA6AHsAfQAsACIAdABlAHgAdAAtAHQAcgBhAG4AcwBmAG8AcgBtACIAOgB7AH0ALAAiAGMAbwBsAG8AcgAiADoAewB9AH0AfQBdAH0ALAAiAGIAIgA6AHsAIgBBACIAOgBbADgAXQB9ACwAIgBkACIAOgAiAEEAIgAsACIAZwAiADoAZgBhAGwAcwBlACwAIgBoACIAOgAiAEEAIgB9AF0AfQAsAHsAIgBBACIAOgA5ADEAMwAuADAAOQAxADMANgA2ADcAMAA1ADIAOAA1ADQALAAiAEIAIgA6ADcANQAzAC4AOAAxADcAOQA4ADUANgA5ADcANwAzADQAOQAsACIARAAiADoANAAxADIALgAzADYANAAwADIAOAA2ADAANAA1ADMAMAAxACwAIgBDACIAOgAxADEANwAuADgAMQA3ADIANgA2ADUAOAA5ADQAMgA5ADIAMQAsACIARgAiADoAMAAuADIANgAsACIAQQA/ACIAOgAiAEoAIgAsACIAYQAiADoAewAiAEQAIgA6ADYANAAsACIAQwAiADoANgA0AH0ALAAiAGIAIgA6AFsAewAiAEEAIgA6ACIATQAwACAAMABIADYANABWADYANABIADAAegAiACwAIgBCACIAOgB7ACIAQQAiADoAZgBhAGwAcwBlACwAIgBDACIAOgAiACMAZQAyAGUAMgBlADIAIgB9ACwAIgBDACIAOgB7ACIAQQAiADoANAAsACIAQgAiADoAIgAjADAAMAAwADAAMAAwACIALAAiAGYAIgA6AHQAcgB1AGUAfQAsACIARAAiADoANAA1AH0AXQAsACIAYwAiADoAewAiAEEAIgA6AHsAIgBEACIAOgA2ADQALAAiAEMAIgA6ADYANAB9ACwAIgBCACIAOgA4ADEALgA0ADUANAA2ADIAMgA5ADMANAAyADIAOAAxADUALAAiAEMAIgA6ADIAMwAuADIANwAyADUANAA2ADQAOAA2ADgAMAAwADgAMwA0ACwAIgBEACIAOgAiAEEAIgAsACIARQAiADoAIgBBACIAfQAsACIAZQAiADoAewB9ACwAIgBmACIAOgBbAHsAIgBBACIAOgB7ACIAQQAiADoAWwB7ACIAQQA/ACIAOgAiAEEAIgAsACIAQQAiADoAIgBFAG4AdAByAGEAcgBcAG4AIgB9AF0ALAAiAEIAIgA6AFsAewAiAEEAPwAiADoAIgBBACIALAAiAEEAIgA6AHsAIgB0AGUAeAB0AC0AYQBsAGkAZwBuACIAOgB7ACIAQgAiADoAIgBjAGUAbgB0AGUAcgAiAH0ALAAiAGYAbwBuAHQALQBzAGkAegBlACIAOgB7ACIAQgAiADoAIgAyADUALgAzADMAMwAzACIAfQAsACIAZgBvAG4AdAAtAGYAYQBtAGkAbAB5ACIAOgB7ACIAQgAiADoAIgBZAEEARgBkAHQAUQBpADcAMwBYAHMALAAwACIAfQB9AH0ALAB7ACIAQQA/ACIAOgAiAEIAIgAsACIAQQAiADoANgB9ACwAewAiAEEAPwAiADoAIgBBACIALAAiAEEAIgA6AHsAIgBmAG8AbgB0AC0AcwB0AHkAbABlACIAOgB7ACIAQgAiADoAIgBuAG8AcgBtAGEAbAAiAH0ALAAiAGYAbwBuAHQALQB3AGUAaQBnAGgAdAAiADoAewAiAEIAIgA6ACIAbgBvAHIAbQBhAGwAIgB9ACwAIgB0AHIAYQBjAGsAaQBuAGcAIgA6AHsAIgBCACIAOgAiADAALgAwACIAfQAsACIAdABlAHgAdAAtAHQAcgBhAG4AcwBmAG8AcgBtACIAOgB7ACIAQgAiADoAIgBuAG8AbgBlACIAfQAsACIAYwBvAGwAbwByACIAOgB7ACIAQgAiADoAIgAjADAAMAAwADAAMAAwACIAfQAsACIAbABlAGEAZABpAG4AZwAiADoAewAiAEIAIgA6ACIAMQA0ADAAMAAuADAAIgB9AH0AfQAsAHsAIgBBAD8AIgA6ACIAQgAiACwAIgBBACIAOgAxAH0ALAB7ACIAQQA/ACIAOgAiAEEAIgAsACIAQQAiADoAewAiAGYAbwBuAHQALQBmAGEAbQBpAGwAeQAiADoAewB9ACwAIgB0AHIAYQBjAGsAaQBuAGcAIgA6AHsAfQAsACIAbABlAGEAZABpAG4AZwAiADoAewB9ACwAIgB0AGUAeAB0AC0AYQBsAGkAZwBuACIAOgB7AH0ALAAiAGYAbwBuAHQALQB3AGUAaQBnAGgAdAAiADoAewB9ACwAIgB0AGUAeAB0AC0AdAByAGEAbgBzAGYAbwByAG0AIgA6AHsAfQAsACIAYwBvAGwAbwByACIAOgB7AH0ALAAiAGYAbwBuAHQALQBzAHQAeQBsAGUAIgA6AHsAfQAsACIAZgBvAG4AdAAtAHMAaQB6AGUAIgA6AHsAfQB9AH0AXQB9ACwAIgBCACIAOgB7ACIAQQAiADoAWwA3AF0AfQAsACIARAAiADoAewAiAEQAIgA6ADYANAAsACIAQwAiADoANgA0AH0ALAAiAEUAIgA6AFsANABdACwAIgBGACIAOgAiAEIAIgB9AF0ALAAiAGgAIgA6AHsAIgBBAD8AIgA6ACIASAAiACwAIgBBACIAOgAxADEANwAuADgAMQA3ADIANgA2ADUAOAA5ADQAMgA5ADIAMQB9AH0ALAB7ACIAQQAiADoANgA3AC4ANAA5ADIAMgAwADAAMwA3ADkANQAyADkANAAyACwAIgBCACIAOgA3ADUAOQAuADAANwA4ADEAMgA1ACwAIgBEACIAOgA0ADAAMQAuADgANAAzADcANQAsACIAQwAiADoAMQA0ADYALgA0ADYANgA2ACwAIgBBAD8AIgA6ACIASwAiACwAIgBhACIAOgB7ACIAQQAiADoAWwB7ACIAQQA/ACIAOgAiAEEAIgAsACIAQQAiADoAIgBFAG4AdAByAGEAcgBcAG4AIgB9AF0ALAAiAEIAIgA6AFsAewAiAEEAPwAiADoAIgBBACIALAAiAEEAIgA6AHsAIgBmAG8AbgB0AC0AcwBpAHoAZQAiADoAewAiAEIAIgA6ACIAMQAyADIALgA2ADYANwAiAH0ALAAiAGYAbwBuAHQALQB3AGUAaQBnAGgAdAAiADoAewAiAEIAIgA6ACIAYgBvAGwAZAAiAH0ALAAiAHQAZQB4AHQALQBhAGwAaQBnAG4AIgA6AHsAIgBCACIAOgAiAGMAZQBuAHQAZQByACIAfQAsACIAZgBvAG4AdAAtAGYAYQBtAGkAbAB5ACIAOgB7ACIAQgAiADoAIgBZAEEARgBkAHQAUQBpADcAMwBYAHMALAAwACIAfQB9AH0ALAB7ACIAQQA/ACIAOgAiAEIAIgAsACIAQQAiADoANgB9ACwAewAiAEEAPwAiADoAIgBBACIALAAiAEEAIgA6AHsAIgBjAG8AbABvAHIAIgA6AHsAIgBCACIAOgAiACMAMAAwADAAMAAwADAAIgB9ACwAIgBmAG8AbgB0AC0AcwB0AHkAbABlACIAOgB7ACIAQgAiADoAIgBuAG8AcgBtAGEAbAAiAH0AfQB9ACwAewAiAEEAPwAiADoAIgBCACIALAAiAEEAIgA6ADEAfQAsAHsAIgBBAD8AIgA6ACIAQQAiACwAIgBBACIAOgB7ACIAZgBvAG4AdAAtAHMAdAB5AGwAZQAiADoAewB9ACwAIgBmAG8AbgB0AC0AZgBhAG0AaQBsAHkAIgA6AHsAfQAsACIAZgBvAG4AdAAtAHMAaQB6AGUAIgA6AHsAfQAsACIAZgBvAG4AdAAtAHcAZQBpAGcAaAB0ACIAOgB7AH0ALAAiAGMAbwBsAG8AcgAiADoAewB9ACwAIgB0AGUAeAB0AC0AYQBsAGkAZwBuACIAOgB7AH0AfQB9AF0AfQAsACIAYgAiADoAewAiAEEAIgA6AFsANwBdAH0ALAAiAGQAIgA6ACIAQQAiACwAIgBnACIAOgBmAGEAbABzAGUALAAiAGgAIgA6ACIAQgAiAH0AXQB9AF0ALAAiAEIAIgA6ADEAOQAyADAALAAiAEMAIgA6ADEAMAA4ADAAfQA=&quot;&gt;&lt;/span&gt;&lt;/div&gt;&#xa;&#xa;" style="rounded=0;whiteSpace=wrap;html=1;fillColor=#D9D9D9;" parent="1" vertex="1">
          <mxGeometry x="530" y="60" width="340" height="630" as="geometry" />
        </mxCell>
        <mxCell id="v796rnTliUzdl1zem_Hj-15" value="" style="rounded=1;whiteSpace=wrap;html=1;fillColor=#A6A6A6;" parent="1" vertex="1">
          <mxGeometry x="540" y="70" width="320" height="610" as="geometry" />
        </mxCell>
        <mxCell id="v796rnTliUzdl1zem_Hj-5" value="" style="rounded=0;whiteSpace=wrap;html=1;fillColor=#D9D9D9;gradientColor=none;" parent="1" vertex="1">
          <mxGeometry x="136" y="60" width="340" height="630" as="geometry" />
        </mxCell>
        <mxCell id="v796rnTliUzdl1zem_Hj-8" value="&lt;font style=&quot;font-size: 55px;&quot;&gt;LOGO&lt;/font&gt;" style="text;html=1;align=center;verticalAlign=middle;whiteSpace=wrap;rounded=0;fillColor=none;" parent="1" vertex="1">
          <mxGeometry x="230" y="210" width="150" height="70" as="geometry" />
        </mxCell>
        <mxCell id="v796rnTliUzdl1zem_Hj-9" value="LOGIN" style="rounded=1;whiteSpace=wrap;html=1;fillColor=#E2E2E2;" parent="1" vertex="1">
          <mxGeometry x="245" y="480" width="120" height="40" as="geometry" />
        </mxCell>
        <mxCell id="v796rnTliUzdl1zem_Hj-14" value="&lt;span style=&quot;font-size: 55px;&quot;&gt;Entrar&lt;/span&gt;" style="text;html=1;align=center;verticalAlign=middle;whiteSpace=wrap;rounded=0;fillColor=none;" parent="1" vertex="1">
          <mxGeometry x="625" y="190" width="150" height="70" as="geometry" />
        </mxCell>
        <mxCell id="v796rnTliUzdl1zem_Hj-18" value="" style="shape=image;html=1;verticalAlign=top;verticalLabelPosition=bottom;labelBackgroundColor=#ffffff;imageAspect=0;aspect=fixed;image=https://cdn4.iconfinder.com/data/icons/essentials-71/24/008_-_Lock-128.png" parent="1" vertex="1">
          <mxGeometry x="568.75" y="395" width="50" height="50" as="geometry" />
        </mxCell>
        <mxCell id="v796rnTliUzdl1zem_Hj-19" value="" style="sketch=0;outlineConnect=0;fontColor=#232F3E;gradientColor=none;fillColor=#232F3D;strokeColor=none;dashed=0;verticalLabelPosition=bottom;verticalAlign=top;align=center;html=1;fontSize=12;fontStyle=0;aspect=fixed;pointerEvents=1;shape=mxgraph.aws4.user;" parent="1" vertex="1">
          <mxGeometry x="568.75" y="320" width="50" height="50" as="geometry" />
        </mxCell>
        <mxCell id="v796rnTliUzdl1zem_Hj-21" value="" style="rounded=0;whiteSpace=wrap;html=1;" parent="1" vertex="1">
          <mxGeometry x="640" y="330" width="200" height="40" as="geometry" />
        </mxCell>
        <mxCell id="v796rnTliUzdl1zem_Hj-22" value="Nome de UsuÃ¡rio :" style="text;html=1;align=center;verticalAlign=middle;whiteSpace=wrap;rounded=0;" parent="1" vertex="1">
          <mxGeometry x="632" y="307" width="115" height="30" as="geometry" />
        </mxCell>
        <mxCell id="v796rnTliUzdl1zem_Hj-23" value="Senha :" style="text;html=1;align=center;verticalAlign=middle;whiteSpace=wrap;rounded=0;" parent="1" vertex="1">
          <mxGeometry x="603" y="382" width="115" height="30" as="geometry" />
        </mxCell>
        <mxCell id="v796rnTliUzdl1zem_Hj-24" value="" style="rounded=0;whiteSpace=wrap;html=1;" parent="1" vertex="1">
          <mxGeometry x="640" y="405" width="200" height="40" as="geometry" />
        </mxCell>
        <mxCell id="v796rnTliUzdl1zem_Hj-25" value="Entrar" style="rounded=1;whiteSpace=wrap;html=1;fillColor=#E2E2E2;fontSize=16;" parent="1" vertex="1">
          <mxGeometry x="580" y="550" width="120" height="40" as="geometry" />
        </mxCell>
        <mxCell id="v796rnTliUzdl1zem_Hj-28" value="" style="shape=image;html=1;verticalAlign=top;verticalLabelPosition=bottom;labelBackgroundColor=#ffffff;imageAspect=0;aspect=fixed;image=https://cdn1.iconfinder.com/data/icons/web-basic-2/512/720_menu__ui__user_interface_-128.png;fontStyle=1" parent="1" vertex="1">
          <mxGeometry x="1005" y="75" width="50" height="50" as="geometry" />
        </mxCell>
        <mxCell id="v796rnTliUzdl1zem_Hj-33" value="&lt;font style=&quot;font-size: 25px;&quot;&gt;Clique em&amp;nbsp; &amp;nbsp; &amp;nbsp;para ver mais opÃ§Ãµes&lt;/font&gt;" style="text;html=1;align=center;verticalAlign=middle;whiteSpace=wrap;rounded=0;" parent="1" vertex="1">
          <mxGeometry x="1037" y="373" width="260" height="30" as="geometry" />
        </mxCell>
        <mxCell id="v796rnTliUzdl1zem_Hj-37" value="" style="group;strokeWidth=2;" parent="1" vertex="1" connectable="0">
          <mxGeometry x="1167" y="366" width="20" height="20" as="geometry" />
        </mxCell>
        <mxCell id="v796rnTliUzdl1zem_Hj-36" value="" style="rounded=1;whiteSpace=wrap;html=1;fillColor=#A6A6A6;fontStyle=0" parent="v796rnTliUzdl1zem_Hj-37" vertex="1">
          <mxGeometry width="20" height="20" as="geometry" />
        </mxCell>
        <mxCell id="v796rnTliUzdl1zem_Hj-35" value="" style="shape=image;html=1;verticalAlign=top;verticalLabelPosition=bottom;labelBackgroundColor=#ffffff;imageAspect=0;aspect=fixed;image=https://cdn1.iconfinder.com/data/icons/web-basic-2/512/720_menu__ui__user_interface_-128.png;fontStyle=1" parent="v796rnTliUzdl1zem_Hj-37" vertex="1">
          <mxGeometry x="1" y="1" width="18" height="18" as="geometry" />
        </mxCell>
        <mxCell id="v796rnTliUzdl1zem_Hj-41" value="&#xa;&lt;div&gt;&lt;span data-canva-clipboard=&quot;ewAiAGEAIgA6ADUALAAiAGgAIgA6ACIAdwB3AHcALgBjAGEAbgB2AGEALgBjAG8AbQAiACwAIgBjACIAOgAiAEQAQQBHAEcASQBtAHUAMwBEAEIAZwAiACwAIgBpACIAOgAiAHcAMgBBAGIAdgBvADUAawB2AG8AcABxAEYANQA3AC0AdQBzAGYAMwBDAGcAIgAsACIAYgAiADoAMQA3ADEANgA4ADkANAAyADAANAA1ADMAOAAsACIAagAiADoAWwB7AH0ALAB7AH0ALAB7ACIAQQAiADoAewAiAEsAIgA6AHsAfQAsACIARAAiADoAewB9ACwAIgBMACIAOgB7ACIAQQAiADoAWwB7ACIAQQAiADoAewB9ACwAIgBCACIAOgAiAEMAIgB9ACwAewAiAEEAIgA6AHsAfQAsACIAQgAiADoAIgBCACIAfQBdAH0ALAAiAEUAIgA6AHsAfQAsACIARgAiADoAewAiAEEAIgA6ACIASQBkAGUAbgB0AGkAdAB5AC4AcABuAGcAIgAsACIAQgAiADoAMQB9ACwAIgBHACIAOgB7AH0ALAAiAEgAIgA6AHsAIgBCACIAOgAiAG4AbwBuAGUAIgAsACIAQwAiADoAIgAjADAAMAAwADAAMAAwACIALAAiAEQAIgA6ACIAIwBmAGYAZgBmAGYAZgAiAH0ALAAiAEoAIgA6AHsAIgBGACIAOgAiACMAMAAwADAAMAAwADAAIgB9ACwAIgBQACIAOgB7AH0AfQB9ACwAewB9ACwAewB9ACwAewAiAEEAIgA6AHsAIgBLACIAOgB7AH0ALAAiAEQAIgA6AHsAfQAsACIATAAiADoAewAiAEEAIgA6AFsAewAiAEEAIgA6AHsAfQAsACIAQgAiADoAIgBDACIAfQAsAHsAIgBBACIAOgB7AH0ALAAiAEIAIgA6ACIAQgAiAH0AXQB9ACwAIgBFACIAOgB7AH0ALAAiAEYAIgA6AHsAIgBBACIAOgAiAEkAZABlAG4AdABpAHQAeQAuAHAAbgBnACIALAAiAEIAIgA6ADEAfQAsACIARwAiADoAewB9ACwAIgBIACIAOgB7ACIAQgAiADoAIgBuAG8AbgBlACIALAAiAEMAIgA6ACIAIwAwADAAMAAwADAAMAAiACwAIgBEACIAOgAiACMAZgBmAGYAZgBmAGYAIgB9ACwAIgBKACIAOgB7ACIARgAiADoAIgAjADAAMAAwADAAMAAwACIAfQAsACIAUAAiADoAewB9AH0AfQAsAHsAfQBdACwAIgBBAD8AIgA6ACIAQwAiACwAIgBBACIAOgBbAHsAIgBEACIAOgB7ACIAQwAiADoAIgAjAGYAZgBmAGYAZgBmACIAfQAsACIARQAiADoAWwB7ACIAQQAiADoAMgAyAC4AMAA4ADkAMwAyADkAMgAzADEANwA1ADIANgAzACwAIgBCACIAOgAyADUALgA2ADMAMgA5ADMANQAxADYAMAA0ADAAMQAwADcANQAsACIARAAiADoAMQA4ADYAOAAuADcAMwA0ADEAMgA5ADYANwA5ADEAOQA3ADgALAAiAEMAIgA6ADEAMAAzADUALgA4ADIAMQAzADQAMQA1ADMANgA0ADkANAA2ACwAIgBBAD8AIgA6ACIASgAiACwAIgBhACIAOgB7ACIARAAiADoANgA0ACwAIgBDACIAOgA2ADQAfQAsACIAYgAiADoAWwB7ACIAQQAiADoAIgBNADAAIAAwAEgANgA0AFYANgA0AEgAMAB6ACIALAAiAEIAIgA6AHsAIgBBACIAOgBmAGEAbABzAGUALAAiAEMAIgA6ACIAIwBhADYAYQA2AGEANgAiAH0ALAAiAEQAIgA6ADgAMAB9AF0ALAAiAGMAIgA6AHsAIgBBACIAOgB7ACIARAAiADoANgA0ACwAIgBDACIAOgA2ADQAfQAsACIAQgAiADoAMwA2ADkALgAxADMAMgA2ADYANwA1ADkAMAA5ADUAMgA1ADYALAAiAEMAIgA6ADIAMAA0AC4ANgAwADYANgA4ADQANwA0ADcAOQA0ADkANQA0ACwAIgBEACIAOgAiAEEAIgAsACIARQAiADoAIgBBACIAfQAsACIAZQAiADoAewB9ACwAIgBmACIAOgBbAHsAIgBBACIAOgB7ACIAQQAiADoAWwB7ACIAQQA/ACIAOgAiAEEAIgAsACIAQQAiADoAIgBcAG4AIgB9AF0ALAAiAEIAIgA6AFsAewAiAEEAPwAiADoAIgBBACIALAAiAEEAIgA6AHsAIgBmAG8AbgB0AC0AcwBpAHoAZQAiADoAewAiAEIAIgA6ACIAMgA1AC4AMwAzADMAMwAiAH0ALAAiAGYAbwBuAHQALQBmAGEAbQBpAGwAeQAiADoAewAiAEIAIgA6ACIAWQBBAEYAZABKAHQAOABkAEEAWQAwACwAMAAiAH0ALAAiAGMAbwBsAG8AcgAiADoAewAiAEIAIgA6ACIAIwBmAGYAZgBmAGYAZgAiAH0ALAAiAHQAZQB4AHQALQBhAGwAaQBnAG4AIgA6AHsAIgBCACIAOgAiAGMAZQBuAHQAZQByACIAfQAsACIAcwBwAGEAYwBpAG4AZwAiADoAewAiAEIAIgA6ACIAMAAuADAAIgB9AH0AfQAsAHsAIgBBAD8AIgA6ACIAQgAiACwAIgBBACIAOgAxAH0ALAB7ACIAQQA/ACIAOgAiAEEAIgAsACIAQQAiADoAewAiAGYAbwBuAHQALQBzAGkAegBlACIAOgB7AH0ALAAiAGYAbwBuAHQALQBmAGEAbQBpAGwAeQAiADoAewB9ACwAIgBjAG8AbABvAHIAIgA6AHsAfQAsACIAdABlAHgAdAAtAGEAbABpAGcAbgAiADoAewB9ACwAIgBzAHAAYQBjAGkAbgBnACIAOgB7AH0AfQB9AF0AfQAsACIAQgAiADoAewB9ACwAIgBEACIAOgB7ACIARAAiADoANgA0ACwAIgBDACIAOgA2ADQAfQAsACIARQAiADoAWwA0AF0ALAAiAEYAIgA6ACIAQgAiAH0AXQAsACIAaAAiADoAewAiAEEAPwAiADoAIgBIACIALAAiAEEAIgA6ADEAMAAzADUALgA4ADIAMQAzADQAMQA1ADMANgA0ADkANAA2AH0AfQAsAHsAIgBBACIAOgAzADMAOQAuADQAMgA0ADQAMwA5ADkAMQA2ADUAOAA0ADUANgAsACIAQgAiADoAMgA5ADgALgA5ADIAOQAxADEAMgAzADkANwA2ADgANwA2ACwAIgBEACIAOgAxADMAMgAyAC4AMQA0ADEANwA3ADUAMgAwADQANgAyADQAOAAsACIAQwAiADoANAAwADEALgAxADUAMQAxADIAMAAxADYANgA4ADMAMAA2ACwAIgBBAD8AIgA6ACIASAAiACwAIgBiACIAOgAxADMAMgAyAC4AMQA0ADEANwA3ADUAMgAwADQANgAyADQAOAAsACIAYQAiADoANAAwADEALgAxADUAMQAxADIAMAAxADYANgA4ADMAMAA2ACwAIgBjACIAOgBbAHsAIgBBACIAOgA1ADMALgA5ADMAMwAzADQAMAAwADAAMAAwADAAMAAwADYALAAiAEIAIgA6ADEALgAyADcAOAA5ADcANgA5ADIANAAzADYAOAAxADgAMAAzAGUALQAxADMALAAiAEQAIgA6ADEAMwA3AC4ANgAwADAANgA2ADcAOQAxADkAMAA2ADEAMgA0ACwAIgBDACIAOgAxADMANwAuADYAMAAwADYANgA3ADkAMQA5ADAANgAxADIANAAsACIAQQA/ACIAOgAiAEkAIgAsACIAYQAiADoAewAiAEEAIgA6AGYAYQBsAHMAZQAsACIAQgAiADoAewAiAEEAIgA6AHsAIgBBACIAOgAiAE0AQQBHAEcASQAtAGgAWQBIAGsAdwAiACwAIgBCACIAOgAxAH0ALAAiAEIAIgA6AHsAIgBEACIAOgAxADMANwAuADYAMAAwADYANgA3ADkAMQA5ADAANgAxADIANAAsACIAQwAiADoAMQAzADcALgA2ADAAMAA2ADYANwA5ADEAOQAwADYAMQAyADQAfQAsACIAQwAiADoAewAiACMAZgBmAGYAZgBmAGYAIgA6ACIAIwAwADAAMAAwADAAMAAiAH0AfQB9AH0ALAB7ACIAQQAiADoANgAxAC4AOAA5ADkANQA4ADAANQA1ADQAMQA1ADkANAA4ADUALAAiAEIAIgA6ADEANwAwAC4ANAA0ADEANwA3ADUAMgAwADQANgAyADQANQAsACIARAAiADoAMQAxADUAMQAuADcALAAiAEMAIgA6ADEAMQA5AC4AOQA5ADkAOQA5ADkAOQA5ADkAOQA5ADkAOQA0ACwAIgBGACIAOgAwAC4ANAA2ACwAIgBBAD8AIgA6ACIASgAiACwAIgBhACIAOgB7ACIARAAiADoANgA0ACwAIgBDACIAOgA2ADQAfQAsACIAYgAiADoAWwB7ACIAQQAiADoAIgBNADAAIAAwAEgANgA0AFYANgA0AEgAMAB6ACIALAAiAEIAIgA6AHsAIgBBACIAOgBmAGEAbABzAGUALAAiAEMAIgA6ACIAIwBlADIAZQAyAGUAMgAiAH0ALAAiAEMAIgA6AHsAIgBBACIAOgA0ACwAIgBCACIAOgAiACMAMAAwADAAMAAwADAAIgAsACIAZgAiADoAdAByAHUAZQB9AH0AXQAsACIAYwAiADoAewAiAEEAIgA6AHsAIgBEACIAOgA2ADQALAAiAEMAIgA6ADYANAB9ACwAIgBCACIAOgAyADUANwAuADAAMQAyADIAMgA2ADcANgAzADIAOQA5ADAANQAsACIAQwAiADoAMgA2AC4ANwA3ADkAMAA4ADAANgA3ADMANAAzADUANgA3ADIALAAiAEQAIgA6ACIAQQAiACwAIgBFACIAOgAiAEEAIgB9ACwAIgBlACIAOgB7AH0ALAAiAGYAIgA6AFsAewAiAEEAIgA6AHsAIgBBACIAOgBbAHsAIgBBAD8AIgA6ACIAQQAiACwAIgBBACIAOgAiAFwAbgAiAH0AXQAsACIAQgAiADoAWwB7ACIAQQA/ACIAOgAiAEEAIgAsACIAQQAiADoAewAiAGYAbwBuAHQALQBzAGkAegBlACIAOgB7ACIAQgAiADoAIgAyADUALgAzADMAMwAzACIAfQAsACIAdABlAHgAdAAtAHQAcgBhAG4AcwBmAG8AcgBtACIAOgB7ACIAQgAiADoAIgBuAG8AbgBlACIAfQAsACIAdAByAGEAYwBrAGkAbgBnACIAOgB7ACIAQgAiADoAIgAwAC4AMAAiAH0ALAAiAGYAbwBuAHQALQB3AGUAaQBnAGgAdAAiADoAewAiAEIAIgA6ACIAbgBvAHIAbQBhAGwAIgB9ACwAIgBsAGUAYQBkAGkAbgBnACIAOgB7ACIAQgAiADoAIgAxADQAMAAwAC4AMAAiAH0ALAAiAGYAbwBuAHQALQBzAHQAeQBsAGUAIgA6AHsAIgBCACIAOgAiAG4AbwByAG0AYQBsACIAfQAsACIAYwBvAGwAbwByACIAOgB7ACIAQgAiADoAIgAjADAAMAAwADAAMAAwACIAfQAsACIAZgBvAG4AdAAtAGYAYQBtAGkAbAB5ACIAOgB7ACIAQgAiADoAIgBZAEEARgBkAEoAdAA4AGQAQQBZADAALAAwACIAfQB9AH0ALAB7ACIAQQA/ACIAOgAiAEIAIgAsACIAQQAiADoAMQB9ACwAewAiAEEAPwAiADoAIgBBACIALAAiAEEAIgA6AHsAIgBmAG8AbgB0AC0AcwBpAHoAZQAiADoAewB9ACwAIgB0AGUAeAB0AC0AdAByAGEAbgBzAGYAbwByAG0AIgA6AHsAfQAsACIAdAByAGEAYwBrAGkAbgBnACIAOgB7AH0ALAAiAGYAbwBuAHQALQB3AGUAaQBnAGgAdAAiADoAewB9ACwAIgBsAGUAYQBkAGkAbgBnACIAOgB7AH0ALAAiAGYAbwBuAHQALQBzAHQAeQBsAGUAIgA6AHsAfQAsACIAYwBvAGwAbwByACIAOgB7AH0ALAAiAGYAbwBuAHQALQBmAGEAbQBpAGwAeQAiADoAewB9AH0AfQBdAH0ALAAiAEIAIgA6AHsAfQAsACIARAAiADoAewAiAEQAIgA6ADYANAAsACIAQwAiADoANgA0AH0ALAAiAEUAIgA6AFsANABdACwAIgBGACIAOgAiAEIAIgB9AF0ALAAiAGgAIgA6AHsAIgBBAD8AIgA6ACIASAAiACwAIgBBACIAOgAxADEAOQAuADkAOQA5ADkAOQA5ADkAOQA5ADkAOQA5ADkANAB9AH0ALAB7ACIAQQAiADoAMgA3ADcALgA4ADkAOQA5ADgAMAAwADUAOAA3ADcAMwA3ADQALAAiAEIAIgA6ADEANwAwAC4ANAA0ADEANwA3ADUAMgAwADQANgAyADQANwAyACwAIgBEACIAOgAxADEANQAxAC4ANwAwADAAMAAwADAAMAAwADAAMAAwADAAMwAsACIAQwAiADoAMQAxADkALgA5ADkAOQA5ADkAOQA5ADkAOQA5ADkAOQA5ADQALAAiAEYAIgA6ADAALgA0ADYALAAiAEEAPwAiADoAIgBKACIALAAiAGEAIgA6AHsAIgBEACIAOgA2ADQALAAiAEMAIgA6ADYANAB9ACwAIgBiACIAOgBbAHsAIgBBACIAOgAiAE0AMAAgADAASAA2ADQAVgA2ADQASAAwAHoAIgAsACIAQgAiADoAewAiAEEAIgA6AGYAYQBsAHMAZQAsACIAQwAiADoAIgAjAGUAMgBlADIAZQAyACIAfQAsACIAQwAiADoAewAiAEEAIgA6ADQALAAiAEIAIgA6ACIAIwAwADAAMAAwADAAMAAiACwAIgBmACIAOgB0AHIAdQBlAH0AfQBdACwAIgBjACIAOgB7ACIAQQAiADoAewAiAEQAIgA6ADYANAAsACIAQwAiADoANgA0AH0ALAAiAEIAIgA6ADIANQA3AC4AMAAxADIAMgAyADYANwA2ADMAMgA5ADkAMQAsACIAQwAiADoAMgA2AC4ANwA3ADkAMAA4ADAANgA3ADMANAAzADUANgA3ADIALAAiAEQAIgA6ACIAQQAiACwAIgBFACIAOgAiAEEAIgB9ACwAIgBlACIAOgB7AH0ALAAiAGYAIgA6AFsAewAiAEEAIgA6AHsAIgBBACIAOgBbAHsAIgBBAD8AIgA6ACIAQQAiACwAIgBBACIAOgAiAFwAbgAiAH0AXQAsACIAQgAiADoAWwB7ACIAQQA/ACIAOgAiAEEAIgAsACIAQQAiADoAewAiAGYAbwBuAHQALQBzAGkAegBlACIAOgB7ACIAQgAiADoAIgAyADUALgAzADMAMwAzACIAfQAsACIAdABlAHgAdAAtAHQAcgBhAG4AcwBmAG8AcgBtACIAOgB7ACIAQgAiADoAIgBuAG8AbgBlACIAfQAsACIAdAByAGEAYwBrAGkAbgBnACIAOgB7ACIAQgAiADoAIgAwAC4AMAAiAH0ALAAiAGYAbwBuAHQALQB3AGUAaQBnAGgAdAAiADoAewAiAEIAIgA6ACIAbgBvAHIAbQBhAGwAIgB9ACwAIgBsAGUAYQBkAGkAbgBnACIAOgB7ACIAQgAiADoAIgAxADQAMAAwAC4AMAAiAH0ALAAiAGYAbwBuAHQALQBzAHQAeQBsAGUAIgA6AHsAIgBCACIAOgAiAG4AbwByAG0AYQBsACIAfQAsACIAYwBvAGwAbwByACIAOgB7ACIAQgAiADoAIgAjADAAMAAwADAAMAAwACIAfQAsACIAZgBvAG4AdAAtAGYAYQBtAGkAbAB5ACIAOgB7ACIAQgAiADoAIgBZAEEARgBkAHQAUQBpADcAMwBYAHMALAAwACIAfQB9AH0ALAB7ACIAQQA/ACIAOgAiAEIAIgAsACIAQQAiADoAMQB9ACwAewAiAEEAPwAiADoAIgBBACIALAAiAEEAIgA6AHsAIgBmAG8AbgB0AC0AcwBpAHoAZQAiADoAewB9ACwAIgB0AGUAeAB0AC0AdAByAGEAbgBzAGYAbwByAG0AIgA6AHsAfQAsACIAdAByAGEAYwBrAGkAbgBnACIAOgB7AH0ALAAiAGYAbwBuAHQALQB3AGUAaQBnAGgAdAAiADoAewB9ACwAIgBsAGUAYQBkAGkAbgBnACIAOgB7AH0ALAAiAGYAbwBuAHQALQBzAHQAeQBsAGUAIgA6AHsAfQAsACIAYwBvAGwAbwByACIAOgB7AH0ALAAiAGYAbwBuAHQALQBmAGEAbQBpAGwAeQAiADoAewB9AH0AfQBdAH0ALAAiAEIAIgA6AHsAfQAsACIARAAiADoAewAiAEQAIgA6ADYANAAsACIAQwAiADoANgA0AH0ALAAiAEUAIgA6AFsANABdACwAIgBGACIAOgAiAEIAIgB9AF0ALAAiAGgAIgA6AHsAIgBBAD8AIgA6ACIASAAiACwAIgBBACIAOgAxADEAOQAuADkAOQA5ADkAOQA5ADkAOQA5ADkAOQA5ADkANAB9AH0ALAB7ACIAQQAiADoAMgA3ADYALgAzADEANwAwADIANgA3ADYAMQA0ADUAOQA0ACwAIgBCACIAOgAyAC4AMAAxADIAMAA3ADYANQA1ADUANQA5ADIANAAxADUALAAiAEQAIgA6ADEAMgA0AC4AOAAzADQAMAA5ADMANAAwADUAMwA3ADEAMwAzACwAIgBDACIAOgAxADIANAAuADgAMwA0ADAAOQAzADQAMAA1ADMANwAxADMAMwAsACIAQQA/ACIAOgAiAEkAIgAsACIAYQAiADoAewAiAEIAIgA6AHsAIgBBACIAOgB7ACIAQQAiADoAIgBNAEEARwBHAEkAMwBHADQAOQBBAHcAIgAsACIAQgAiADoAMQB9ACwAIgBCACIAOgB7ACIARAAiADoAMQAyADQALgA4ADMANAAwADkAMwA0ADAANQAzADcAMQAzADMALAAiAEMAIgA6ADEAMgA0AC4AOAAzADQAMAA5ADMANAAwADUAMwA3ADEAMwAzAH0ALAAiAEMAIgA6AHsAIgAjAGYAZgBmAGYAZgBmACIAOgAiACMAMAAwADAAMAAwADAAIgB9AH0AfQB9ACwAewAiAEEAIgA6ADcALgA4ADEANQA5ADcAMAAwADkAMwAzADYAMQAxADAAMgBlAC0AMQA0ACwAIgBCACIAOgAxADcAMAAuADQAMAA4ADkANQAyADgAOQA4ADQAMAA2ADQAOAAsACIARAAiADoANAAzADcALgA2ADQAMwA2ADQANwA1ADAAMgAwADkANwA1ADYALAAiAEMAIgA6ADUAMwAuADkAMwAzADMANAAsACIAQQA/ACIAOgAiAEsAIgAsACIAYQAiADoAewAiAEEAIgA6AFsAewAiAEEAPwAiADoAIgBBACIALAAiAEEAIgA6ACIATgBvAG0AZQAgAGQAZQAgAFUAcwB1AOEAcgBpAG8AIAA6AFwAbgAiAH0AXQAsACIAQgAiADoAWwB7ACIAQQA/ACIAOgAiAEEAIgAsACIAQQAiADoAewAiAHQAZQB4AHQALQBhAGwAaQBnAG4AIgA6AHsAIgBCACIAOgAiAGMAZQBuAHQAZQByACIAfQAsACIAZgBvAG4AdAAtAHMAaQB6AGUAIgA6AHsAIgBCACIAOgAiADQANQAuADMAMwAzADMAIgB9ACwAIgBmAG8AbgB0AC0AZgBhAG0AaQBsAHkAIgA6AHsAIgBCACIAOgAiAFkAQQBGAGQAdABRAGkANwAzAFgAcwAsADAAIgB9AH0AfQAsAHsAIgBBAD8AIgA6ACIAQgAiACwAIgBBACIAOgAxADcAfQAsAHsAIgBBAD8AIgA6ACIAQQAiACwAIgBBACIAOgB7ACIAYwBvAGwAbwByACIAOgB7ACIAQgAiADoAIgAjADAAMAAwADAAMAAwACIAfQAsACIAcwBwAGEAYwBpAG4AZwAiADoAewAiAEIAIgA6ACIAMAAuADAAIgB9ACwAIgB0AGUAeAB0AC0AdAByAGEAbgBzAGYAbwByAG0AIgA6AHsAIgBCACIAOgAiAG4AbwBuAGUAIgB9ACwAIgBkAGUAYwBvAHIAYQB0AGkAbwBuACIAOgB7ACIAQgAiADoAIgBuAG8AbgBlACIAfQAsACIAcwB0AHIAaQBrAGUAdABoAHIAbwB1AGcAaAAiADoAewAiAEIAIgA6ACIAbgBvAG4AZQAiAH0ALAAiAGwAaQBuAGsAIgA6AHsAIgBCACIAOgAiACIAfQAsACIAbABpAHMAdAAtAG0AYQByAGsAZQByACIAOgB7ACIAQgAiADoAIgBuAG8AbgBlACIAfQAsACIAbABlAGEAZABpAG4AZwAiADoAewAiAEIAIgA6ACIAMQA0ADAAMAAuADAAIgB9ACwAIgB0AHIAYQBjAGsAaQBuAGcAIgA6AHsAIgBCACIAOgAiADAALgAwACIAfQAsACIAcwB0AHkAbABlACIAOgB7ACIAQgAiADoAIgBiAG8AZAB5ACIAfQAsACIAawBlAHIAbgBpAG4AZwAiADoAewAiAEIAIgA6ACIAMAAuADAAIgB9ACwAIgBsAGkAcwB0AC0AbABlAHYAZQBsACIAOgB7ACIAQgAiADoAIgAwAC4AMAAiAH0ALAAiAGgAZQBhAGQALQBpAG4AZABlAG4AdAAiADoAewAiAEIAIgA6ACIAMAAuADAAIgB9AH0AfQAsAHsAIgBBAD8AIgA6ACIAQgAiACwAIgBBACIAOgAxAH0ALAB7ACIAQQA/ACIAOgAiAEEAIgAsACIAQQAiADoAewAiAGYAbwBuAHQALQBzAGkAegBlACIAOgB7AH0ALAAiAGwAaQBuAGsAIgA6AHsAfQAsACIAaABlAGEAZAAtAGkAbgBkAGUAbgB0ACIAOgB7AH0ALAAiAHQAcgBhAGMAawBpAG4AZwAiADoAewB9ACwAIgBsAGkAcwB0AC0AbABlAHYAZQBsACIAOgB7AH0ALAAiAHMAdAByAGkAawBlAHQAaAByAG8AdQBnAGgAIgA6AHsAfQAsACIAcwB0AHkAbABlACIAOgB7AH0ALAAiAGQAZQBjAG8AcgBhAHQAaQBvAG4AIgA6AHsAfQAsACIAdABlAHgAdAAtAHQAcgBhAG4AcwBmAG8AcgBtACIAOgB7AH0ALAAiAGsAZQByAG4AaQBuAGcAIgA6AHsAfQAsACIAbABpAHMAdAAtAG0AYQByAGsAZQByACIAOgB7AH0ALAAiAGwAZQBhAGQAaQBuAGcAIgA6AHsAfQAsACIAdABlAHgAdAAtAGEAbABpAGcAbgAiADoAewB9ACwAIgBzAHAAYQBjAGkAbgBnACIAOgB7AH0ALAAiAGMAbwBsAG8AcgAiADoAewB9ACwAIgBmAG8AbgB0AC0AZgBhAG0AaQBsAHkAIgA6AHsAfQB9AH0AXQB9ACwAIgBiACIAOgB7ACIAQQAiADoAWwAxADgAXQB9ACwAIgBkACIAOgAiAEEAIgAsACIAZwAiADoAZgBhAGwAcwBlACwAIgBoACIAOgAiAEEAIgB9ACwAewAiAEEAIgA6ADIAMQA2AC4AMAAwADAAMwA5ADkANQAwADQANgAxADQANAAyACwAIgBCACIAOgAxADcAMAAuADQAMAA4ADkANQAyADgAOQA4ADQAMAA2ADQAOAAsACIARAAiADoAMQA5ADQALgAxADEAOAAxADIAMgA5ADAAMgA2ADAAMAA4ADUALAAiAEMAIgA6ADUAMwAuADkAMwAzADMANAAsACIAQQA/ACIAOgAiAEsAIgAsACIAYQAiADoAewAiAEEAIgA6AFsAewAiAEEAPwAiADoAIgBBACIALAAiAEEAIgA6ACIAUwBlAG4AaABhACAAOgBcAG4AIgB9AF0ALAAiAEIAIgA6AFsAewAiAEEAPwAiADoAIgBBACIALAAiAEEAIgA6AHsAIgB0AGUAeAB0AC0AYQBsAGkAZwBuACIAOgB7ACIAQgAiADoAIgBjAGUAbgB0AGUAcgAiAH0ALAAiAGYAbwBuAHQALQBzAGkAegBlACIAOgB7ACIAQgAiADoAIgA0ADUALgAzADMAMwAzACIAfQAsACIAZgBvAG4AdAAtAGYAYQBtAGkAbAB5ACIAOgB7ACIAQgAiADoAIgBZAEEARgBkAHQAUQBpADcAMwBYAHMALAAwACIAfQB9AH0ALAB7ACIAQQA/ACIAOgAiAEIAIgAsACIAQQAiADoANwB9ACwAewAiAEEAPwAiADoAIgBBACIALAAiAEEAIgA6AHsAIgBmAG8AbgB0AC0AcwB0AHkAbABlACIAOgB7ACIAQgAiADoAIgBuAG8AcgBtAGEAbAAiAH0ALAAiAHQAZQB4AHQALQB0AHIAYQBuAHMAZgBvAHIAbQAiADoAewAiAEIAIgA6ACIAbgBvAG4AZQAiAH0ALAAiAGwAZQBhAGQAaQBuAGcAIgA6AHsAIgBCACIAOgAiADEANAAwADAALgAwACIAfQAsACIAbABpAHMAdAAtAGwAZQB2AGUAbAAiADoAewAiAEIAIgA6ACIAMAAuADAAIgB9ACwAIgBrAGUAcgBuAGkAbgBnACIAOgB7ACIAQgAiADoAIgAwAC4AMAAiAH0ALAAiAHMAdAB5AGwAZQAiADoAewAiAEIAIgA6ACIAYgBvAGQAeQAiAH0ALAAiAHMAdAByAGkAawBlAHQAaAByAG8AdQBnAGgAIgA6AHsAIgBCACIAOgAiAG4AbwBuAGUAIgB9ACwAIgBmAG8AbgB0AC0AdwBlAGkAZwBoAHQAIgA6AHsAIgBCACIAOgAiAG4AbwByAG0AYQBsACIAfQAsACIAcwBwAGEAYwBpAG4AZwAiADoAewAiAEIAIgA6ACIAMAAuADAAIgB9ACwAIgBsAGkAbgBrACIAOgB7ACIAQgAiADoAIgAiAH0ALAAiAHQAcgBhAGMAawBpAG4AZwAiADoAewAiAEIAIgA6ACIAMAAuADAAIgB9ACwAIgBkAGUAYwBvAHIAYQB0AGkAbwBuACIAOgB7ACIAQgAiADoAIgBuAG8AbgBlACIAfQAsACIAaABlAGEAZAAtAGkAbgBkAGUAbgB0ACIAOgB7ACIAQgAiADoAIgAwAC4AMAAiAH0ALAAiAGMAbwBsAG8AcgAiADoAewAiAEIAIgA6ACIAIwAwADAAMAAwADAAMAAiAH0ALAAiAGwAaQBzAHQALQBtAGEAcgBrAGUAcgAiADoAewAiAEIAIgA6ACIAbgBvAG4AZQAiAH0AfQB9ACwAewAiAEEAPwAiADoAIgBCACIALAAiAEEAIgA6ADEAfQAsAHsAIgBBAD8AIgA6ACIAQQAiACwAIgBBACIAOgB7ACIAcwBwAGEAYwBpAG4AZwAiADoAewB9ACwAIgBoAGUAYQBkAC0AaQBuAGQAZQBuAHQAIgA6AHsAfQAsACIAawBlAHIAbgBpAG4AZwAiADoAewB9ACwAIgBsAGkAcwB0AC0AbQBhAHIAawBlAHIAIgA6AHsAfQAsACIAbABpAG4AawAiADoAewB9ACwAIgBzAHQAeQBsAGUAIgA6AHsAfQAsACIAZgBvAG4AdAAtAHMAdAB5AGwAZQAiADoAewB9ACwAIgBmAG8AbgB0AC0AcwBpAHoAZQAiADoAewB9ACwAIgBmAG8AbgB0AC0AZgBhAG0AaQBsAHkAIgA6AHsAfQAsACIAdABlAHgAdAAtAGEAbABpAGcAbgAiADoAewB9ACwAIgB0AHIAYQBjAGsAaQBuAGcAIgA6AHsAfQAsACIAbABlAGEAZABpAG4AZwAiADoAewB9ACwAIgBsAGkAcwB0AC0AbABlAHYAZQBsACIAOgB7AH0ALAAiAHMAdAByAGkAawBlAHQAaAByAG8AdQBnAGgAIgA6AHsAfQAsACIAZgBvAG4AdAAtAHcAZQBpAGcAaAB0ACIAOgB7AH0ALAAiAGQAZQBjAG8AcgBhAHQAaQBvAG4AIgA6AHsAfQAsACIAdABlAHgAdAAtAHQAcgBhAG4AcwBmAG8AcgBtACIAOgB7AH0ALAAiAGMAbwBsAG8AcgAiADoAewB9AH0AfQBdAH0ALAAiAGIAIgA6AHsAIgBBACIAOgBbADgAXQB9ACwAIgBkACIAOgAiAEEAIgAsACIAZwAiADoAZgBhAGwAcwBlACwAIgBoACIAOgAiAEEAIgB9AF0AfQAsAHsAIgBBACIAOgA5ADEAMwAuADAAOQAxADMANgA2ADcAMAA1ADIAOAA1ADQALAAiAEIAIgA6ADcANQAzAC4AOAAxADcAOQA4ADUANgA5ADcANwAzADQAOQAsACIARAAiADoANAAxADIALgAzADYANAAwADIAOAA2ADAANAA1ADMAMAAxACwAIgBDACIAOgAxADEANwAuADgAMQA3ADIANgA2ADUAOAA5ADQAMgA5ADIAMQAsACIARgAiADoAMAAuADIANgAsACIAQQA/ACIAOgAiAEoAIgAsACIAYQAiADoAewAiAEQAIgA6ADYANAAsACIAQwAiADoANgA0AH0ALAAiAGIAIgA6AFsAewAiAEEAIgA6ACIATQAwACAAMABIADYANABWADYANABIADAAegAiACwAIgBCACIAOgB7ACIAQQAiADoAZgBhAGwAcwBlACwAIgBDACIAOgAiACMAZQAyAGUAMgBlADIAIgB9ACwAIgBDACIAOgB7ACIAQQAiADoANAAsACIAQgAiADoAIgAjADAAMAAwADAAMAAwACIALAAiAGYAIgA6AHQAcgB1AGUAfQAsACIARAAiADoANAA1AH0AXQAsACIAYwAiADoAewAiAEEAIgA6AHsAIgBEACIAOgA2ADQALAAiAEMAIgA6ADYANAB9ACwAIgBCACIAOgA4ADEALgA0ADUANAA2ADIAMgA5ADMANAAyADIAOAAxADUALAAiAEMAIgA6ADIAMwAuADIANwAyADUANAA2ADQAOAA2ADgAMAAwADgAMwA0ACwAIgBEACIAOgAiAEEAIgAsACIARQAiADoAIgBBACIAfQAsACIAZQAiADoAewB9ACwAIgBmACIAOgBbAHsAIgBBACIAOgB7ACIAQQAiADoAWwB7ACIAQQA/ACIAOgAiAEEAIgAsACIAQQAiADoAIgBFAG4AdAByAGEAcgBcAG4AIgB9AF0ALAAiAEIAIgA6AFsAewAiAEEAPwAiADoAIgBBACIALAAiAEEAIgA6AHsAIgB0AGUAeAB0AC0AYQBsAGkAZwBuACIAOgB7ACIAQgAiADoAIgBjAGUAbgB0AGUAcgAiAH0ALAAiAGYAbwBuAHQALQBzAGkAegBlACIAOgB7ACIAQgAiADoAIgAyADUALgAzADMAMwAzACIAfQAsACIAZgBvAG4AdAAtAGYAYQBtAGkAbAB5ACIAOgB7ACIAQgAiADoAIgBZAEEARgBkAHQAUQBpADcAMwBYAHMALAAwACIAfQB9AH0ALAB7ACIAQQA/ACIAOgAiAEIAIgAsACIAQQAiADoANgB9ACwAewAiAEEAPwAiADoAIgBBACIALAAiAEEAIgA6AHsAIgBmAG8AbgB0AC0AcwB0AHkAbABlACIAOgB7ACIAQgAiADoAIgBuAG8AcgBtAGEAbAAiAH0ALAAiAGYAbwBuAHQALQB3AGUAaQBnAGgAdAAiADoAewAiAEIAIgA6ACIAbgBvAHIAbQBhAGwAIgB9ACwAIgB0AHIAYQBjAGsAaQBuAGcAIgA6AHsAIgBCACIAOgAiADAALgAwACIAfQAsACIAdABlAHgAdAAtAHQAcgBhAG4AcwBmAG8AcgBtACIAOgB7ACIAQgAiADoAIgBuAG8AbgBlACIAfQAsACIAYwBvAGwAbwByACIAOgB7ACIAQgAiADoAIgAjADAAMAAwADAAMAAwACIAfQAsACIAbABlAGEAZABpAG4AZwAiADoAewAiAEIAIgA6ACIAMQA0ADAAMAAuADAAIgB9AH0AfQAsAHsAIgBBAD8AIgA6ACIAQgAiACwAIgBBACIAOgAxAH0ALAB7ACIAQQA/ACIAOgAiAEEAIgAsACIAQQAiADoAewAiAGYAbwBuAHQALQBmAGEAbQBpAGwAeQAiADoAewB9ACwAIgB0AHIAYQBjAGsAaQBuAGcAIgA6AHsAfQAsACIAbABlAGEAZABpAG4AZwAiADoAewB9ACwAIgB0AGUAeAB0AC0AYQBsAGkAZwBuACIAOgB7AH0ALAAiAGYAbwBuAHQALQB3AGUAaQBnAGgAdAAiADoAewB9ACwAIgB0AGUAeAB0AC0AdAByAGEAbgBzAGYAbwByAG0AIgA6AHsAfQAsACIAYwBvAGwAbwByACIAOgB7AH0ALAAiAGYAbwBuAHQALQBzAHQAeQBsAGUAIgA6AHsAfQAsACIAZgBvAG4AdAAtAHMAaQB6AGUAIgA6AHsAfQB9AH0AXQB9ACwAIgBCACIAOgB7ACIAQQAiADoAWwA3AF0AfQAsACIARAAiADoAewAiAEQAIgA6ADYANAAsACIAQwAiADoANgA0AH0ALAAiAEUAIgA6AFsANABdACwAIgBGACIAOgAiAEIAIgB9AF0ALAAiAGgAIgA6AHsAIgBBAD8AIgA6ACIASAAiACwAIgBBACIAOgAxADEANwAuADgAMQA3ADIANgA2ADUAOAA5ADQAMgA5ADIAMQB9AH0ALAB7ACIAQQAiADoANgA3AC4ANAA5ADIAMgAwADAAMwA3ADkANQAyADkANAAyACwAIgBCACIAOgA3ADUAOQAuADAANwA4ADEAMgA1ACwAIgBEACIAOgA0ADAAMQAuADgANAAzADcANQAsACIAQwAiADoAMQA0ADYALgA0ADYANgA2ACwAIgBBAD8AIgA6ACIASwAiACwAIgBhACIAOgB7ACIAQQAiADoAWwB7ACIAQQA/ACIAOgAiAEEAIgAsACIAQQAiADoAIgBFAG4AdAByAGEAcgBcAG4AIgB9AF0ALAAiAEIAIgA6AFsAewAiAEEAPwAiADoAIgBBACIALAAiAEEAIgA6AHsAIgBmAG8AbgB0AC0AcwBpAHoAZQAiADoAewAiAEIAIgA6ACIAMQAyADIALgA2ADYANwAiAH0ALAAiAGYAbwBuAHQALQB3AGUAaQBnAGgAdAAiADoAewAiAEIAIgA6ACIAYgBvAGwAZAAiAH0ALAAiAHQAZQB4AHQALQBhAGwAaQBnAG4AIgA6AHsAIgBCACIAOgAiAGMAZQBuAHQAZQByACIAfQAsACIAZgBvAG4AdAAtAGYAYQBtAGkAbAB5ACIAOgB7ACIAQgAiADoAIgBZAEEARgBkAHQAUQBpADcAMwBYAHMALAAwACIAfQB9AH0ALAB7ACIAQQA/ACIAOgAiAEIAIgAsACIAQQAiADoANgB9ACwAewAiAEEAPwAiADoAIgBBACIALAAiAEEAIgA6AHsAIgBjAG8AbABvAHIAIgA6AHsAIgBCACIAOgAiACMAMAAwADAAMAAwADAAIgB9ACwAIgBmAG8AbgB0AC0AcwB0AHkAbABlACIAOgB7ACIAQgAiADoAIgBuAG8AcgBtAGEAbAAiAH0AfQB9ACwAewAiAEEAPwAiADoAIgBCACIALAAiAEEAIgA6ADEAfQAsAHsAIgBBAD8AIgA6ACIAQQAiACwAIgBBACIAOgB7ACIAZgBvAG4AdAAtAHMAdAB5AGwAZQAiADoAewB9ACwAIgBmAG8AbgB0AC0AZgBhAG0AaQBsAHkAIgA6AHsAfQAsACIAZgBvAG4AdAAtAHMAaQB6AGUAIgA6AHsAfQAsACIAZgBvAG4AdAAtAHcAZQBpAGcAaAB0ACIAOgB7AH0ALAAiAGMAbwBsAG8AcgAiADoAewB9ACwAIgB0AGUAeAB0AC0AYQBsAGkAZwBuACIAOgB7AH0AfQB9AF0AfQAsACIAYgAiADoAewAiAEEAIgA6AFsANwBdAH0ALAAiAGQAIgA6ACIAQQAiACwAIgBnACIAOgBmAGEAbABzAGUALAAiAGgAIgA6ACIAQgAiAH0AXQB9AF0ALAAiAEIAIgA6ADEAOQAyADAALAAiAEMAIgA6ADEAMAA4ADAAfQA=&quot;&gt;&lt;/span&gt;&lt;/div&gt;&#xa;&#xa;" style="rounded=0;whiteSpace=wrap;html=1;fillColor=#D9D9D9;movable=1;resizable=1;rotatable=1;deletable=1;editable=1;locked=0;connectable=1;" parent="1" vertex="1">
          <mxGeometry x="990" y="920" width="340" height="630" as="geometry" />
        </mxCell>
        <mxCell id="v796rnTliUzdl1zem_Hj-42" value="" style="rounded=0;whiteSpace=wrap;html=1;fillColor=#A6A6A6;fontStyle=0;gradientColor=none;" parent="1" vertex="1">
          <mxGeometry x="990" y="920" width="150" height="630" as="geometry" />
        </mxCell>
        <mxCell id="v796rnTliUzdl1zem_Hj-49" value="" style="shape=image;html=1;verticalAlign=top;verticalLabelPosition=bottom;labelBackgroundColor=#ffffff;imageAspect=0;aspect=fixed;image=https://cdn1.iconfinder.com/data/icons/web-basic-2/512/720_menu__ui__user_interface_-128.png;fontStyle=1" parent="1" vertex="1">
          <mxGeometry x="1005" y="940" width="50" height="50" as="geometry" />
        </mxCell>
        <mxCell id="v796rnTliUzdl1zem_Hj-54" value="" style="triangle;whiteSpace=wrap;html=1;rotation=90;fillColor=none;fontSize=18;" parent="1" vertex="1">
          <mxGeometry x="996" y="1056.5" width="15" height="15" as="geometry" />
        </mxCell>
        <mxCell id="v796rnTliUzdl1zem_Hj-55" value="Estoque" style="text;html=1;align=center;verticalAlign=middle;whiteSpace=wrap;rounded=0;fontSize=19;" parent="1" vertex="1">
          <mxGeometry x="1018" y="1050" width="60" height="30" as="geometry" />
        </mxCell>
        <mxCell id="26vUE4dLXjxIYAb9QyYs-1" value="&lt;ul&gt;&lt;li&gt;Entrada&lt;/li&gt;&lt;li&gt;SaÃ­da&amp;nbsp;&lt;/li&gt;&lt;/ul&gt;" style="text;html=1;align=left;verticalAlign=middle;whiteSpace=wrap;rounded=0;" parent="1" vertex="1">
          <mxGeometry x="971" y="1080" width="90" height="30" as="geometry" />
        </mxCell>
        <mxCell id="26vUE4dLXjxIYAb9QyYs-6" value="FinanÃ§as" style="text;html=1;align=center;verticalAlign=middle;whiteSpace=wrap;rounded=0;fontSize=19;" parent="1" vertex="1">
          <mxGeometry x="1022" y="1120" width="60" height="30" as="geometry" />
        </mxCell>
        <mxCell id="26vUE4dLXjxIYAb9QyYs-7" value="" style="triangle;whiteSpace=wrap;html=1;rotation=90;fillColor=none;fontSize=18;" parent="1" vertex="1">
          <mxGeometry x="997" y="1126.5" width="15" height="15" as="geometry" />
        </mxCell>
        <mxCell id="26vUE4dLXjxIYAb9QyYs-8" value="&lt;ul&gt;&lt;li&gt;Contas a&amp;nbsp; ver&lt;/li&gt;&lt;li&gt;Contas a receber&lt;/li&gt;&lt;/ul&gt;" style="text;html=1;align=left;verticalAlign=middle;whiteSpace=wrap;rounded=0;" parent="1" vertex="1">
          <mxGeometry x="970" y="1150" width="143" height="30" as="geometry" />
        </mxCell>
        <mxCell id="26vUE4dLXjxIYAb9QyYs-10" value="" style="rounded=1;whiteSpace=wrap;html=1;fillColor=#A6A6A6;fontStyle=0" parent="1" vertex="1">
          <mxGeometry x="554" y="930" width="60" height="60" as="geometry" />
        </mxCell>
        <mxCell id="26vUE4dLXjxIYAb9QyYs-11" value="" style="shape=image;html=1;verticalAlign=top;verticalLabelPosition=bottom;labelBackgroundColor=#ffffff;imageAspect=0;aspect=fixed;image=https://cdn1.iconfinder.com/data/icons/web-basic-2/512/720_menu__ui__user_interface_-128.png;fontStyle=1" parent="1" vertex="1">
          <mxGeometry x="560" y="935" width="50" height="50" as="geometry" />
        </mxCell>
        <mxCell id="26vUE4dLXjxIYAb9QyYs-13" value="&lt;span style=&quot;font-size: 55px;&quot;&gt;Contas a ver&lt;/span&gt;" style="text;html=1;align=center;verticalAlign=middle;whiteSpace=wrap;rounded=0;fillColor=none;" parent="1" vertex="1">
          <mxGeometry x="610" y="1009" width="220" height="70" as="geometry" />
        </mxCell>
        <mxCell id="26vUE4dLXjxIYAb9QyYs-14" value="" style="rounded=1;whiteSpace=wrap;html=1;" parent="1" vertex="1">
          <mxGeometry x="584" y="1161.75" width="255" height="108.5" as="geometry" />
        </mxCell>
        <mxCell id="26vUE4dLXjxIYAb9QyYs-23" value="" style="shape=image;html=1;verticalAlign=top;verticalLabelPosition=bottom;labelBackgroundColor=#ffffff;imageAspect=0;aspect=fixed;image=https://cdn4.iconfinder.com/data/icons/ionicons/512/icon-plus-round-128.png;direction=east;rotation=0;" parent="1" vertex="1">
          <mxGeometry x="832" y="1498" width="49" height="49" as="geometry" />
        </mxCell>
        <mxCell id="26vUE4dLXjxIYAb9QyYs-24" value="Pedro" style="text;html=1;align=center;verticalAlign=middle;whiteSpace=wrap;rounded=0;fontSize=25;" parent="1" vertex="1">
          <mxGeometry x="640" y="1168.5" width="129" height="40" as="geometry" />
        </mxCell>
        <mxCell id="26vUE4dLXjxIYAb9QyYs-25" style="edgeStyle=orthogonalEdgeStyle;rounded=0;orthogonalLoop=1;jettySize=auto;html=1;exitX=0.5;exitY=1;exitDx=0;exitDy=0;" parent="1" source="26vUE4dLXjxIYAb9QyYs-24" target="26vUE4dLXjxIYAb9QyYs-24" edge="1">
          <mxGeometry relative="1" as="geometry" />
        </mxCell>
        <mxCell id="26vUE4dLXjxIYAb9QyYs-26" value="" style="endArrow=none;html=1;rounded=0;entryX=1;entryY=0.5;entryDx=0;entryDy=0;exitX=0;exitY=0.5;exitDx=0;exitDy=0;" parent="1" source="26vUE4dLXjxIYAb9QyYs-14" target="26vUE4dLXjxIYAb9QyYs-14" edge="1">
          <mxGeometry width="50" height="50" relative="1" as="geometry">
            <mxPoint x="708.5" y="1277" as="sourcePoint" />
            <mxPoint x="758.5" y="1227" as="targetPoint" />
            <Array as="points" />
          </mxGeometry>
        </mxCell>
        <mxCell id="26vUE4dLXjxIYAb9QyYs-28" value="Valor: R$ xx, xx&lt;div style=&quot;font-size: 17px;&quot;&gt;Data: xx/xx/xxxx&lt;/div&gt;" style="text;html=1;align=left;verticalAlign=middle;whiteSpace=wrap;rounded=0;fontSize=17;" parent="1" vertex="1">
          <mxGeometry x="587" y="1219" width="127" height="40" as="geometry" />
        </mxCell>
        <mxCell id="26vUE4dLXjxIYAb9QyYs-29" value="" style="shape=image;html=1;verticalAlign=top;verticalLabelPosition=bottom;labelBackgroundColor=#ffffff;imageAspect=0;aspect=fixed;image=https://cdn4.iconfinder.com/data/icons/ionicons/512/icon-trash-a-128.png" parent="1" vertex="1">
          <mxGeometry x="773" y="1240.25" width="30" height="30" as="geometry" />
        </mxCell>
        <mxCell id="26vUE4dLXjxIYAb9QyYs-31" value="" style="shape=image;html=1;verticalAlign=top;verticalLabelPosition=bottom;labelBackgroundColor=#ffffff;imageAspect=0;aspect=fixed;image=https://cdn1.iconfinder.com/data/icons/material-core/18/check-box-128.png" parent="1" vertex="1">
          <mxGeometry x="805" y="1245" width="21.5" height="21.5" as="geometry" />
        </mxCell>
        <mxCell id="26vUE4dLXjxIYAb9QyYs-32" value="Luiz" style="text;html=1;align=center;verticalAlign=middle;whiteSpace=wrap;rounded=0;fontSize=25;" parent="1" vertex="1">
          <mxGeometry x="640" y="1293.75" width="129" height="40" as="geometry" />
        </mxCell>
        <mxCell id="26vUE4dLXjxIYAb9QyYs-33" value="Valor: R$ xx, xx&lt;div style=&quot;font-size: 17px;&quot;&gt;Data: xx/xx/xxxx&lt;/div&gt;" style="text;html=1;align=left;verticalAlign=middle;whiteSpace=wrap;rounded=0;fontSize=17;" parent="1" vertex="1">
          <mxGeometry x="587" y="1344.25" width="127" height="40" as="geometry" />
        </mxCell>
        <mxCell id="26vUE4dLXjxIYAb9QyYs-35" value="" style="shape=image;html=1;verticalAlign=top;verticalLabelPosition=bottom;labelBackgroundColor=#ffffff;imageAspect=0;aspect=fixed;image=https://cdn4.iconfinder.com/data/icons/ionicons/512/icon-trash-a-128.png" parent="1" vertex="1">
          <mxGeometry x="773" y="1365.5" width="30" height="30" as="geometry" />
        </mxCell>
        <mxCell id="26vUE4dLXjxIYAb9QyYs-36" value="" style="shape=image;html=1;verticalAlign=top;verticalLabelPosition=bottom;labelBackgroundColor=#ffffff;imageAspect=0;aspect=fixed;image=https://cdn1.iconfinder.com/data/icons/material-core/18/check-box-128.png" parent="1" vertex="1">
          <mxGeometry x="805" y="1370.25" width="21.5" height="21.5" as="geometry" />
        </mxCell>
        <mxCell id="26vUE4dLXjxIYAb9QyYs-37" value="" style="endArrow=none;html=1;rounded=0;entryX=1;entryY=0.5;entryDx=0;entryDy=0;exitX=0;exitY=0.5;exitDx=0;exitDy=0;" parent="1" edge="1">
          <mxGeometry width="50" height="50" relative="1" as="geometry">
            <mxPoint x="584" y="1333.75" as="sourcePoint" />
            <mxPoint x="839" y="1333.75" as="targetPoint" />
            <Array as="points" />
          </mxGeometry>
        </mxCell>
        <mxCell id="26vUE4dLXjxIYAb9QyYs-52" value="&lt;span style=&quot;font-size: 55px;&quot;&gt;Adicionar&lt;/span&gt;" style="text;html=1;align=center;verticalAlign=middle;whiteSpace=wrap;rounded=0;fillColor=none;" parent="1" vertex="1">
          <mxGeometry x="194" y="998" width="220" height="70" as="geometry" />
        </mxCell>
        <mxCell id="26vUE4dLXjxIYAb9QyYs-54" value="Nome :&amp;nbsp;" style="text;html=1;align=center;verticalAlign=middle;whiteSpace=wrap;rounded=0;fontSize=18;" parent="1" vertex="1">
          <mxGeometry x="150" y="1131.75" width="70" height="30" as="geometry" />
        </mxCell>
        <mxCell id="26vUE4dLXjxIYAb9QyYs-55" value="Pedro de Souza Lima" style="rounded=0;whiteSpace=wrap;html=1;align=left;" parent="1" vertex="1">
          <mxGeometry x="230" y="1129" width="200" height="40" as="geometry" />
        </mxCell>
        <mxCell id="26vUE4dLXjxIYAb9QyYs-56" value="Cancelar" style="rounded=1;whiteSpace=wrap;html=1;fillColor=#E2E2E2;fontSize=16;" parent="1" vertex="1">
          <mxGeometry x="718" y="550" width="120" height="40" as="geometry" />
        </mxCell>
        <mxCell id="26vUE4dLXjxIYAb9QyYs-57" value="Valor&amp;nbsp; :&amp;nbsp;" style="text;html=1;align=center;verticalAlign=middle;whiteSpace=wrap;rounded=0;fontSize=18;" parent="1" vertex="1">
          <mxGeometry x="150" y="1189" width="70" height="30" as="geometry" />
        </mxCell>
        <mxCell id="26vUE4dLXjxIYAb9QyYs-58" value="&lt;div style=&quot;&quot;&gt;&lt;span style=&quot;background-color: initial;&quot;&gt;R$:&amp;nbsp; &amp;nbsp;R$ xx,xx&lt;/span&gt;&lt;/div&gt;" style="rounded=0;whiteSpace=wrap;html=1;align=center;" parent="1" vertex="1">
          <mxGeometry x="230" y="1184" width="100" height="40" as="geometry" />
        </mxCell>
        <mxCell id="26vUE4dLXjxIYAb9QyYs-59" value="Data&amp;nbsp; :&amp;nbsp;" style="text;html=1;align=left;verticalAlign=middle;whiteSpace=wrap;rounded=0;fontSize=18;" parent="1" vertex="1">
          <mxGeometry x="150" y="1245.25" width="70" height="30" as="geometry" />
        </mxCell>
        <mxCell id="26vUE4dLXjxIYAb9QyYs-60" value="xx/xx/xxxx" style="rounded=0;whiteSpace=wrap;html=1;align=center;" parent="1" vertex="1">
          <mxGeometry x="230" y="1240.25" width="100" height="40" as="geometry" />
        </mxCell>
        <mxCell id="26vUE4dLXjxIYAb9QyYs-66" value="Cancelar" style="rounded=1;whiteSpace=wrap;html=1;fillColor=#E2E2E2;fontSize=16;" parent="1" vertex="1">
          <mxGeometry x="309" y="1350.5" width="120" height="40" as="geometry" />
        </mxCell>
        <mxCell id="26vUE4dLXjxIYAb9QyYs-67" value="Adicionar" style="rounded=1;whiteSpace=wrap;html=1;fillColor=#E2E2E2;fontSize=16;" parent="1" vertex="1">
          <mxGeometry x="171" y="1350.5" width="120" height="40" as="geometry" />
        </mxCell>
        <mxCell id="HJ8jTmEqCARMnONLD_iu-1" value="celular" style="swimlane;whiteSpace=wrap;html=1;" vertex="1" parent="1">
          <mxGeometry y="10" width="1450" height="2310" as="geometry" />
        </mxCell>
        <mxCell id="HJ8jTmEqCARMnONLD_iu-2" value="" style="group;movable=1;resizable=1;rotatable=1;deletable=1;editable=1;locked=0;connectable=1;" vertex="1" connectable="0" parent="HJ8jTmEqCARMnONLD_iu-1">
          <mxGeometry x="130" y="1620" width="340" height="630" as="geometry" />
        </mxCell>
        <mxCell id="HJ8jTmEqCARMnONLD_iu-3" value="&#xa;&lt;div&gt;&lt;span data-canva-clipboard=&quot;ewAiAGEAIgA6ADUALAAiAGgAIgA6ACIAdwB3AHcALgBjAGEAbgB2AGEALgBjAG8AbQAiACwAIgBjACIAOgAiAEQAQQBHAEcASQBtAHUAMwBEAEIAZwAiACwAIgBpACIAOgAiAHcAMgBBAGIAdgBvADUAawB2AG8AcABxAEYANQA3AC0AdQBzAGYAMwBDAGcAIgAsACIAYgAiADoAMQA3ADEANgA4ADkANAAyADAANAA1ADMAOAAsACIAagAiADoAWwB7AH0ALAB7AH0ALAB7ACIAQQAiADoAewAiAEsAIgA6AHsAfQAsACIARAAiADoAewB9ACwAIgBMACIAOgB7ACIAQQAiADoAWwB7ACIAQQAiADoAewB9ACwAIgBCACIAOgAiAEMAIgB9ACwAewAiAEEAIgA6AHsAfQAsACIAQgAiADoAIgBCACIAfQBdAH0ALAAiAEUAIgA6AHsAfQAsACIARgAiADoAewAiAEEAIgA6ACIASQBkAGUAbgB0AGkAdAB5AC4AcABuAGcAIgAsACIAQgAiADoAMQB9ACwAIgBHACIAOgB7AH0ALAAiAEgAIgA6AHsAIgBCACIAOgAiAG4AbwBuAGUAIgAsACIAQwAiADoAIgAjADAAMAAwADAAMAAwACIALAAiAEQAIgA6ACIAIwBmAGYAZgBmAGYAZgAiAH0ALAAiAEoAIgA6AHsAIgBGACIAOgAiACMAMAAwADAAMAAwADAAIgB9ACwAIgBQACIAOgB7AH0AfQB9ACwAewB9ACwAewB9ACwAewAiAEEAIgA6AHsAIgBLACIAOgB7AH0ALAAiAEQAIgA6AHsAfQAsACIATAAiADoAewAiAEEAIgA6AFsAewAiAEEAIgA6AHsAfQAsACIAQgAiADoAIgBDACIAfQAsAHsAIgBBACIAOgB7AH0ALAAiAEIAIgA6ACIAQgAiAH0AXQB9ACwAIgBFACIAOgB7AH0ALAAiAEYAIgA6AHsAIgBBACIAOgAiAEkAZABlAG4AdABpAHQAeQAuAHAAbgBnACIALAAiAEIAIgA6ADEAfQAsACIARwAiADoAewB9ACwAIgBIACIAOgB7ACIAQgAiADoAIgBuAG8AbgBlACIALAAiAEMAIgA6ACIAIwAwADAAMAAwADAAMAAiACwAIgBEACIAOgAiACMAZgBmAGYAZgBmAGYAIgB9ACwAIgBKACIAOgB7ACIARgAiADoAIgAjADAAMAAwADAAMAAwACIAfQAsACIAUAAiADoAewB9AH0AfQAsAHsAfQBdACwAIgBBAD8AIgA6ACIAQwAiACwAIgBBACIAOgBbAHsAIgBEACIAOgB7ACIAQwAiADoAIgAjAGYAZgBmAGYAZgBmACIAfQAsACIARQAiADoAWwB7ACIAQQAiADoAMgAyAC4AMAA4ADkAMwAyADkAMgAzADEANwA1ADIANgAzACwAIgBCACIAOgAyADUALgA2ADMAMgA5ADMANQAxADYAMAA0ADAAMQAwADcANQAsACIARAAiADoAMQA4ADYAOAAuADcAMwA0ADEAMgA5ADYANwA5ADEAOQA3ADgALAAiAEMAIgA6ADEAMAAzADUALgA4ADIAMQAzADQAMQA1ADMANgA0ADkANAA2ACwAIgBBAD8AIgA6ACIASgAiACwAIgBhACIAOgB7ACIARAAiADoANgA0ACwAIgBDACIAOgA2ADQAfQAsACIAYgAiADoAWwB7ACIAQQAiADoAIgBNADAAIAAwAEgANgA0AFYANgA0AEgAMAB6ACIALAAiAEIAIgA6AHsAIgBBACIAOgBmAGEAbABzAGUALAAiAEMAIgA6ACIAIwBhADYAYQA2AGEANgAiAH0ALAAiAEQAIgA6ADgAMAB9AF0ALAAiAGMAIgA6AHsAIgBBACIAOgB7ACIARAAiADoANgA0ACwAIgBDACIAOgA2ADQAfQAsACIAQgAiADoAMwA2ADkALgAxADMAMgA2ADYANwA1ADkAMAA5ADUAMgA1ADYALAAiAEMAIgA6ADIAMAA0AC4ANgAwADYANgA4ADQANwA0ADcAOQA0ADkANQA0ACwAIgBEACIAOgAiAEEAIgAsACIARQAiADoAIgBBACIAfQAsACIAZQAiADoAewB9ACwAIgBmACIAOgBbAHsAIgBBACIAOgB7ACIAQQAiADoAWwB7ACIAQQA/ACIAOgAiAEEAIgAsACIAQQAiADoAIgBcAG4AIgB9AF0ALAAiAEIAIgA6AFsAewAiAEEAPwAiADoAIgBBACIALAAiAEEAIgA6AHsAIgBmAG8AbgB0AC0AcwBpAHoAZQAiADoAewAiAEIAIgA6ACIAMgA1AC4AMwAzADMAMwAiAH0ALAAiAGYAbwBuAHQALQBmAGEAbQBpAGwAeQAiADoAewAiAEIAIgA6ACIAWQBBAEYAZABKAHQAOABkAEEAWQAwACwAMAAiAH0ALAAiAGMAbwBsAG8AcgAiADoAewAiAEIAIgA6ACIAIwBmAGYAZgBmAGYAZgAiAH0ALAAiAHQAZQB4AHQALQBhAGwAaQBnAG4AIgA6AHsAIgBCACIAOgAiAGMAZQBuAHQAZQByACIAfQAsACIAcwBwAGEAYwBpAG4AZwAiADoAewAiAEIAIgA6ACIAMAAuADAAIgB9AH0AfQAsAHsAIgBBAD8AIgA6ACIAQgAiACwAIgBBACIAOgAxAH0ALAB7ACIAQQA/ACIAOgAiAEEAIgAsACIAQQAiADoAewAiAGYAbwBuAHQALQBzAGkAegBlACIAOgB7AH0ALAAiAGYAbwBuAHQALQBmAGEAbQBpAGwAeQAiADoAewB9ACwAIgBjAG8AbABvAHIAIgA6AHsAfQAsACIAdABlAHgAdAAtAGEAbABpAGcAbgAiADoAewB9ACwAIgBzAHAAYQBjAGkAbgBnACIAOgB7AH0AfQB9AF0AfQAsACIAQgAiADoAewB9ACwAIgBEACIAOgB7ACIARAAiADoANgA0ACwAIgBDACIAOgA2ADQAfQAsACIARQAiADoAWwA0AF0ALAAiAEYAIgA6ACIAQgAiAH0AXQAsACIAaAAiADoAewAiAEEAPwAiADoAIgBIACIALAAiAEEAIgA6ADEAMAAzADUALgA4ADIAMQAzADQAMQA1ADMANgA0ADkANAA2AH0AfQAsAHsAIgBBACIAOgAzADMAOQAuADQAMgA0ADQAMwA5ADkAMQA2ADUAOAA0ADUANgAsACIAQgAiADoAMgA5ADgALgA5ADIAOQAxADEAMgAzADkANwA2ADgANwA2ACwAIgBEACIAOgAxADMAMgAyAC4AMQA0ADEANwA3ADUAMgAwADQANgAyADQAOAAsACIAQwAiADoANAAwADEALgAxADUAMQAxADIAMAAxADYANgA4ADMAMAA2ACwAIgBBAD8AIgA6ACIASAAiACwAIgBiACIAOgAxADMAMgAyAC4AMQA0ADEANwA3ADUAMgAwADQANgAyADQAOAAsACIAYQAiADoANAAwADEALgAxADUAMQAxADIAMAAxADYANgA4ADMAMAA2ACwAIgBjACIAOgBbAHsAIgBBACIAOgA1ADMALgA5ADMAMwAzADQAMAAwADAAMAAwADAAMAAwADYALAAiAEIAIgA6ADEALgAyADcAOAA5ADcANgA5ADIANAAzADYAOAAxADgAMAAzAGUALQAxADMALAAiAEQAIgA6ADEAMwA3AC4ANgAwADAANgA2ADcAOQAxADkAMAA2ADEAMgA0ACwAIgBDACIAOgAxADMANwAuADYAMAAwADYANgA3ADkAMQA5ADAANgAxADIANAAsACIAQQA/ACIAOgAiAEkAIgAsACIAYQAiADoAewAiAEEAIgA6AGYAYQBsAHMAZQAsACIAQgAiADoAewAiAEEAIgA6AHsAIgBBACIAOgAiAE0AQQBHAEcASQAtAGgAWQBIAGsAdwAiACwAIgBCACIAOgAxAH0ALAAiAEIAIgA6AHsAIgBEACIAOgAxADMANwAuADYAMAAwADYANgA3ADkAMQA5ADAANgAxADIANAAsACIAQwAiADoAMQAzADcALgA2ADAAMAA2ADYANwA5ADEAOQAwADYAMQAyADQAfQAsACIAQwAiADoAewAiACMAZgBmAGYAZgBmAGYAIgA6ACIAIwAwADAAMAAwADAAMAAiAH0AfQB9AH0ALAB7ACIAQQAiADoANgAxAC4AOAA5ADkANQA4ADAANQA1ADQAMQA1ADkANAA4ADUALAAiAEIAIgA6ADEANwAwAC4ANAA0ADEANwA3ADUAMgAwADQANgAyADQANQAsACIARAAiADoAMQAxADUAMQAuADcALAAiAEMAIgA6ADEAMQA5AC4AOQA5ADkAOQA5ADkAOQA5ADkAOQA5ADkAOQA0ACwAIgBGACIAOgAwAC4ANAA2ACwAIgBBAD8AIgA6ACIASgAiACwAIgBhACIAOgB7ACIARAAiADoANgA0ACwAIgBDACIAOgA2ADQAfQAsACIAYgAiADoAWwB7ACIAQQAiADoAIgBNADAAIAAwAEgANgA0AFYANgA0AEgAMAB6ACIALAAiAEIAIgA6AHsAIgBBACIAOgBmAGEAbABzAGUALAAiAEMAIgA6ACIAIwBlADIAZQAyAGUAMgAiAH0ALAAiAEMAIgA6AHsAIgBBACIAOgA0ACwAIgBCACIAOgAiACMAMAAwADAAMAAwADAAIgAsACIAZgAiADoAdAByAHUAZQB9AH0AXQAsACIAYwAiADoAewAiAEEAIgA6AHsAIgBEACIAOgA2ADQALAAiAEMAIgA6ADYANAB9ACwAIgBCACIAOgAyADUANwAuADAAMQAyADIAMgA2ADcANgAzADIAOQA5ADAANQAsACIAQwAiADoAMgA2AC4ANwA3ADkAMAA4ADAANgA3ADMANAAzADUANgA3ADIALAAiAEQAIgA6ACIAQQAiACwAIgBFACIAOgAiAEEAIgB9ACwAIgBlACIAOgB7AH0ALAAiAGYAIgA6AFsAewAiAEEAIgA6AHsAIgBBACIAOgBbAHsAIgBBAD8AIgA6ACIAQQAiACwAIgBBACIAOgAiAFwAbgAiAH0AXQAsACIAQgAiADoAWwB7ACIAQQA/ACIAOgAiAEEAIgAsACIAQQAiADoAewAiAGYAbwBuAHQALQBzAGkAegBlACIAOgB7ACIAQgAiADoAIgAyADUALgAzADMAMwAzACIAfQAsACIAdABlAHgAdAAtAHQAcgBhAG4AcwBmAG8AcgBtACIAOgB7ACIAQgAiADoAIgBuAG8AbgBlACIAfQAsACIAdAByAGEAYwBrAGkAbgBnACIAOgB7ACIAQgAiADoAIgAwAC4AMAAiAH0ALAAiAGYAbwBuAHQALQB3AGUAaQBnAGgAdAAiADoAewAiAEIAIgA6ACIAbgBvAHIAbQBhAGwAIgB9ACwAIgBsAGUAYQBkAGkAbgBnACIAOgB7ACIAQgAiADoAIgAxADQAMAAwAC4AMAAiAH0ALAAiAGYAbwBuAHQALQBzAHQAeQBsAGUAIgA6AHsAIgBCACIAOgAiAG4AbwByAG0AYQBsACIAfQAsACIAYwBvAGwAbwByACIAOgB7ACIAQgAiADoAIgAjADAAMAAwADAAMAAwACIAfQAsACIAZgBvAG4AdAAtAGYAYQBtAGkAbAB5ACIAOgB7ACIAQgAiADoAIgBZAEEARgBkAEoAdAA4AGQAQQBZADAALAAwACIAfQB9AH0ALAB7ACIAQQA/ACIAOgAiAEIAIgAsACIAQQAiADoAMQB9ACwAewAiAEEAPwAiADoAIgBBACIALAAiAEEAIgA6AHsAIgBmAG8AbgB0AC0AcwBpAHoAZQAiADoAewB9ACwAIgB0AGUAeAB0AC0AdAByAGEAbgBzAGYAbwByAG0AIgA6AHsAfQAsACIAdAByAGEAYwBrAGkAbgBnACIAOgB7AH0ALAAiAGYAbwBuAHQALQB3AGUAaQBnAGgAdAAiADoAewB9ACwAIgBsAGUAYQBkAGkAbgBnACIAOgB7AH0ALAAiAGYAbwBuAHQALQBzAHQAeQBsAGUAIgA6AHsAfQAsACIAYwBvAGwAbwByACIAOgB7AH0ALAAiAGYAbwBuAHQALQBmAGEAbQBpAGwAeQAiADoAewB9AH0AfQBdAH0ALAAiAEIAIgA6AHsAfQAsACIARAAiADoAewAiAEQAIgA6ADYANAAsACIAQwAiADoANgA0AH0ALAAiAEUAIgA6AFsANABdACwAIgBGACIAOgAiAEIAIgB9AF0ALAAiAGgAIgA6AHsAIgBBAD8AIgA6ACIASAAiACwAIgBBACIAOgAxADEAOQAuADkAOQA5ADkAOQA5ADkAOQA5ADkAOQA5ADkANAB9AH0ALAB7ACIAQQAiADoAMgA3ADcALgA4ADkAOQA5ADgAMAAwADUAOAA3ADcAMwA3ADQALAAiAEIAIgA6ADEANwAwAC4ANAA0ADEANwA3ADUAMgAwADQANgAyADQANwAyACwAIgBEACIAOgAxADEANQAxAC4ANwAwADAAMAAwADAAMAAwADAAMAAwADAAMwAsACIAQwAiADoAMQAxADkALgA5ADkAOQA5ADkAOQA5ADkAOQA5ADkAOQA5ADQALAAiAEYAIgA6ADAALgA0ADYALAAiAEEAPwAiADoAIgBKACIALAAiAGEAIgA6AHsAIgBEACIAOgA2ADQALAAiAEMAIgA6ADYANAB9ACwAIgBiACIAOgBbAHsAIgBBACIAOgAiAE0AMAAgADAASAA2ADQAVgA2ADQASAAwAHoAIgAsACIAQgAiADoAewAiAEEAIgA6AGYAYQBsAHMAZQAsACIAQwAiADoAIgAjAGUAMgBlADIAZQAyACIAfQAsACIAQwAiADoAewAiAEEAIgA6ADQALAAiAEIAIgA6ACIAIwAwADAAMAAwADAAMAAiACwAIgBmACIAOgB0AHIAdQBlAH0AfQBdACwAIgBjACIAOgB7ACIAQQAiADoAewAiAEQAIgA6ADYANAAsACIAQwAiADoANgA0AH0ALAAiAEIAIgA6ADIANQA3AC4AMAAxADIAMgAyADYANwA2ADMAMgA5ADkAMQAsACIAQwAiADoAMgA2AC4ANwA3ADkAMAA4ADAANgA3ADMANAAzADUANgA3ADIALAAiAEQAIgA6ACIAQQAiACwAIgBFACIAOgAiAEEAIgB9ACwAIgBlACIAOgB7AH0ALAAiAGYAIgA6AFsAewAiAEEAIgA6AHsAIgBBACIAOgBbAHsAIgBBAD8AIgA6ACIAQQAiACwAIgBBACIAOgAiAFwAbgAiAH0AXQAsACIAQgAiADoAWwB7ACIAQQA/ACIAOgAiAEEAIgAsACIAQQAiADoAewAiAGYAbwBuAHQALQBzAGkAegBlACIAOgB7ACIAQgAiADoAIgAyADUALgAzADMAMwAzACIAfQAsACIAdABlAHgAdAAtAHQAcgBhAG4AcwBmAG8AcgBtACIAOgB7ACIAQgAiADoAIgBuAG8AbgBlACIAfQAsACIAdAByAGEAYwBrAGkAbgBnACIAOgB7ACIAQgAiADoAIgAwAC4AMAAiAH0ALAAiAGYAbwBuAHQALQB3AGUAaQBnAGgAdAAiADoAewAiAEIAIgA6ACIAbgBvAHIAbQBhAGwAIgB9ACwAIgBsAGUAYQBkAGkAbgBnACIAOgB7ACIAQgAiADoAIgAxADQAMAAwAC4AMAAiAH0ALAAiAGYAbwBuAHQALQBzAHQAeQBsAGUAIgA6AHsAIgBCACIAOgAiAG4AbwByAG0AYQBsACIAfQAsACIAYwBvAGwAbwByACIAOgB7ACIAQgAiADoAIgAjADAAMAAwADAAMAAwACIAfQAsACIAZgBvAG4AdAAtAGYAYQBtAGkAbAB5ACIAOgB7ACIAQgAiADoAIgBZAEEARgBkAHQAUQBpADcAMwBYAHMALAAwACIAfQB9AH0ALAB7ACIAQQA/ACIAOgAiAEIAIgAsACIAQQAiADoAMQB9ACwAewAiAEEAPwAiADoAIgBBACIALAAiAEEAIgA6AHsAIgBmAG8AbgB0AC0AcwBpAHoAZQAiADoAewB9ACwAIgB0AGUAeAB0AC0AdAByAGEAbgBzAGYAbwByAG0AIgA6AHsAfQAsACIAdAByAGEAYwBrAGkAbgBnACIAOgB7AH0ALAAiAGYAbwBuAHQALQB3AGUAaQBnAGgAdAAiADoAewB9ACwAIgBsAGUAYQBkAGkAbgBnACIAOgB7AH0ALAAiAGYAbwBuAHQALQBzAHQAeQBsAGUAIgA6AHsAfQAsACIAYwBvAGwAbwByACIAOgB7AH0ALAAiAGYAbwBuAHQALQBmAGEAbQBpAGwAeQAiADoAewB9AH0AfQBdAH0ALAAiAEIAIgA6AHsAfQAsACIARAAiADoAewAiAEQAIgA6ADYANAAsACIAQwAiADoANgA0AH0ALAAiAEUAIgA6AFsANABdACwAIgBGACIAOgAiAEIAIgB9AF0ALAAiAGgAIgA6AHsAIgBBAD8AIgA6ACIASAAiACwAIgBBACIAOgAxADEAOQAuADkAOQA5ADkAOQA5ADkAOQA5ADkAOQA5ADkANAB9AH0ALAB7ACIAQQAiADoAMgA3ADYALgAzADEANwAwADIANgA3ADYAMQA0ADUAOQA0ACwAIgBCACIAOgAyAC4AMAAxADIAMAA3ADYANQA1ADUANQA5ADIANAAxADUALAAiAEQAIgA6ADEAMgA0AC4AOAAzADQAMAA5ADMANAAwADUAMwA3ADEAMwAzACwAIgBDACIAOgAxADIANAAuADgAMwA0ADAAOQAzADQAMAA1ADMANwAxADMAMwAsACIAQQA/ACIAOgAiAEkAIgAsACIAYQAiADoAewAiAEIAIgA6AHsAIgBBACIAOgB7ACIAQQAiADoAIgBNAEEARwBHAEkAMwBHADQAOQBBAHcAIgAsACIAQgAiADoAMQB9ACwAIgBCACIAOgB7ACIARAAiADoAMQAyADQALgA4ADMANAAwADkAMwA0ADAANQAzADcAMQAzADMALAAiAEMAIgA6ADEAMgA0AC4AOAAzADQAMAA5ADMANAAwADUAMwA3ADEAMwAzAH0ALAAiAEMAIgA6AHsAIgAjAGYAZgBmAGYAZgBmACIAOgAiACMAMAAwADAAMAAwADAAIgB9AH0AfQB9ACwAewAiAEEAIgA6ADcALgA4ADEANQA5ADcAMAAwADkAMwAzADYAMQAxADAAMgBlAC0AMQA0ACwAIgBCACIAOgAxADcAMAAuADQAMAA4ADkANQAyADgAOQA4ADQAMAA2ADQAOAAsACIARAAiADoANAAzADcALgA2ADQAMwA2ADQANwA1ADAAMgAwADkANwA1ADYALAAiAEMAIgA6ADUAMwAuADkAMwAzADMANAAsACIAQQA/ACIAOgAiAEsAIgAsACIAYQAiADoAewAiAEEAIgA6AFsAewAiAEEAPwAiADoAIgBBACIALAAiAEEAIgA6ACIATgBvAG0AZQAgAGQAZQAgAFUAcwB1AOEAcgBpAG8AIAA6AFwAbgAiAH0AXQAsACIAQgAiADoAWwB7ACIAQQA/ACIAOgAiAEEAIgAsACIAQQAiADoAewAiAHQAZQB4AHQALQBhAGwAaQBnAG4AIgA6AHsAIgBCACIAOgAiAGMAZQBuAHQAZQByACIAfQAsACIAZgBvAG4AdAAtAHMAaQB6AGUAIgA6AHsAIgBCACIAOgAiADQANQAuADMAMwAzADMAIgB9ACwAIgBmAG8AbgB0AC0AZgBhAG0AaQBsAHkAIgA6AHsAIgBCACIAOgAiAFkAQQBGAGQAdABRAGkANwAzAFgAcwAsADAAIgB9AH0AfQAsAHsAIgBBAD8AIgA6ACIAQgAiACwAIgBBACIAOgAxADcAfQAsAHsAIgBBAD8AIgA6ACIAQQAiACwAIgBBACIAOgB7ACIAYwBvAGwAbwByACIAOgB7ACIAQgAiADoAIgAjADAAMAAwADAAMAAwACIAfQAsACIAcwBwAGEAYwBpAG4AZwAiADoAewAiAEIAIgA6ACIAMAAuADAAIgB9ACwAIgB0AGUAeAB0AC0AdAByAGEAbgBzAGYAbwByAG0AIgA6AHsAIgBCACIAOgAiAG4AbwBuAGUAIgB9ACwAIgBkAGUAYwBvAHIAYQB0AGkAbwBuACIAOgB7ACIAQgAiADoAIgBuAG8AbgBlACIAfQAsACIAcwB0AHIAaQBrAGUAdABoAHIAbwB1AGcAaAAiADoAewAiAEIAIgA6ACIAbgBvAG4AZQAiAH0ALAAiAGwAaQBuAGsAIgA6AHsAIgBCACIAOgAiACIAfQAsACIAbABpAHMAdAAtAG0AYQByAGsAZQByACIAOgB7ACIAQgAiADoAIgBuAG8AbgBlACIAfQAsACIAbABlAGEAZABpAG4AZwAiADoAewAiAEIAIgA6ACIAMQA0ADAAMAAuADAAIgB9ACwAIgB0AHIAYQBjAGsAaQBuAGcAIgA6AHsAIgBCACIAOgAiADAALgAwACIAfQAsACIAcwB0AHkAbABlACIAOgB7ACIAQgAiADoAIgBiAG8AZAB5ACIAfQAsACIAawBlAHIAbgBpAG4AZwAiADoAewAiAEIAIgA6ACIAMAAuADAAIgB9ACwAIgBsAGkAcwB0AC0AbABlAHYAZQBsACIAOgB7ACIAQgAiADoAIgAwAC4AMAAiAH0ALAAiAGgAZQBhAGQALQBpAG4AZABlAG4AdAAiADoAewAiAEIAIgA6ACIAMAAuADAAIgB9AH0AfQAsAHsAIgBBAD8AIgA6ACIAQgAiACwAIgBBACIAOgAxAH0ALAB7ACIAQQA/ACIAOgAiAEEAIgAsACIAQQAiADoAewAiAGYAbwBuAHQALQBzAGkAegBlACIAOgB7AH0ALAAiAGwAaQBuAGsAIgA6AHsAfQAsACIAaABlAGEAZAAtAGkAbgBkAGUAbgB0ACIAOgB7AH0ALAAiAHQAcgBhAGMAawBpAG4AZwAiADoAewB9ACwAIgBsAGkAcwB0AC0AbABlAHYAZQBsACIAOgB7AH0ALAAiAHMAdAByAGkAawBlAHQAaAByAG8AdQBnAGgAIgA6AHsAfQAsACIAcwB0AHkAbABlACIAOgB7AH0ALAAiAGQAZQBjAG8AcgBhAHQAaQBvAG4AIgA6AHsAfQAsACIAdABlAHgAdAAtAHQAcgBhAG4AcwBmAG8AcgBtACIAOgB7AH0ALAAiAGsAZQByAG4AaQBuAGcAIgA6AHsAfQAsACIAbABpAHMAdAAtAG0AYQByAGsAZQByACIAOgB7AH0ALAAiAGwAZQBhAGQAaQBuAGcAIgA6AHsAfQAsACIAdABlAHgAdAAtAGEAbABpAGcAbgAiADoAewB9ACwAIgBzAHAAYQBjAGkAbgBnACIAOgB7AH0ALAAiAGMAbwBsAG8AcgAiADoAewB9ACwAIgBmAG8AbgB0AC0AZgBhAG0AaQBsAHkAIgA6AHsAfQB9AH0AXQB9ACwAIgBiACIAOgB7ACIAQQAiADoAWwAxADgAXQB9ACwAIgBkACIAOgAiAEEAIgAsACIAZwAiADoAZgBhAGwAcwBlACwAIgBoACIAOgAiAEEAIgB9ACwAewAiAEEAIgA6ADIAMQA2AC4AMAAwADAAMwA5ADkANQAwADQANgAxADQANAAyACwAIgBCACIAOgAxADcAMAAuADQAMAA4ADkANQAyADgAOQA4ADQAMAA2ADQAOAAsACIARAAiADoAMQA5ADQALgAxADEAOAAxADIAMgA5ADAAMgA2ADAAMAA4ADUALAAiAEMAIgA6ADUAMwAuADkAMwAzADMANAAsACIAQQA/ACIAOgAiAEsAIgAsACIAYQAiADoAewAiAEEAIgA6AFsAewAiAEEAPwAiADoAIgBBACIALAAiAEEAIgA6ACIAUwBlAG4AaABhACAAOgBcAG4AIgB9AF0ALAAiAEIAIgA6AFsAewAiAEEAPwAiADoAIgBBACIALAAiAEEAIgA6AHsAIgB0AGUAeAB0AC0AYQBsAGkAZwBuACIAOgB7ACIAQgAiADoAIgBjAGUAbgB0AGUAcgAiAH0ALAAiAGYAbwBuAHQALQBzAGkAegBlACIAOgB7ACIAQgAiADoAIgA0ADUALgAzADMAMwAzACIAfQAsACIAZgBvAG4AdAAtAGYAYQBtAGkAbAB5ACIAOgB7ACIAQgAiADoAIgBZAEEARgBkAHQAUQBpADcAMwBYAHMALAAwACIAfQB9AH0ALAB7ACIAQQA/ACIAOgAiAEIAIgAsACIAQQAiADoANwB9ACwAewAiAEEAPwAiADoAIgBBACIALAAiAEEAIgA6AHsAIgBmAG8AbgB0AC0AcwB0AHkAbABlACIAOgB7ACIAQgAiADoAIgBuAG8AcgBtAGEAbAAiAH0ALAAiAHQAZQB4AHQALQB0AHIAYQBuAHMAZgBvAHIAbQAiADoAewAiAEIAIgA6ACIAbgBvAG4AZQAiAH0ALAAiAGwAZQBhAGQAaQBuAGcAIgA6AHsAIgBCACIAOgAiADEANAAwADAALgAwACIAfQAsACIAbABpAHMAdAAtAGwAZQB2AGUAbAAiADoAewAiAEIAIgA6ACIAMAAuADAAIgB9ACwAIgBrAGUAcgBuAGkAbgBnACIAOgB7ACIAQgAiADoAIgAwAC4AMAAiAH0ALAAiAHMAdAB5AGwAZQAiADoAewAiAEIAIgA6ACIAYgBvAGQAeQAiAH0ALAAiAHMAdAByAGkAawBlAHQAaAByAG8AdQBnAGgAIgA6AHsAIgBCACIAOgAiAG4AbwBuAGUAIgB9ACwAIgBmAG8AbgB0AC0AdwBlAGkAZwBoAHQAIgA6AHsAIgBCACIAOgAiAG4AbwByAG0AYQBsACIAfQAsACIAcwBwAGEAYwBpAG4AZwAiADoAewAiAEIAIgA6ACIAMAAuADAAIgB9ACwAIgBsAGkAbgBrACIAOgB7ACIAQgAiADoAIgAiAH0ALAAiAHQAcgBhAGMAawBpAG4AZwAiADoAewAiAEIAIgA6ACIAMAAuADAAIgB9ACwAIgBkAGUAYwBvAHIAYQB0AGkAbwBuACIAOgB7ACIAQgAiADoAIgBuAG8AbgBlACIAfQAsACIAaABlAGEAZAAtAGkAbgBkAGUAbgB0ACIAOgB7ACIAQgAiADoAIgAwAC4AMAAiAH0ALAAiAGMAbwBsAG8AcgAiADoAewAiAEIAIgA6ACIAIwAwADAAMAAwADAAMAAiAH0ALAAiAGwAaQBzAHQALQBtAGEAcgBrAGUAcgAiADoAewAiAEIAIgA6ACIAbgBvAG4AZQAiAH0AfQB9ACwAewAiAEEAPwAiADoAIgBCACIALAAiAEEAIgA6ADEAfQAsAHsAIgBBAD8AIgA6ACIAQQAiACwAIgBBACIAOgB7ACIAcwBwAGEAYwBpAG4AZwAiADoAewB9ACwAIgBoAGUAYQBkAC0AaQBuAGQAZQBuAHQAIgA6AHsAfQAsACIAawBlAHIAbgBpAG4AZwAiADoAewB9ACwAIgBsAGkAcwB0AC0AbQBhAHIAawBlAHIAIgA6AHsAfQAsACIAbABpAG4AawAiADoAewB9ACwAIgBzAHQAeQBsAGUAIgA6AHsAfQAsACIAZgBvAG4AdAAtAHMAdAB5AGwAZQAiADoAewB9ACwAIgBmAG8AbgB0AC0AcwBpAHoAZQAiADoAewB9ACwAIgBmAG8AbgB0AC0AZgBhAG0AaQBsAHkAIgA6AHsAfQAsACIAdABlAHgAdAAtAGEAbABpAGcAbgAiADoAewB9ACwAIgB0AHIAYQBjAGsAaQBuAGcAIgA6AHsAfQAsACIAbABlAGEAZABpAG4AZwAiADoAewB9ACwAIgBsAGkAcwB0AC0AbABlAHYAZQBsACIAOgB7AH0ALAAiAHMAdAByAGkAawBlAHQAaAByAG8AdQBnAGgAIgA6AHsAfQAsACIAZgBvAG4AdAAtAHcAZQBpAGcAaAB0ACIAOgB7AH0ALAAiAGQAZQBjAG8AcgBhAHQAaQBvAG4AIgA6AHsAfQAsACIAdABlAHgAdAAtAHQAcgBhAG4AcwBmAG8AcgBtACIAOgB7AH0ALAAiAGMAbwBsAG8AcgAiADoAewB9AH0AfQBdAH0ALAAiAGIAIgA6AHsAIgBBACIAOgBbADgAXQB9ACwAIgBkACIAOgAiAEEAIgAsACIAZwAiADoAZgBhAGwAcwBlACwAIgBoACIAOgAiAEEAIgB9AF0AfQAsAHsAIgBBACIAOgA5ADEAMwAuADAAOQAxADMANgA2ADcAMAA1ADIAOAA1ADQALAAiAEIAIgA6ADcANQAzAC4AOAAxADcAOQA4ADUANgA5ADcANwAzADQAOQAsACIARAAiADoANAAxADIALgAzADYANAAwADIAOAA2ADAANAA1ADMAMAAxACwAIgBDACIAOgAxADEANwAuADgAMQA3ADIANgA2ADUAOAA5ADQAMgA5ADIAMQAsACIARgAiADoAMAAuADIANgAsACIAQQA/ACIAOgAiAEoAIgAsACIAYQAiADoAewAiAEQAIgA6ADYANAAsACIAQwAiADoANgA0AH0ALAAiAGIAIgA6AFsAewAiAEEAIgA6ACIATQAwACAAMABIADYANABWADYANABIADAAegAiACwAIgBCACIAOgB7ACIAQQAiADoAZgBhAGwAcwBlACwAIgBDACIAOgAiACMAZQAyAGUAMgBlADIAIgB9ACwAIgBDACIAOgB7ACIAQQAiADoANAAsACIAQgAiADoAIgAjADAAMAAwADAAMAAwACIALAAiAGYAIgA6AHQAcgB1AGUAfQAsACIARAAiADoANAA1AH0AXQAsACIAYwAiADoAewAiAEEAIgA6AHsAIgBEACIAOgA2ADQALAAiAEMAIgA6ADYANAB9ACwAIgBCACIAOgA4ADEALgA0ADUANAA2ADIAMgA5ADMANAAyADIAOAAxADUALAAiAEMAIgA6ADIAMwAuADIANwAyADUANAA2ADQAOAA2ADgAMAAwADgAMwA0ACwAIgBEACIAOgAiAEEAIgAsACIARQAiADoAIgBBACIAfQAsACIAZQAiADoAewB9ACwAIgBmACIAOgBbAHsAIgBBACIAOgB7ACIAQQAiADoAWwB7ACIAQQA/ACIAOgAiAEEAIgAsACIAQQAiADoAIgBFAG4AdAByAGEAcgBcAG4AIgB9AF0ALAAiAEIAIgA6AFsAewAiAEEAPwAiADoAIgBBACIALAAiAEEAIgA6AHsAIgB0AGUAeAB0AC0AYQBsAGkAZwBuACIAOgB7ACIAQgAiADoAIgBjAGUAbgB0AGUAcgAiAH0ALAAiAGYAbwBuAHQALQBzAGkAegBlACIAOgB7ACIAQgAiADoAIgAyADUALgAzADMAMwAzACIAfQAsACIAZgBvAG4AdAAtAGYAYQBtAGkAbAB5ACIAOgB7ACIAQgAiADoAIgBZAEEARgBkAHQAUQBpADcAMwBYAHMALAAwACIAfQB9AH0ALAB7ACIAQQA/ACIAOgAiAEIAIgAsACIAQQAiADoANgB9ACwAewAiAEEAPwAiADoAIgBBACIALAAiAEEAIgA6AHsAIgBmAG8AbgB0AC0AcwB0AHkAbABlACIAOgB7ACIAQgAiADoAIgBuAG8AcgBtAGEAbAAiAH0ALAAiAGYAbwBuAHQALQB3AGUAaQBnAGgAdAAiADoAewAiAEIAIgA6ACIAbgBvAHIAbQBhAGwAIgB9ACwAIgB0AHIAYQBjAGsAaQBuAGcAIgA6AHsAIgBCACIAOgAiADAALgAwACIAfQAsACIAdABlAHgAdAAtAHQAcgBhAG4AcwBmAG8AcgBtACIAOgB7ACIAQgAiADoAIgBuAG8AbgBlACIAfQAsACIAYwBvAGwAbwByACIAOgB7ACIAQgAiADoAIgAjADAAMAAwADAAMAAwACIAfQAsACIAbABlAGEAZABpAG4AZwAiADoAewAiAEIAIgA6ACIAMQA0ADAAMAAuADAAIgB9AH0AfQAsAHsAIgBBAD8AIgA6ACIAQgAiACwAIgBBACIAOgAxAH0ALAB7ACIAQQA/ACIAOgAiAEEAIgAsACIAQQAiADoAewAiAGYAbwBuAHQALQBmAGEAbQBpAGwAeQAiADoAewB9ACwAIgB0AHIAYQBjAGsAaQBuAGcAIgA6AHsAfQAsACIAbABlAGEAZABpAG4AZwAiADoAewB9ACwAIgB0AGUAeAB0AC0AYQBsAGkAZwBuACIAOgB7AH0ALAAiAGYAbwBuAHQALQB3AGUAaQBnAGgAdAAiADoAewB9ACwAIgB0AGUAeAB0AC0AdAByAGEAbgBzAGYAbwByAG0AIgA6AHsAfQAsACIAYwBvAGwAbwByACIAOgB7AH0ALAAiAGYAbwBuAHQALQBzAHQAeQBsAGUAIgA6AHsAfQAsACIAZgBvAG4AdAAtAHMAaQB6AGUAIgA6AHsAfQB9AH0AXQB9ACwAIgBCACIAOgB7ACIAQQAiADoAWwA3AF0AfQAsACIARAAiADoAewAiAEQAIgA6ADYANAAsACIAQwAiADoANgA0AH0ALAAiAEUAIgA6AFsANABdACwAIgBGACIAOgAiAEIAIgB9AF0ALAAiAGgAIgA6AHsAIgBBAD8AIgA6ACIASAAiACwAIgBBACIAOgAxADEANwAuADgAMQA3ADIANgA2ADUAOAA5ADQAMgA5ADIAMQB9AH0ALAB7ACIAQQAiADoANgA3AC4ANAA5ADIAMgAwADAAMwA3ADkANQAyADkANAAyACwAIgBCACIAOgA3ADUAOQAuADAANwA4ADEAMgA1ACwAIgBEACIAOgA0ADAAMQAuADgANAAzADcANQAsACIAQwAiADoAMQA0ADYALgA0ADYANgA2ACwAIgBBAD8AIgA6ACIASwAiACwAIgBhACIAOgB7ACIAQQAiADoAWwB7ACIAQQA/ACIAOgAiAEEAIgAsACIAQQAiADoAIgBFAG4AdAByAGEAcgBcAG4AIgB9AF0ALAAiAEIAIgA6AFsAewAiAEEAPwAiADoAIgBBACIALAAiAEEAIgA6AHsAIgBmAG8AbgB0AC0AcwBpAHoAZQAiADoAewAiAEIAIgA6ACIAMQAyADIALgA2ADYANwAiAH0ALAAiAGYAbwBuAHQALQB3AGUAaQBnAGgAdAAiADoAewAiAEIAIgA6ACIAYgBvAGwAZAAiAH0ALAAiAHQAZQB4AHQALQBhAGwAaQBnAG4AIgA6AHsAIgBCACIAOgAiAGMAZQBuAHQAZQByACIAfQAsACIAZgBvAG4AdAAtAGYAYQBtAGkAbAB5ACIAOgB7ACIAQgAiADoAIgBZAEEARgBkAHQAUQBpADcAMwBYAHMALAAwACIAfQB9AH0ALAB7ACIAQQA/ACIAOgAiAEIAIgAsACIAQQAiADoANgB9ACwAewAiAEEAPwAiADoAIgBBACIALAAiAEEAIgA6AHsAIgBjAG8AbABvAHIAIgA6AHsAIgBCACIAOgAiACMAMAAwADAAMAAwADAAIgB9ACwAIgBmAG8AbgB0AC0AcwB0AHkAbABlACIAOgB7ACIAQgAiADoAIgBuAG8AcgBtAGEAbAAiAH0AfQB9ACwAewAiAEEAPwAiADoAIgBCACIALAAiAEEAIgA6ADEAfQAsAHsAIgBBAD8AIgA6ACIAQQAiACwAIgBBACIAOgB7ACIAZgBvAG4AdAAtAHMAdAB5AGwAZQAiADoAewB9ACwAIgBmAG8AbgB0AC0AZgBhAG0AaQBsAHkAIgA6AHsAfQAsACIAZgBvAG4AdAAtAHMAaQB6AGUAIgA6AHsAfQAsACIAZgBvAG4AdAAtAHcAZQBpAGcAaAB0ACIAOgB7AH0ALAAiAGMAbwBsAG8AcgAiADoAewB9ACwAIgB0AGUAeAB0AC0AYQBsAGkAZwBuACIAOgB7AH0AfQB9AF0AfQAsACIAYgAiADoAewAiAEEAIgA6AFsANwBdAH0ALAAiAGQAIgA6ACIAQQAiACwAIgBnACIAOgBmAGEAbABzAGUALAAiAGgAIgA6ACIAQgAiAH0AXQB9AF0ALAAiAEIAIgA6ADEAOQAyADAALAAiAEMAIgA6ADEAMAA4ADAAfQA=&quot;&gt;&lt;/span&gt;&lt;/div&gt;&#xa;&#xa;" style="rounded=0;whiteSpace=wrap;html=1;fillColor=#D9D9D9;movable=0;resizable=0;rotatable=0;deletable=0;editable=0;locked=1;connectable=0;" vertex="1" parent="HJ8jTmEqCARMnONLD_iu-2">
          <mxGeometry width="340" height="630" as="geometry" />
        </mxCell>
        <mxCell id="HJ8jTmEqCARMnONLD_iu-4" value="" style="rounded=1;whiteSpace=wrap;html=1;fillColor=#A6A6A6;" vertex="1" parent="HJ8jTmEqCARMnONLD_iu-2">
          <mxGeometry x="10" y="160" width="320" height="450" as="geometry" />
        </mxCell>
        <mxCell id="HJ8jTmEqCARMnONLD_iu-15" value="&lt;font style=&quot;font-size: 25px;&quot;&gt;Tem certeza que deseja Adicionar?&lt;/font&gt;" style="text;html=1;align=center;verticalAlign=middle;whiteSpace=wrap;rounded=0;" vertex="1" parent="HJ8jTmEqCARMnONLD_iu-2">
          <mxGeometry x="40" y="320" width="260" height="30" as="geometry" />
        </mxCell>
        <mxCell id="HJ8jTmEqCARMnONLD_iu-16" value="Adicionar" style="rounded=1;whiteSpace=wrap;html=1;fillColor=#E2E2E2;fontSize=16;" vertex="1" parent="HJ8jTmEqCARMnONLD_iu-2">
          <mxGeometry x="41" y="480" width="120" height="40" as="geometry" />
        </mxCell>
        <mxCell id="HJ8jTmEqCARMnONLD_iu-17" value="Voltar" style="rounded=1;whiteSpace=wrap;html=1;fillColor=#E2E2E2;fontSize=16;" vertex="1" parent="HJ8jTmEqCARMnONLD_iu-2">
          <mxGeometry x="179" y="480" width="120" height="40" as="geometry" />
        </mxCell>
        <mxCell id="HJ8jTmEqCARMnONLD_iu-5" value="&lt;span style=&quot;font-size: 55px;&quot;&gt;Adicionar&lt;/span&gt;" style="text;html=1;align=center;verticalAlign=middle;whiteSpace=wrap;rounded=0;fillColor=none;" vertex="1" parent="HJ8jTmEqCARMnONLD_iu-1">
          <mxGeometry x="194" y="1698" width="220" height="70" as="geometry" />
        </mxCell>
        <mxCell id="HJ8jTmEqCARMnONLD_iu-19" value="" style="group;movable=1;resizable=1;rotatable=1;deletable=1;editable=1;locked=0;connectable=1;" vertex="1" connectable="0" parent="HJ8jTmEqCARMnONLD_iu-1">
          <mxGeometry x="550" y="1620" width="340" height="630" as="geometry" />
        </mxCell>
        <mxCell id="HJ8jTmEqCARMnONLD_iu-20" value="&#xa;&lt;div&gt;&lt;span data-canva-clipboard=&quot;ewAiAGEAIgA6ADUALAAiAGgAIgA6ACIAdwB3AHcALgBjAGEAbgB2AGEALgBjAG8AbQAiACwAIgBjACIAOgAiAEQAQQBHAEcASQBtAHUAMwBEAEIAZwAiACwAIgBpACIAOgAiAHcAMgBBAGIAdgBvADUAawB2AG8AcABxAEYANQA3AC0AdQBzAGYAMwBDAGcAIgAsACIAYgAiADoAMQA3ADEANgA4ADkANAAyADAANAA1ADMAOAAsACIAagAiADoAWwB7AH0ALAB7AH0ALAB7ACIAQQAiADoAewAiAEsAIgA6AHsAfQAsACIARAAiADoAewB9ACwAIgBMACIAOgB7ACIAQQAiADoAWwB7ACIAQQAiADoAewB9ACwAIgBCACIAOgAiAEMAIgB9ACwAewAiAEEAIgA6AHsAfQAsACIAQgAiADoAIgBCACIAfQBdAH0ALAAiAEUAIgA6AHsAfQAsACIARgAiADoAewAiAEEAIgA6ACIASQBkAGUAbgB0AGkAdAB5AC4AcABuAGcAIgAsACIAQgAiADoAMQB9ACwAIgBHACIAOgB7AH0ALAAiAEgAIgA6AHsAIgBCACIAOgAiAG4AbwBuAGUAIgAsACIAQwAiADoAIgAjADAAMAAwADAAMAAwACIALAAiAEQAIgA6ACIAIwBmAGYAZgBmAGYAZgAiAH0ALAAiAEoAIgA6AHsAIgBGACIAOgAiACMAMAAwADAAMAAwADAAIgB9ACwAIgBQACIAOgB7AH0AfQB9ACwAewB9ACwAewB9ACwAewAiAEEAIgA6AHsAIgBLACIAOgB7AH0ALAAiAEQAIgA6AHsAfQAsACIATAAiADoAewAiAEEAIgA6AFsAewAiAEEAIgA6AHsAfQAsACIAQgAiADoAIgBDACIAfQAsAHsAIgBBACIAOgB7AH0ALAAiAEIAIgA6ACIAQgAiAH0AXQB9ACwAIgBFACIAOgB7AH0ALAAiAEYAIgA6AHsAIgBBACIAOgAiAEkAZABlAG4AdABpAHQAeQAuAHAAbgBnACIALAAiAEIAIgA6ADEAfQAsACIARwAiADoAewB9ACwAIgBIACIAOgB7ACIAQgAiADoAIgBuAG8AbgBlACIALAAiAEMAIgA6ACIAIwAwADAAMAAwADAAMAAiACwAIgBEACIAOgAiACMAZgBmAGYAZgBmAGYAIgB9ACwAIgBKACIAOgB7ACIARgAiADoAIgAjADAAMAAwADAAMAAwACIAfQAsACIAUAAiADoAewB9AH0AfQAsAHsAfQBdACwAIgBBAD8AIgA6ACIAQwAiACwAIgBBACIAOgBbAHsAIgBEACIAOgB7ACIAQwAiADoAIgAjAGYAZgBmAGYAZgBmACIAfQAsACIARQAiADoAWwB7ACIAQQAiADoAMgAyAC4AMAA4ADkAMwAyADkAMgAzADEANwA1ADIANgAzACwAIgBCACIAOgAyADUALgA2ADMAMgA5ADMANQAxADYAMAA0ADAAMQAwADcANQAsACIARAAiADoAMQA4ADYAOAAuADcAMwA0ADEAMgA5ADYANwA5ADEAOQA3ADgALAAiAEMAIgA6ADEAMAAzADUALgA4ADIAMQAzADQAMQA1ADMANgA0ADkANAA2ACwAIgBBAD8AIgA6ACIASgAiACwAIgBhACIAOgB7ACIARAAiADoANgA0ACwAIgBDACIAOgA2ADQAfQAsACIAYgAiADoAWwB7ACIAQQAiADoAIgBNADAAIAAwAEgANgA0AFYANgA0AEgAMAB6ACIALAAiAEIAIgA6AHsAIgBBACIAOgBmAGEAbABzAGUALAAiAEMAIgA6ACIAIwBhADYAYQA2AGEANgAiAH0ALAAiAEQAIgA6ADgAMAB9AF0ALAAiAGMAIgA6AHsAIgBBACIAOgB7ACIARAAiADoANgA0ACwAIgBDACIAOgA2ADQAfQAsACIAQgAiADoAMwA2ADkALgAxADMAMgA2ADYANwA1ADkAMAA5ADUAMgA1ADYALAAiAEMAIgA6ADIAMAA0AC4ANgAwADYANgA4ADQANwA0ADcAOQA0ADkANQA0ACwAIgBEACIAOgAiAEEAIgAsACIARQAiADoAIgBBACIAfQAsACIAZQAiADoAewB9ACwAIgBmACIAOgBbAHsAIgBBACIAOgB7ACIAQQAiADoAWwB7ACIAQQA/ACIAOgAiAEEAIgAsACIAQQAiADoAIgBcAG4AIgB9AF0ALAAiAEIAIgA6AFsAewAiAEEAPwAiADoAIgBBACIALAAiAEEAIgA6AHsAIgBmAG8AbgB0AC0AcwBpAHoAZQAiADoAewAiAEIAIgA6ACIAMgA1AC4AMwAzADMAMwAiAH0ALAAiAGYAbwBuAHQALQBmAGEAbQBpAGwAeQAiADoAewAiAEIAIgA6ACIAWQBBAEYAZABKAHQAOABkAEEAWQAwACwAMAAiAH0ALAAiAGMAbwBsAG8AcgAiADoAewAiAEIAIgA6ACIAIwBmAGYAZgBmAGYAZgAiAH0ALAAiAHQAZQB4AHQALQBhAGwAaQBnAG4AIgA6AHsAIgBCACIAOgAiAGMAZQBuAHQAZQByACIAfQAsACIAcwBwAGEAYwBpAG4AZwAiADoAewAiAEIAIgA6ACIAMAAuADAAIgB9AH0AfQAsAHsAIgBBAD8AIgA6ACIAQgAiACwAIgBBACIAOgAxAH0ALAB7ACIAQQA/ACIAOgAiAEEAIgAsACIAQQAiADoAewAiAGYAbwBuAHQALQBzAGkAegBlACIAOgB7AH0ALAAiAGYAbwBuAHQALQBmAGEAbQBpAGwAeQAiADoAewB9ACwAIgBjAG8AbABvAHIAIgA6AHsAfQAsACIAdABlAHgAdAAtAGEAbABpAGcAbgAiADoAewB9ACwAIgBzAHAAYQBjAGkAbgBnACIAOgB7AH0AfQB9AF0AfQAsACIAQgAiADoAewB9ACwAIgBEACIAOgB7ACIARAAiADoANgA0ACwAIgBDACIAOgA2ADQAfQAsACIARQAiADoAWwA0AF0ALAAiAEYAIgA6ACIAQgAiAH0AXQAsACIAaAAiADoAewAiAEEAPwAiADoAIgBIACIALAAiAEEAIgA6ADEAMAAzADUALgA4ADIAMQAzADQAMQA1ADMANgA0ADkANAA2AH0AfQAsAHsAIgBBACIAOgAzADMAOQAuADQAMgA0ADQAMwA5ADkAMQA2ADUAOAA0ADUANgAsACIAQgAiADoAMgA5ADgALgA5ADIAOQAxADEAMgAzADkANwA2ADgANwA2ACwAIgBEACIAOgAxADMAMgAyAC4AMQA0ADEANwA3ADUAMgAwADQANgAyADQAOAAsACIAQwAiADoANAAwADEALgAxADUAMQAxADIAMAAxADYANgA4ADMAMAA2ACwAIgBBAD8AIgA6ACIASAAiACwAIgBiACIAOgAxADMAMgAyAC4AMQA0ADEANwA3ADUAMgAwADQANgAyADQAOAAsACIAYQAiADoANAAwADEALgAxADUAMQAxADIAMAAxADYANgA4ADMAMAA2ACwAIgBjACIAOgBbAHsAIgBBACIAOgA1ADMALgA5ADMAMwAzADQAMAAwADAAMAAwADAAMAAwADYALAAiAEIAIgA6ADEALgAyADcAOAA5ADcANgA5ADIANAAzADYAOAAxADgAMAAzAGUALQAxADMALAAiAEQAIgA6ADEAMwA3AC4ANgAwADAANgA2ADcAOQAxADkAMAA2ADEAMgA0ACwAIgBDACIAOgAxADMANwAuADYAMAAwADYANgA3ADkAMQA5ADAANgAxADIANAAsACIAQQA/ACIAOgAiAEkAIgAsACIAYQAiADoAewAiAEEAIgA6AGYAYQBsAHMAZQAsACIAQgAiADoAewAiAEEAIgA6AHsAIgBBACIAOgAiAE0AQQBHAEcASQAtAGgAWQBIAGsAdwAiACwAIgBCACIAOgAxAH0ALAAiAEIAIgA6AHsAIgBEACIAOgAxADMANwAuADYAMAAwADYANgA3ADkAMQA5ADAANgAxADIANAAsACIAQwAiADoAMQAzADcALgA2ADAAMAA2ADYANwA5ADEAOQAwADYAMQAyADQAfQAsACIAQwAiADoAewAiACMAZgBmAGYAZgBmAGYAIgA6ACIAIwAwADAAMAAwADAAMAAiAH0AfQB9AH0ALAB7ACIAQQAiADoANgAxAC4AOAA5ADkANQA4ADAANQA1ADQAMQA1ADkANAA4ADUALAAiAEIAIgA6ADEANwAwAC4ANAA0ADEANwA3ADUAMgAwADQANgAyADQANQAsACIARAAiADoAMQAxADUAMQAuADcALAAiAEMAIgA6ADEAMQA5AC4AOQA5ADkAOQA5ADkAOQA5ADkAOQA5ADkAOQA0ACwAIgBGACIAOgAwAC4ANAA2ACwAIgBBAD8AIgA6ACIASgAiACwAIgBhACIAOgB7ACIARAAiADoANgA0ACwAIgBDACIAOgA2ADQAfQAsACIAYgAiADoAWwB7ACIAQQAiADoAIgBNADAAIAAwAEgANgA0AFYANgA0AEgAMAB6ACIALAAiAEIAIgA6AHsAIgBBACIAOgBmAGEAbABzAGUALAAiAEMAIgA6ACIAIwBlADIAZQAyAGUAMgAiAH0ALAAiAEMAIgA6AHsAIgBBACIAOgA0ACwAIgBCACIAOgAiACMAMAAwADAAMAAwADAAIgAsACIAZgAiADoAdAByAHUAZQB9AH0AXQAsACIAYwAiADoAewAiAEEAIgA6AHsAIgBEACIAOgA2ADQALAAiAEMAIgA6ADYANAB9ACwAIgBCACIAOgAyADUANwAuADAAMQAyADIAMgA2ADcANgAzADIAOQA5ADAANQAsACIAQwAiADoAMgA2AC4ANwA3ADkAMAA4ADAANgA3ADMANAAzADUANgA3ADIALAAiAEQAIgA6ACIAQQAiACwAIgBFACIAOgAiAEEAIgB9ACwAIgBlACIAOgB7AH0ALAAiAGYAIgA6AFsAewAiAEEAIgA6AHsAIgBBACIAOgBbAHsAIgBBAD8AIgA6ACIAQQAiACwAIgBBACIAOgAiAFwAbgAiAH0AXQAsACIAQgAiADoAWwB7ACIAQQA/ACIAOgAiAEEAIgAsACIAQQAiADoAewAiAGYAbwBuAHQALQBzAGkAegBlACIAOgB7ACIAQgAiADoAIgAyADUALgAzADMAMwAzACIAfQAsACIAdABlAHgAdAAtAHQAcgBhAG4AcwBmAG8AcgBtACIAOgB7ACIAQgAiADoAIgBuAG8AbgBlACIAfQAsACIAdAByAGEAYwBrAGkAbgBnACIAOgB7ACIAQgAiADoAIgAwAC4AMAAiAH0ALAAiAGYAbwBuAHQALQB3AGUAaQBnAGgAdAAiADoAewAiAEIAIgA6ACIAbgBvAHIAbQBhAGwAIgB9ACwAIgBsAGUAYQBkAGkAbgBnACIAOgB7ACIAQgAiADoAIgAxADQAMAAwAC4AMAAiAH0ALAAiAGYAbwBuAHQALQBzAHQAeQBsAGUAIgA6AHsAIgBCACIAOgAiAG4AbwByAG0AYQBsACIAfQAsACIAYwBvAGwAbwByACIAOgB7ACIAQgAiADoAIgAjADAAMAAwADAAMAAwACIAfQAsACIAZgBvAG4AdAAtAGYAYQBtAGkAbAB5ACIAOgB7ACIAQgAiADoAIgBZAEEARgBkAEoAdAA4AGQAQQBZADAALAAwACIAfQB9AH0ALAB7ACIAQQA/ACIAOgAiAEIAIgAsACIAQQAiADoAMQB9ACwAewAiAEEAPwAiADoAIgBBACIALAAiAEEAIgA6AHsAIgBmAG8AbgB0AC0AcwBpAHoAZQAiADoAewB9ACwAIgB0AGUAeAB0AC0AdAByAGEAbgBzAGYAbwByAG0AIgA6AHsAfQAsACIAdAByAGEAYwBrAGkAbgBnACIAOgB7AH0ALAAiAGYAbwBuAHQALQB3AGUAaQBnAGgAdAAiADoAewB9ACwAIgBsAGUAYQBkAGkAbgBnACIAOgB7AH0ALAAiAGYAbwBuAHQALQBzAHQAeQBsAGUAIgA6AHsAfQAsACIAYwBvAGwAbwByACIAOgB7AH0ALAAiAGYAbwBuAHQALQBmAGEAbQBpAGwAeQAiADoAewB9AH0AfQBdAH0ALAAiAEIAIgA6AHsAfQAsACIARAAiADoAewAiAEQAIgA6ADYANAAsACIAQwAiADoANgA0AH0ALAAiAEUAIgA6AFsANABdACwAIgBGACIAOgAiAEIAIgB9AF0ALAAiAGgAIgA6AHsAIgBBAD8AIgA6ACIASAAiACwAIgBBACIAOgAxADEAOQAuADkAOQA5ADkAOQA5ADkAOQA5ADkAOQA5ADkANAB9AH0ALAB7ACIAQQAiADoAMgA3ADcALgA4ADkAOQA5ADgAMAAwADUAOAA3ADcAMwA3ADQALAAiAEIAIgA6ADEANwAwAC4ANAA0ADEANwA3ADUAMgAwADQANgAyADQANwAyACwAIgBEACIAOgAxADEANQAxAC4ANwAwADAAMAAwADAAMAAwADAAMAAwADAAMwAsACIAQwAiADoAMQAxADkALgA5ADkAOQA5ADkAOQA5ADkAOQA5ADkAOQA5ADQALAAiAEYAIgA6ADAALgA0ADYALAAiAEEAPwAiADoAIgBKACIALAAiAGEAIgA6AHsAIgBEACIAOgA2ADQALAAiAEMAIgA6ADYANAB9ACwAIgBiACIAOgBbAHsAIgBBACIAOgAiAE0AMAAgADAASAA2ADQAVgA2ADQASAAwAHoAIgAsACIAQgAiADoAewAiAEEAIgA6AGYAYQBsAHMAZQAsACIAQwAiADoAIgAjAGUAMgBlADIAZQAyACIAfQAsACIAQwAiADoAewAiAEEAIgA6ADQALAAiAEIAIgA6ACIAIwAwADAAMAAwADAAMAAiACwAIgBmACIAOgB0AHIAdQBlAH0AfQBdACwAIgBjACIAOgB7ACIAQQAiADoAewAiAEQAIgA6ADYANAAsACIAQwAiADoANgA0AH0ALAAiAEIAIgA6ADIANQA3AC4AMAAxADIAMgAyADYANwA2ADMAMgA5ADkAMQAsACIAQwAiADoAMgA2AC4ANwA3ADkAMAA4ADAANgA3ADMANAAzADUANgA3ADIALAAiAEQAIgA6ACIAQQAiACwAIgBFACIAOgAiAEEAIgB9ACwAIgBlACIAOgB7AH0ALAAiAGYAIgA6AFsAewAiAEEAIgA6AHsAIgBBACIAOgBbAHsAIgBBAD8AIgA6ACIAQQAiACwAIgBBACIAOgAiAFwAbgAiAH0AXQAsACIAQgAiADoAWwB7ACIAQQA/ACIAOgAiAEEAIgAsACIAQQAiADoAewAiAGYAbwBuAHQALQBzAGkAegBlACIAOgB7ACIAQgAiADoAIgAyADUALgAzADMAMwAzACIAfQAsACIAdABlAHgAdAAtAHQAcgBhAG4AcwBmAG8AcgBtACIAOgB7ACIAQgAiADoAIgBuAG8AbgBlACIAfQAsACIAdAByAGEAYwBrAGkAbgBnACIAOgB7ACIAQgAiADoAIgAwAC4AMAAiAH0ALAAiAGYAbwBuAHQALQB3AGUAaQBnAGgAdAAiADoAewAiAEIAIgA6ACIAbgBvAHIAbQBhAGwAIgB9ACwAIgBsAGUAYQBkAGkAbgBnACIAOgB7ACIAQgAiADoAIgAxADQAMAAwAC4AMAAiAH0ALAAiAGYAbwBuAHQALQBzAHQAeQBsAGUAIgA6AHsAIgBCACIAOgAiAG4AbwByAG0AYQBsACIAfQAsACIAYwBvAGwAbwByACIAOgB7ACIAQgAiADoAIgAjADAAMAAwADAAMAAwACIAfQAsACIAZgBvAG4AdAAtAGYAYQBtAGkAbAB5ACIAOgB7ACIAQgAiADoAIgBZAEEARgBkAHQAUQBpADcAMwBYAHMALAAwACIAfQB9AH0ALAB7ACIAQQA/ACIAOgAiAEIAIgAsACIAQQAiADoAMQB9ACwAewAiAEEAPwAiADoAIgBBACIALAAiAEEAIgA6AHsAIgBmAG8AbgB0AC0AcwBpAHoAZQAiADoAewB9ACwAIgB0AGUAeAB0AC0AdAByAGEAbgBzAGYAbwByAG0AIgA6AHsAfQAsACIAdAByAGEAYwBrAGkAbgBnACIAOgB7AH0ALAAiAGYAbwBuAHQALQB3AGUAaQBnAGgAdAAiADoAewB9ACwAIgBsAGUAYQBkAGkAbgBnACIAOgB7AH0ALAAiAGYAbwBuAHQALQBzAHQAeQBsAGUAIgA6AHsAfQAsACIAYwBvAGwAbwByACIAOgB7AH0ALAAiAGYAbwBuAHQALQBmAGEAbQBpAGwAeQAiADoAewB9AH0AfQBdAH0ALAAiAEIAIgA6AHsAfQAsACIARAAiADoAewAiAEQAIgA6ADYANAAsACIAQwAiADoANgA0AH0ALAAiAEUAIgA6AFsANABdACwAIgBGACIAOgAiAEIAIgB9AF0ALAAiAGgAIgA6AHsAIgBBAD8AIgA6ACIASAAiACwAIgBBACIAOgAxADEAOQAuADkAOQA5ADkAOQA5ADkAOQA5ADkAOQA5ADkANAB9AH0ALAB7ACIAQQAiADoAMgA3ADYALgAzADEANwAwADIANgA3ADYAMQA0ADUAOQA0ACwAIgBCACIAOgAyAC4AMAAxADIAMAA3ADYANQA1ADUANQA5ADIANAAxADUALAAiAEQAIgA6ADEAMgA0AC4AOAAzADQAMAA5ADMANAAwADUAMwA3ADEAMwAzACwAIgBDACIAOgAxADIANAAuADgAMwA0ADAAOQAzADQAMAA1ADMANwAxADMAMwAsACIAQQA/ACIAOgAiAEkAIgAsACIAYQAiADoAewAiAEIAIgA6AHsAIgBBACIAOgB7ACIAQQAiADoAIgBNAEEARwBHAEkAMwBHADQAOQBBAHcAIgAsACIAQgAiADoAMQB9ACwAIgBCACIAOgB7ACIARAAiADoAMQAyADQALgA4ADMANAAwADkAMwA0ADAANQAzADcAMQAzADMALAAiAEMAIgA6ADEAMgA0AC4AOAAzADQAMAA5ADMANAAwADUAMwA3ADEAMwAzAH0ALAAiAEMAIgA6AHsAIgAjAGYAZgBmAGYAZgBmACIAOgAiACMAMAAwADAAMAAwADAAIgB9AH0AfQB9ACwAewAiAEEAIgA6ADcALgA4ADEANQA5ADcAMAAwADkAMwAzADYAMQAxADAAMgBlAC0AMQA0ACwAIgBCACIAOgAxADcAMAAuADQAMAA4ADkANQAyADgAOQA4ADQAMAA2ADQAOAAsACIARAAiADoANAAzADcALgA2ADQAMwA2ADQANwA1ADAAMgAwADkANwA1ADYALAAiAEMAIgA6ADUAMwAuADkAMwAzADMANAAsACIAQQA/ACIAOgAiAEsAIgAsACIAYQAiADoAewAiAEEAIgA6AFsAewAiAEEAPwAiADoAIgBBACIALAAiAEEAIgA6ACIATgBvAG0AZQAgAGQAZQAgAFUAcwB1AOEAcgBpAG8AIAA6AFwAbgAiAH0AXQAsACIAQgAiADoAWwB7ACIAQQA/ACIAOgAiAEEAIgAsACIAQQAiADoAewAiAHQAZQB4AHQALQBhAGwAaQBnAG4AIgA6AHsAIgBCACIAOgAiAGMAZQBuAHQAZQByACIAfQAsACIAZgBvAG4AdAAtAHMAaQB6AGUAIgA6AHsAIgBCACIAOgAiADQANQAuADMAMwAzADMAIgB9ACwAIgBmAG8AbgB0AC0AZgBhAG0AaQBsAHkAIgA6AHsAIgBCACIAOgAiAFkAQQBGAGQAdABRAGkANwAzAFgAcwAsADAAIgB9AH0AfQAsAHsAIgBBAD8AIgA6ACIAQgAiACwAIgBBACIAOgAxADcAfQAsAHsAIgBBAD8AIgA6ACIAQQAiACwAIgBBACIAOgB7ACIAYwBvAGwAbwByACIAOgB7ACIAQgAiADoAIgAjADAAMAAwADAAMAAwACIAfQAsACIAcwBwAGEAYwBpAG4AZwAiADoAewAiAEIAIgA6ACIAMAAuADAAIgB9ACwAIgB0AGUAeAB0AC0AdAByAGEAbgBzAGYAbwByAG0AIgA6AHsAIgBCACIAOgAiAG4AbwBuAGUAIgB9ACwAIgBkAGUAYwBvAHIAYQB0AGkAbwBuACIAOgB7ACIAQgAiADoAIgBuAG8AbgBlACIAfQAsACIAcwB0AHIAaQBrAGUAdABoAHIAbwB1AGcAaAAiADoAewAiAEIAIgA6ACIAbgBvAG4AZQAiAH0ALAAiAGwAaQBuAGsAIgA6AHsAIgBCACIAOgAiACIAfQAsACIAbABpAHMAdAAtAG0AYQByAGsAZQByACIAOgB7ACIAQgAiADoAIgBuAG8AbgBlACIAfQAsACIAbABlAGEAZABpAG4AZwAiADoAewAiAEIAIgA6ACIAMQA0ADAAMAAuADAAIgB9ACwAIgB0AHIAYQBjAGsAaQBuAGcAIgA6AHsAIgBCACIAOgAiADAALgAwACIAfQAsACIAcwB0AHkAbABlACIAOgB7ACIAQgAiADoAIgBiAG8AZAB5ACIAfQAsACIAawBlAHIAbgBpAG4AZwAiADoAewAiAEIAIgA6ACIAMAAuADAAIgB9ACwAIgBsAGkAcwB0AC0AbABlAHYAZQBsACIAOgB7ACIAQgAiADoAIgAwAC4AMAAiAH0ALAAiAGgAZQBhAGQALQBpAG4AZABlAG4AdAAiADoAewAiAEIAIgA6ACIAMAAuADAAIgB9AH0AfQAsAHsAIgBBAD8AIgA6ACIAQgAiACwAIgBBACIAOgAxAH0ALAB7ACIAQQA/ACIAOgAiAEEAIgAsACIAQQAiADoAewAiAGYAbwBuAHQALQBzAGkAegBlACIAOgB7AH0ALAAiAGwAaQBuAGsAIgA6AHsAfQAsACIAaABlAGEAZAAtAGkAbgBkAGUAbgB0ACIAOgB7AH0ALAAiAHQAcgBhAGMAawBpAG4AZwAiADoAewB9ACwAIgBsAGkAcwB0AC0AbABlAHYAZQBsACIAOgB7AH0ALAAiAHMAdAByAGkAawBlAHQAaAByAG8AdQBnAGgAIgA6AHsAfQAsACIAcwB0AHkAbABlACIAOgB7AH0ALAAiAGQAZQBjAG8AcgBhAHQAaQBvAG4AIgA6AHsAfQAsACIAdABlAHgAdAAtAHQAcgBhAG4AcwBmAG8AcgBtACIAOgB7AH0ALAAiAGsAZQByAG4AaQBuAGcAIgA6AHsAfQAsACIAbABpAHMAdAAtAG0AYQByAGsAZQByACIAOgB7AH0ALAAiAGwAZQBhAGQAaQBuAGcAIgA6AHsAfQAsACIAdABlAHgAdAAtAGEAbABpAGcAbgAiADoAewB9ACwAIgBzAHAAYQBjAGkAbgBnACIAOgB7AH0ALAAiAGMAbwBsAG8AcgAiADoAewB9ACwAIgBmAG8AbgB0AC0AZgBhAG0AaQBsAHkAIgA6AHsAfQB9AH0AXQB9ACwAIgBiACIAOgB7ACIAQQAiADoAWwAxADgAXQB9ACwAIgBkACIAOgAiAEEAIgAsACIAZwAiADoAZgBhAGwAcwBlACwAIgBoACIAOgAiAEEAIgB9ACwAewAiAEEAIgA6ADIAMQA2AC4AMAAwADAAMwA5ADkANQAwADQANgAxADQANAAyACwAIgBCACIAOgAxADcAMAAuADQAMAA4ADkANQAyADgAOQA4ADQAMAA2ADQAOAAsACIARAAiADoAMQA5ADQALgAxADEAOAAxADIAMgA5ADAAMgA2ADAAMAA4ADUALAAiAEMAIgA6ADUAMwAuADkAMwAzADMANAAsACIAQQA/ACIAOgAiAEsAIgAsACIAYQAiADoAewAiAEEAIgA6AFsAewAiAEEAPwAiADoAIgBBACIALAAiAEEAIgA6ACIAUwBlAG4AaABhACAAOgBcAG4AIgB9AF0ALAAiAEIAIgA6AFsAewAiAEEAPwAiADoAIgBBACIALAAiAEEAIgA6AHsAIgB0AGUAeAB0AC0AYQBsAGkAZwBuACIAOgB7ACIAQgAiADoAIgBjAGUAbgB0AGUAcgAiAH0ALAAiAGYAbwBuAHQALQBzAGkAegBlACIAOgB7ACIAQgAiADoAIgA0ADUALgAzADMAMwAzACIAfQAsACIAZgBvAG4AdAAtAGYAYQBtAGkAbAB5ACIAOgB7ACIAQgAiADoAIgBZAEEARgBkAHQAUQBpADcAMwBYAHMALAAwACIAfQB9AH0ALAB7ACIAQQA/ACIAOgAiAEIAIgAsACIAQQAiADoANwB9ACwAewAiAEEAPwAiADoAIgBBACIALAAiAEEAIgA6AHsAIgBmAG8AbgB0AC0AcwB0AHkAbABlACIAOgB7ACIAQgAiADoAIgBuAG8AcgBtAGEAbAAiAH0ALAAiAHQAZQB4AHQALQB0AHIAYQBuAHMAZgBvAHIAbQAiADoAewAiAEIAIgA6ACIAbgBvAG4AZQAiAH0ALAAiAGwAZQBhAGQAaQBuAGcAIgA6AHsAIgBCACIAOgAiADEANAAwADAALgAwACIAfQAsACIAbABpAHMAdAAtAGwAZQB2AGUAbAAiADoAewAiAEIAIgA6ACIAMAAuADAAIgB9ACwAIgBrAGUAcgBuAGkAbgBnACIAOgB7ACIAQgAiADoAIgAwAC4AMAAiAH0ALAAiAHMAdAB5AGwAZQAiADoAewAiAEIAIgA6ACIAYgBvAGQAeQAiAH0ALAAiAHMAdAByAGkAawBlAHQAaAByAG8AdQBnAGgAIgA6AHsAIgBCACIAOgAiAG4AbwBuAGUAIgB9ACwAIgBmAG8AbgB0AC0AdwBlAGkAZwBoAHQAIgA6AHsAIgBCACIAOgAiAG4AbwByAG0AYQBsACIAfQAsACIAcwBwAGEAYwBpAG4AZwAiADoAewAiAEIAIgA6ACIAMAAuADAAIgB9ACwAIgBsAGkAbgBrACIAOgB7ACIAQgAiADoAIgAiAH0ALAAiAHQAcgBhAGMAawBpAG4AZwAiADoAewAiAEIAIgA6ACIAMAAuADAAIgB9ACwAIgBkAGUAYwBvAHIAYQB0AGkAbwBuACIAOgB7ACIAQgAiADoAIgBuAG8AbgBlACIAfQAsACIAaABlAGEAZAAtAGkAbgBkAGUAbgB0ACIAOgB7ACIAQgAiADoAIgAwAC4AMAAiAH0ALAAiAGMAbwBsAG8AcgAiADoAewAiAEIAIgA6ACIAIwAwADAAMAAwADAAMAAiAH0ALAAiAGwAaQBzAHQALQBtAGEAcgBrAGUAcgAiADoAewAiAEIAIgA6ACIAbgBvAG4AZQAiAH0AfQB9ACwAewAiAEEAPwAiADoAIgBCACIALAAiAEEAIgA6ADEAfQAsAHsAIgBBAD8AIgA6ACIAQQAiACwAIgBBACIAOgB7ACIAcwBwAGEAYwBpAG4AZwAiADoAewB9ACwAIgBoAGUAYQBkAC0AaQBuAGQAZQBuAHQAIgA6AHsAfQAsACIAawBlAHIAbgBpAG4AZwAiADoAewB9ACwAIgBsAGkAcwB0AC0AbQBhAHIAawBlAHIAIgA6AHsAfQAsACIAbABpAG4AawAiADoAewB9ACwAIgBzAHQAeQBsAGUAIgA6AHsAfQAsACIAZgBvAG4AdAAtAHMAdAB5AGwAZQAiADoAewB9ACwAIgBmAG8AbgB0AC0AcwBpAHoAZQAiADoAewB9ACwAIgBmAG8AbgB0AC0AZgBhAG0AaQBsAHkAIgA6AHsAfQAsACIAdABlAHgAdAAtAGEAbABpAGcAbgAiADoAewB9ACwAIgB0AHIAYQBjAGsAaQBuAGcAIgA6AHsAfQAsACIAbABlAGEAZABpAG4AZwAiADoAewB9ACwAIgBsAGkAcwB0AC0AbABlAHYAZQBsACIAOgB7AH0ALAAiAHMAdAByAGkAawBlAHQAaAByAG8AdQBnAGgAIgA6AHsAfQAsACIAZgBvAG4AdAAtAHcAZQBpAGcAaAB0ACIAOgB7AH0ALAAiAGQAZQBjAG8AcgBhAHQAaQBvAG4AIgA6AHsAfQAsACIAdABlAHgAdAAtAHQAcgBhAG4AcwBmAG8AcgBtACIAOgB7AH0ALAAiAGMAbwBsAG8AcgAiADoAewB9AH0AfQBdAH0ALAAiAGIAIgA6AHsAIgBBACIAOgBbADgAXQB9ACwAIgBkACIAOgAiAEEAIgAsACIAZwAiADoAZgBhAGwAcwBlACwAIgBoACIAOgAiAEEAIgB9AF0AfQAsAHsAIgBBACIAOgA5ADEAMwAuADAAOQAxADMANgA2ADcAMAA1ADIAOAA1ADQALAAiAEIAIgA6ADcANQAzAC4AOAAxADcAOQA4ADUANgA5ADcANwAzADQAOQAsACIARAAiADoANAAxADIALgAzADYANAAwADIAOAA2ADAANAA1ADMAMAAxACwAIgBDACIAOgAxADEANwAuADgAMQA3ADIANgA2ADUAOAA5ADQAMgA5ADIAMQAsACIARgAiADoAMAAuADIANgAsACIAQQA/ACIAOgAiAEoAIgAsACIAYQAiADoAewAiAEQAIgA6ADYANAAsACIAQwAiADoANgA0AH0ALAAiAGIAIgA6AFsAewAiAEEAIgA6ACIATQAwACAAMABIADYANABWADYANABIADAAegAiACwAIgBCACIAOgB7ACIAQQAiADoAZgBhAGwAcwBlACwAIgBDACIAOgAiACMAZQAyAGUAMgBlADIAIgB9ACwAIgBDACIAOgB7ACIAQQAiADoANAAsACIAQgAiADoAIgAjADAAMAAwADAAMAAwACIALAAiAGYAIgA6AHQAcgB1AGUAfQAsACIARAAiADoANAA1AH0AXQAsACIAYwAiADoAewAiAEEAIgA6AHsAIgBEACIAOgA2ADQALAAiAEMAIgA6ADYANAB9ACwAIgBCACIAOgA4ADEALgA0ADUANAA2ADIAMgA5ADMANAAyADIAOAAxADUALAAiAEMAIgA6ADIAMwAuADIANwAyADUANAA2ADQAOAA2ADgAMAAwADgAMwA0ACwAIgBEACIAOgAiAEEAIgAsACIARQAiADoAIgBBACIAfQAsACIAZQAiADoAewB9ACwAIgBmACIAOgBbAHsAIgBBACIAOgB7ACIAQQAiADoAWwB7ACIAQQA/ACIAOgAiAEEAIgAsACIAQQAiADoAIgBFAG4AdAByAGEAcgBcAG4AIgB9AF0ALAAiAEIAIgA6AFsAewAiAEEAPwAiADoAIgBBACIALAAiAEEAIgA6AHsAIgB0AGUAeAB0AC0AYQBsAGkAZwBuACIAOgB7ACIAQgAiADoAIgBjAGUAbgB0AGUAcgAiAH0ALAAiAGYAbwBuAHQALQBzAGkAegBlACIAOgB7ACIAQgAiADoAIgAyADUALgAzADMAMwAzACIAfQAsACIAZgBvAG4AdAAtAGYAYQBtAGkAbAB5ACIAOgB7ACIAQgAiADoAIgBZAEEARgBkAHQAUQBpADcAMwBYAHMALAAwACIAfQB9AH0ALAB7ACIAQQA/ACIAOgAiAEIAIgAsACIAQQAiADoANgB9ACwAewAiAEEAPwAiADoAIgBBACIALAAiAEEAIgA6AHsAIgBmAG8AbgB0AC0AcwB0AHkAbABlACIAOgB7ACIAQgAiADoAIgBuAG8AcgBtAGEAbAAiAH0ALAAiAGYAbwBuAHQALQB3AGUAaQBnAGgAdAAiADoAewAiAEIAIgA6ACIAbgBvAHIAbQBhAGwAIgB9ACwAIgB0AHIAYQBjAGsAaQBuAGcAIgA6AHsAIgBCACIAOgAiADAALgAwACIAfQAsACIAdABlAHgAdAAtAHQAcgBhAG4AcwBmAG8AcgBtACIAOgB7ACIAQgAiADoAIgBuAG8AbgBlACIAfQAsACIAYwBvAGwAbwByACIAOgB7ACIAQgAiADoAIgAjADAAMAAwADAAMAAwACIAfQAsACIAbABlAGEAZABpAG4AZwAiADoAewAiAEIAIgA6ACIAMQA0ADAAMAAuADAAIgB9AH0AfQAsAHsAIgBBAD8AIgA6ACIAQgAiACwAIgBBACIAOgAxAH0ALAB7ACIAQQA/ACIAOgAiAEEAIgAsACIAQQAiADoAewAiAGYAbwBuAHQALQBmAGEAbQBpAGwAeQAiADoAewB9ACwAIgB0AHIAYQBjAGsAaQBuAGcAIgA6AHsAfQAsACIAbABlAGEAZABpAG4AZwAiADoAewB9ACwAIgB0AGUAeAB0AC0AYQBsAGkAZwBuACIAOgB7AH0ALAAiAGYAbwBuAHQALQB3AGUAaQBnAGgAdAAiADoAewB9ACwAIgB0AGUAeAB0AC0AdAByAGEAbgBzAGYAbwByAG0AIgA6AHsAfQAsACIAYwBvAGwAbwByACIAOgB7AH0ALAAiAGYAbwBuAHQALQBzAHQAeQBsAGUAIgA6AHsAfQAsACIAZgBvAG4AdAAtAHMAaQB6AGUAIgA6AHsAfQB9AH0AXQB9ACwAIgBCACIAOgB7ACIAQQAiADoAWwA3AF0AfQAsACIARAAiADoAewAiAEQAIgA6ADYANAAsACIAQwAiADoANgA0AH0ALAAiAEUAIgA6AFsANABdACwAIgBGACIAOgAiAEIAIgB9AF0ALAAiAGgAIgA6AHsAIgBBAD8AIgA6ACIASAAiACwAIgBBACIAOgAxADEANwAuADgAMQA3ADIANgA2ADUAOAA5ADQAMgA5ADIAMQB9AH0ALAB7ACIAQQAiADoANgA3AC4ANAA5ADIAMgAwADAAMwA3ADkANQAyADkANAAyACwAIgBCACIAOgA3ADUAOQAuADAANwA4ADEAMgA1ACwAIgBEACIAOgA0ADAAMQAuADgANAAzADcANQAsACIAQwAiADoAMQA0ADYALgA0ADYANgA2ACwAIgBBAD8AIgA6ACIASwAiACwAIgBhACIAOgB7ACIAQQAiADoAWwB7ACIAQQA/ACIAOgAiAEEAIgAsACIAQQAiADoAIgBFAG4AdAByAGEAcgBcAG4AIgB9AF0ALAAiAEIAIgA6AFsAewAiAEEAPwAiADoAIgBBACIALAAiAEEAIgA6AHsAIgBmAG8AbgB0AC0AcwBpAHoAZQAiADoAewAiAEIAIgA6ACIAMQAyADIALgA2ADYANwAiAH0ALAAiAGYAbwBuAHQALQB3AGUAaQBnAGgAdAAiADoAewAiAEIAIgA6ACIAYgBvAGwAZAAiAH0ALAAiAHQAZQB4AHQALQBhAGwAaQBnAG4AIgA6AHsAIgBCACIAOgAiAGMAZQBuAHQAZQByACIAfQAsACIAZgBvAG4AdAAtAGYAYQBtAGkAbAB5ACIAOgB7ACIAQgAiADoAIgBZAEEARgBkAHQAUQBpADcAMwBYAHMALAAwACIAfQB9AH0ALAB7ACIAQQA/ACIAOgAiAEIAIgAsACIAQQAiADoANgB9ACwAewAiAEEAPwAiADoAIgBBACIALAAiAEEAIgA6AHsAIgBjAG8AbABvAHIAIgA6AHsAIgBCACIAOgAiACMAMAAwADAAMAAwADAAIgB9ACwAIgBmAG8AbgB0AC0AcwB0AHkAbABlACIAOgB7ACIAQgAiADoAIgBuAG8AcgBtAGEAbAAiAH0AfQB9ACwAewAiAEEAPwAiADoAIgBCACIALAAiAEEAIgA6ADEAfQAsAHsAIgBBAD8AIgA6ACIAQQAiACwAIgBBACIAOgB7ACIAZgBvAG4AdAAtAHMAdAB5AGwAZQAiADoAewB9ACwAIgBmAG8AbgB0AC0AZgBhAG0AaQBsAHkAIgA6AHsAfQAsACIAZgBvAG4AdAAtAHMAaQB6AGUAIgA6AHsAfQAsACIAZgBvAG4AdAAtAHcAZQBpAGcAaAB0ACIAOgB7AH0ALAAiAGMAbwBsAG8AcgAiADoAewB9ACwAIgB0AGUAeAB0AC0AYQBsAGkAZwBuACIAOgB7AH0AfQB9AF0AfQAsACIAYgAiADoAewAiAEEAIgA6AFsANwBdAH0ALAAiAGQAIgA6ACIAQQAiACwAIgBnACIAOgBmAGEAbABzAGUALAAiAGgAIgA6ACIAQgAiAH0AXQB9AF0ALAAiAEIAIgA6ADEAOQAyADAALAAiAEMAIgA6ADEAMAA4ADAAfQA=&quot;&gt;&lt;/span&gt;&lt;/div&gt;&#xa;&#xa;" style="rounded=0;whiteSpace=wrap;html=1;fillColor=#D9D9D9;movable=0;resizable=0;rotatable=0;deletable=0;editable=0;locked=1;connectable=0;" vertex="1" parent="HJ8jTmEqCARMnONLD_iu-19">
          <mxGeometry width="340" height="630" as="geometry" />
        </mxCell>
        <mxCell id="HJ8jTmEqCARMnONLD_iu-21" value="" style="rounded=1;whiteSpace=wrap;html=1;fillColor=#A6A6A6;" vertex="1" parent="HJ8jTmEqCARMnONLD_iu-19">
          <mxGeometry x="10" y="160" width="320" height="450" as="geometry" />
        </mxCell>
        <mxCell id="HJ8jTmEqCARMnONLD_iu-22" value="&lt;font style=&quot;font-size: 25px;&quot;&gt;Tem certeza que deseja Remover?&lt;/font&gt;" style="text;html=1;align=center;verticalAlign=middle;whiteSpace=wrap;rounded=0;" vertex="1" parent="HJ8jTmEqCARMnONLD_iu-19">
          <mxGeometry x="40" y="320" width="260" height="30" as="geometry" />
        </mxCell>
        <mxCell id="HJ8jTmEqCARMnONLD_iu-23" value="Remover" style="rounded=1;whiteSpace=wrap;html=1;fillColor=#E2E2E2;fontSize=16;" vertex="1" parent="HJ8jTmEqCARMnONLD_iu-19">
          <mxGeometry x="41" y="480" width="120" height="40" as="geometry" />
        </mxCell>
        <mxCell id="HJ8jTmEqCARMnONLD_iu-24" value="Voltar" style="rounded=1;whiteSpace=wrap;html=1;fillColor=#E2E2E2;fontSize=16;" vertex="1" parent="HJ8jTmEqCARMnONLD_iu-19">
          <mxGeometry x="179" y="480" width="120" height="40" as="geometry" />
        </mxCell>
        <mxCell id="HJ8jTmEqCARMnONLD_iu-25" value="&lt;span style=&quot;font-size: 55px;&quot;&gt;Remover&lt;/span&gt;" style="text;html=1;align=center;verticalAlign=middle;whiteSpace=wrap;rounded=0;fillColor=none;" vertex="1" parent="HJ8jTmEqCARMnONLD_iu-1">
          <mxGeometry x="614" y="1698" width="220" height="70" as="geometry" />
        </mxCell>
      </root>
    </mxGraphModel>
  </diagram>
</mxfile>
